<?xml version="1.0" standalone="no"?>
<!DOCTYPE svg PUBLIC "-//W3C//DTD SVG 20010904//EN"
 "http://www.w3.org/TR/2001/REC-SVG-20010904/DTD/svg10.dtd">
<svg version="1.0" xmlns="http://www.w3.org/2000/svg"
 width="512.000000pt" height="512.000000pt" viewBox="0 0 512.000000 512.000000"
 preserveAspectRatio="xMidYMid meet">

<g transform="translate(0.000000,512.000000) scale(0.100000,-0.100000)"
fill="#000000" stroke="none">
<path d="M2351 5109 c-606 -50 -1153 -303 -1587 -734 -77 -77 -167 -174 -200
-215 -246 -312 -420 -677 -503 -1056 -74 -335 -74 -753 0 -1088 83 -379 258
-746 503 -1056 76 -96 299 -319 395 -394 309 -245 658 -413 1036 -500 346 -79
765 -81 1109 -5 379 84 746 259 1056 503 109 86 344 326 426 436 193 257 315
491 409 781 85 262 118 484 118 779 0 295 -33 517 -118 779 -130 403 -327 723
-630 1026 -149 149 -262 241 -425 348 -460 299 -1031 442 -1589 396z m516
-134 c447 -59 869 -239 1223 -523 489 -392 822 -999 889 -1624 14 -125 14
-411 0 -536 -48 -449 -237 -901 -527 -1261 -394 -491 -998 -823 -1624 -890
-125 -14 -411 -14 -536 0 -445 48 -901 238 -1258 524 -485 389 -807 964 -889
1588 -20 155 -20 459 0 614 59 447 240 870 523 1222 384 479 959 801 1577 885
141 20 476 20 622 1z"/>
<path d="M2410 4870 c-746 -50 -1414 -450 -1817 -1088 -67 -106 -158 -293
-207 -425 -184 -494 -184 -1100 0 -1594 119 -320 295 -594 539 -838 298 -298
657 -505 1051 -604 705 -178 1407 -37 1991 400 126 95 337 306 432 432 317
423 472 887 472 1407 0 522 -155 984 -474 1409 -87 117 -291 323 -407 413
-457 353 -1013 525 -1580 488z m444 -164 l49 -11 29 -100 c16 -55 33 -108 36
-118 6 -15 22 -1 85 73 43 49 84 90 91 90 26 0 156 -32 156 -39 0 -3 -63 -74
-140 -158 l-140 -152 -21 -93 c-12 -51 -23 -94 -24 -96 -1 -2 -35 4 -74 13
-81 19 -79 14 -55 130 l16 76 -61 190 c-34 104 -64 195 -67 203 -6 16 18 14
120 -8z m-264 -266 c70 -151 125 -278 123 -282 -2 -5 -38 -8 -79 -8 l-75 0
-25 55 c-24 53 -27 55 -57 51 -18 -3 -62 -8 -98 -11 l-66 -6 -12 -54 -12 -53
-63 -11 c-71 -13 -96 -14 -96 -5 0 11 152 579 156 583 5 5 140 19 163 17 9 -1
66 -113 141 -276z m-710 101 c58 -41 79 -144 38 -188 l-21 -23 29 0 c93 0 164
-132 119 -220 -8 -16 -34 -42 -58 -58 -45 -31 -256 -132 -275 -132 -11 0 -267
498 -260 505 12 11 262 121 298 131 52 15 94 10 130 -15z m1725 -87 l176 -96
-27 -47 c-15 -25 -29 -49 -33 -53 -3 -4 -55 20 -115 52 -60 33 -110 59 -111
58 -8 -10 -35 -69 -35 -77 0 -5 43 -33 95 -61 52 -28 95 -56 95 -61 0 -7 -42
-81 -55 -97 -2 -2 -43 19 -93 47 -49 28 -94 51 -98 51 -9 0 -57 -81 -52 -85 2
-2 49 -28 106 -60 56 -31 102 -59 102 -62 0 -4 -47 -89 -56 -101 -1 -2 -79 38
-172 89 l-170 94 127 252 c69 139 129 253 133 253 4 0 86 -43 183 -96z m448
-331 c159 -164 190 -219 168 -294 -12 -40 -77 -111 -125 -137 -17 -9 -51 -16
-75 -16 l-45 -1 -32 -80 c-18 -44 -38 -93 -43 -109 -13 -34 -20 -30 -81 48
l-41 54 41 93 41 92 -25 26 -26 25 -64 -63 c-72 -72 -64 -72 -139 -2 l-37 35
202 203 c112 112 203 203 204 203 1 0 36 -35 77 -77z m-2915 -113 c48 -22 48
-18 -8 -93 -33 -44 -37 -47 -72 -41 -61 9 -128 -46 -128 -106 0 -50 62 -121
137 -159 78 -39 141 -22 170 46 13 32 12 39 -5 73 l-19 39 45 56 c24 31 49 54
56 52 6 -2 24 -22 40 -45 43 -61 48 -143 13 -215 -28 -56 -95 -130 -138 -153
-109 -56 -232 -26 -352 85 -67 62 -90 111 -91 187 0 81 37 156 108 222 80 73
161 90 244 52z m1675 -25 c289 -51 550 -187 763 -400 175 -174 287 -355 358
-574 52 -161 69 -272 69 -451 0 -180 -17 -294 -68 -448 -77 -230 -182 -399
-355 -572 -218 -218 -470 -351 -770 -406 -128 -23 -372 -23 -498 0 -462 84
-857 384 -1057 801 -53 111 -98 251 -121 376 -23 126 -24 371 -1 496 67 368
265 688 565 913 210 157 446 248 742 284 65 8 284 -3 373 -19z m1667 -419 l32
-74 -104 -158 c-57 -88 -107 -165 -112 -172 -6 -9 3 -9 31 3 57 24 269 105
276 105 11 0 49 -132 41 -140 -17 -16 -518 -200 -524 -193 -4 4 -17 38 -30 75
l-22 68 110 160 c61 88 109 160 107 160 -3 0 -68 -29 -146 -65 -78 -35 -145
-63 -148 -61 -11 7 -65 125 -60 130 5 6 501 233 510 235 4 1 21 -32 39 -73z
m-3761 -102 c2 -2 -15 -56 -38 -120 -22 -64 -41 -120 -41 -124 0 -4 21 -15 46
-25 55 -21 50 -27 100 112 20 57 41 103 48 102 6 0 32 -10 57 -22 l47 -22 -39
-105 c-22 -57 -38 -109 -35 -115 2 -6 45 -24 95 -40 50 -16 91 -34 91 -39 0
-16 -35 -124 -42 -131 -10 -10 -538 167 -538 180 0 10 92 274 129 367 l10 28
53 -21 c29 -11 55 -22 57 -25z m328 -1454 l31 -70 -68 -127 -68 -128 122 -12
c66 -6 131 -12 144 -12 16 -1 32 -17 57 -56 20 -30 38 -61 41 -69 3 -9 -71
-58 -238 -155 l-243 -142 -20 25 c-11 14 -30 43 -42 64 l-21 38 138 79 c76 44
135 83 132 86 -4 3 -64 14 -134 24 -88 12 -128 22 -128 31 0 7 25 65 55 129
30 65 55 119 55 121 0 2 -65 -31 -146 -72 -80 -42 -147 -75 -149 -72 -2 2 -17
32 -34 68 l-31 65 253 127 c138 70 254 127 257 127 3 1 19 -31 37 -69z m3307
-45 c137 -63 251 -117 254 -120 3 -3 -8 -37 -23 -75 -20 -51 -34 -72 -49 -75
-47 -9 -323 -45 -348 -45 -16 0 -28 -3 -28 -7 0 -5 63 -42 140 -83 77 -41 140
-78 140 -82 0 -4 -16 -34 -36 -68 l-35 -60 -42 24 c-23 13 -132 72 -242 131
-110 59 -204 111 -208 114 -4 4 9 37 30 74 43 75 13 65 281 95 l154 17 -152
69 c-86 39 -149 74 -147 80 34 83 53 126 57 126 3 0 118 -52 254 -115z m-505
-469 l42 -43 -88 -81 -88 -81 35 -36 34 -35 81 80 81 80 43 -44 44 -45 -84
-79 -83 -79 33 -42 34 -43 91 91 c50 50 96 91 102 91 5 0 28 -18 49 -41 l40
-41 -150 -143 c-82 -80 -152 -144 -155 -145 -5 0 -190 203 -344 378 l-40 44
135 129 c74 70 136 128 139 128 3 1 25 -19 49 -43z m-2399 -89 c48 -43 51 -49
38 -65 -133 -155 -229 -276 -234 -296 -9 -36 3 -63 42 -93 44 -33 86 -34 119
-3 14 13 70 85 126 161 l101 138 59 -40 c32 -22 59 -44 59 -50 0 -12 -191
-272 -234 -317 -44 -47 -77 -62 -139 -62 -94 0 -226 89 -270 182 -22 46 -21
124 1 166 21 39 264 333 273 329 3 -1 30 -23 59 -50z m160 -129 c0 -6 -124
-98 -133 -98 -3 0 9 36 25 80 l31 79 38 -27 c21 -15 39 -30 39 -34z m1955
-318 c69 -137 125 -252 125 -254 0 -6 -132 -78 -135 -74 -1 2 -24 46 -50 98
-26 52 -48 96 -50 98 -7 7 -175 -74 -175 -85 0 -7 18 -54 40 -104 22 -51 37
-96 33 -99 -12 -10 -133 -53 -137 -49 -8 10 -218 520 -215 523 6 4 113 45 127
48 8 2 27 -29 49 -82 19 -47 38 -88 42 -93 8 -9 171 62 171 75 0 5 -18 44 -40
88 -22 44 -40 84 -40 90 0 9 105 68 122 70 5 0 64 -112 133 -250z m-1630 125
l70 -26 55 -190 c30 -105 56 -187 57 -182 1 4 20 75 42 157 22 81 41 150 43
151 2 2 33 -4 71 -12 47 -11 67 -20 67 -31 0 -12 -111 -439 -136 -523 -5 -17
-22 -16 -125 11 l-36 10 -59 190 c-32 104 -62 186 -65 182 -4 -4 -28 -73 -55
-154 -54 -165 -40 -154 -141 -116 l-51 19 90 269 c49 149 93 270 96 270 4 0
39 -11 77 -25z m849 -119 c61 -19 111 -58 136 -106 38 -74 22 -90 -86 -90 -38
0 -46 4 -54 25 -21 54 -123 63 -162 15 -55 -68 -47 -224 14 -275 55 -46 146
-25 169 39 12 33 14 34 81 40 37 4 72 5 77 2 15 -10 -8 -99 -37 -140 -39 -56
-108 -88 -202 -94 -89 -5 -143 8 -197 47 -117 84 -140 336 -42 454 66 80 195
115 303 83z"/>
<path d="M2363 4449 l-21 -91 56 6 c31 4 57 8 59 10 4 4 -56 148 -66 159 -4 4
-17 -34 -28 -84z"/>
<path d="M1692 4405 l-53 -24 22 -43 c12 -24 23 -44 24 -46 8 -9 115 53 120
69 8 25 -20 69 -43 69 -9 0 -41 -11 -70 -25z"/>
<path d="M1790 4209 c-24 -11 -46 -22 -48 -23 -8 -9 44 -96 57 -96 22 0 92 41
104 61 7 11 5 25 -4 45 -18 36 -48 40 -109 13z"/>
<path d="M3940 3955 l-43 -44 45 -46 c25 -25 52 -45 61 -45 23 0 77 49 77 70
0 20 -69 108 -85 109 -6 1 -31 -19 -55 -44z"/>
<path d="M2417 3882 l-47 -7 184 -269 c102 -148 190 -274 196 -280 7 -7 10 76
10 266 0 173 -4 279 -10 283 -15 9 -277 14 -333 7z"/>
<path d="M2227 3845 c-76 -20 -247 -82 -247 -90 0 -1 86 -128 190 -280 l190
-278 0 337 0 336 -22 -1 c-13 0 -63 -11 -111 -24z"/>
<path d="M2870 3844 c0 -7 271 -404 276 -404 2 0 4 70 4 156 l0 155 -57 25
c-57 26 -198 74 -214 74 -5 0 -9 -3 -9 -6z"/>
<path d="M1885 3703 c-83 -50 -191 -129 -214 -157 -11 -13 9 -48 141 -240
l153 -225 3 170 c1 94 1 244 0 335 l-3 165 -80 -48z"/>
<path d="M1525 3392 c-27 -35 -67 -90 -87 -122 l-37 -57 87 -128 87 -127 3
127 c1 69 1 181 0 248 l-3 122 -50 -63z"/>
<path d="M3538 3160 l-3 -295 -164 240 c-90 132 -177 258 -193 279 l-28 40 0
-339 c0 -293 -2 -337 -14 -325 -8 8 -96 134 -195 279 l-181 264 0 -342 0 -343
188 -274 187 -273 5 336 5 336 26 -34 c14 -19 101 -146 195 -282 l169 -248 5
339 5 339 165 -241 165 -241 8 60 c19 137 -7 374 -59 532 -51 155 -156 346
-247 448 l-36 40 -3 -295z"/>
<path d="M2370 2835 l0 -340 184 -268 c101 -147 186 -270 190 -274 3 -3 6 146
6 333 l0 340 -181 264 c-100 146 -185 269 -190 275 -5 5 -9 -129 -9 -330z"/>
<path d="M1980 2714 l0 -341 188 -274 187 -274 3 338 2 338 -181 267 c-100
147 -186 271 -191 277 -4 5 -8 -144 -8 -331z"/>
<path d="M1578 2603 l-3 -340 -165 241 -165 241 -7 -50 c-17 -133 -3 -315 37
-470 45 -173 136 -353 250 -497 l50 -63 5 295 5 295 190 -277 190 -277 3 339
2 339 -186 273 c-103 150 -191 277 -195 282 -5 6 -10 -143 -11 -331z"/>
<path d="M3540 1916 c0 -158 4 -245 10 -241 14 9 92 111 133 176 l36 57 -81
118 c-44 66 -85 123 -89 129 -5 5 -9 -97 -9 -239z"/>
<path d="M3150 1706 l0 -337 33 17 c109 56 282 187 274 208 -4 10 -293 435
-303 445 -2 2 -4 -147 -4 -333z"/>
<path d="M2760 1587 c0 -314 1 -337 18 -337 50 0 336 91 359 114 2 2 -70 111
-160 242 -90 132 -175 257 -190 279 l-27 40 0 -338z"/>
<path d="M2362 1525 l3 -280 97 -9 c56 -5 139 -5 194 0 l95 9 -181 265 c-100
146 -188 272 -196 280 -12 13 -14 -23 -12 -265z"/>
<path d="M1970 1524 l0 -155 54 -24 c60 -26 154 -59 203 -69 31 -7 28 -1 -108
198 -77 113 -142 206 -145 206 -2 0 -4 -70 -4 -156z"/>
</g>
</svg>
