<?xml version="1.0" standalone="no"?>
<!DOCTYPE svg PUBLIC "-//W3C//DTD SVG 20010904//EN"
 "http://www.w3.org/TR/2001/REC-SVG-20010904/DTD/svg10.dtd">
<svg version="1.0" xmlns="http://www.w3.org/2000/svg"
 width="1200.000000pt" height="1612.000000pt" viewBox="0 0 1200.000000 1612.000000"
 preserveAspectRatio="xMidYMid meet">

<g transform="translate(0.000000,1612.000000) scale(0.100000,-0.100000)"
fill="#000000" stroke="none">
<path d="M5485 16114 c-946 -31 -1475 -69 -2240 -160 -1011 -119 -1929 -287
-2985 -545 -135 -33 -248 -63 -252 -67 -3 -4 88 -680 202 -1502 l209 -1495 53
-49 c63 -59 306 -267 364 -313 l41 -33 -19 103 c-136 737 -481 2998 -460 3019
24 24 925 217 1503 323 2096 383 3959 501 5804 370 327 -24 781 -70 1030 -105
39 -6 120 -17 180 -25 408 -57 935 -155 1390 -259 433 -100 1079 -281 1096
-308 5 -7 7 -33 4 -58 -2 -25 -7 -121 -10 -215 -3 -93 -13 -282 -21 -420 -129
-2196 -489 -4273 -1084 -6255 -49 -162 -87 -297 -84 -300 11 -11 340 -4 382 9
49 14 52 20 147 261 397 1012 753 2892 1079 5695 91 776 169 1546 159 1555
-23 20 -812 205 -1279 300 -1258 256 -2401 396 -3759 460 -210 10 -1261 20
-1450 14z"/>
<path d="M5730 15769 c-1435 -34 -3006 -229 -4640 -575 -177 -37 -654 -145
-657 -148 -3 -3 139 -978 212 -1451 61 -401 190 -1183 252 -1532 l27 -152 154
-118 c663 -508 1470 -1014 2432 -1526 300 -159 400 -209 400 -200 0 5 -11 47
-24 95 -38 135 -26 133 134 -25 179 -177 313 -258 507 -308 69 -17 83 -25 142
-82 111 -106 151 -132 306 -202 83 -37 159 -72 170 -77 35 -18 4 7 -75 59
-300 201 -636 545 -800 821 -115 195 -128 373 -38 531 78 135 289 295 473 356
139 47 367 59 525 29 108 -20 227 -64 288 -106 83 -56 188 -182 238 -283 58
-118 74 -187 74 -313 0 -131 -18 -218 -85 -416 -29 -88 -52 -163 -50 -167 3
-3 25 -12 50 -19 65 -18 237 -7 357 23 77 19 100 22 108 12 17 -20 40 -160 40
-238 0 -74 -14 -153 -30 -172 -13 -16 -278 13 -575 61 -68 11 -35 -3 80 -36
120 -33 282 -65 414 -79 45 -5 87 -13 91 -18 11 -10 -22 -174 -55 -274 -14
-42 -39 -98 -56 -124 -16 -26 -29 -48 -27 -50 10 -8 48 -25 56 -25 13 0 66
147 96 268 36 144 49 242 48 382 0 132 -10 210 -44 326 l-20 72 -112 -40
c-109 -39 -229 -67 -294 -68 -44 0 -50 21 -22 79 122 248 133 538 31 758 -108
231 -338 428 -606 520 -118 40 -176 41 -293 3 -81 -26 -112 -32 -158 -28 -50
4 -61 9 -90 41 -34 37 -50 90 -40 131 10 41 66 74 208 125 189 68 276 123 300
192 13 39 38 27 38 -19 0 -83 142 -306 272 -428 91 -85 169 -133 283 -174 420
-153 702 -366 926 -699 265 -394 409 -918 449 -1640 5 -96 13 -178 17 -182 10
-9 306 -116 567 -205 l188 -64 37 29 c51 41 196 193 265 279 l58 72 77 -6
c176 -15 363 43 549 168 73 49 102 55 102 21 -1 -37 -40 -191 -70 -278 -18
-49 -74 -182 -124 -295 -51 -113 -95 -212 -99 -221 -4 -14 25 -25 181 -68 103
-28 239 -63 302 -79 l115 -29 13 91 c7 50 28 155 47 234 19 79 35 145 35 147
0 2 -15 1 -32 -2 -74 -11 -260 31 -272 63 -3 7 21 68 54 136 123 259 218 534
265 763 185 903 -238 1475 -1290 1745 -129 33 -150 41 -153 59 -3 20 1 21 116
21 701 0 1295 -298 1636 -823 197 -302 296 -701 267 -1076 -16 -204 -43 -333
-116 -561 -111 -346 -235 -829 -222 -863 6 -16 103 -36 352 -72 88 -13 163
-20 167 -16 9 8 87 259 173 556 503 1739 835 3612 974 5500 33 444 61 943 61
1090 l0 73 -82 25 c-531 165 -1341 354 -1953 456 -1163 195 -2312 271 -3595
240z m-97 -1615 c71 -10 69 -29 -7 -99 -63 -58 -116 -126 -116 -149 0 -7 42
-11 133 -11 98 0 147 -5 192 -19 179 -54 290 -169 354 -366 18 -54 19 -66 7
-78 -11 -12 -23 -9 -75 18 -155 78 -321 130 -413 130 -62 0 -151 -25 -200 -56
-40 -25 -43 -26 -68 -11 -178 112 -323 135 -486 79 -74 -26 -200 -101 -281
-168 -18 -14 -39 -24 -47 -21 -23 9 -67 162 -73 252 -6 97 11 173 59 252 57
95 224 234 263 219 12 -4 15 -29 16 -123 0 -65 4 -127 9 -138 5 -11 9 -15 9
-9 1 18 130 152 177 185 120 82 238 118 395 118 58 1 127 -2 152 -5z m4140
-290 c3 -4 -7 -33 -24 -65 -59 -119 -156 -257 -282 -404 -42 -48 -74 -93 -70
-98 7 -12 246 -2 342 13 52 9 67 8 78 -3 12 -12 8 -22 -28 -68 -101 -128 -260
-251 -440 -340 l-87 -42 -58 52 c-138 123 -320 221 -496 265 -148 38 -271 49
-518 45 -204 -4 -225 -2 -228 13 -5 27 63 93 136 131 113 60 213 84 677 167
252 45 441 91 580 140 105 38 259 114 330 164 48 34 75 43 88 30z m-4500 -334
c205 -63 362 -272 408 -542 6 -38 9 -125 7 -195 -4 -122 -7 -137 -66 -333
-146 -486 -176 -732 -126 -1021 9 -54 -15 -57 -74 -9 -92 72 -163 218 -204
418 l-13 63 -60 -46 c-74 -55 -164 -100 -261 -130 -40 -12 -96 -37 -123 -54
-49 -32 -122 -104 -152 -150 -20 -32 -42 -23 -69 28 -84 166 -59 351 74 536
41 57 43 65 19 65 -25 0 -126 53 -172 89 -21 17 -51 56 -67 86 -27 53 -28 57
-11 69 9 8 39 16 66 20 215 28 390 125 444 245 27 59 28 171 3 256 -23 77 -93
217 -157 312 -27 41 -49 82 -47 91 5 25 129 125 201 161 35 18 86 38 113 46
75 20 191 18 267 -5z m-604 -305 c41 -40 22 -56 -103 -84 -112 -26 -134 -23
-122 17 10 30 66 81 101 92 45 14 96 4 124 -25z m3801 -45 c642 -68 1033 -534
1154 -1375 18 -119 35 -335 29 -347 -13 -25 -38 5 -93 110 -369 699 -888 1020
-1460 906 -476 -96 -934 -487 -1226 -1049 -62 -119 -141 -302 -164 -381 -9
-28 -42 -75 -107 -148 -52 -58 -98 -106 -102 -106 -4 0 -52 38 -108 84 l-100
85 -23 83 c-29 103 -38 316 -21 438 37 249 177 545 376 795 81 102 265 285
380 378 459 371 1022 573 1465 527z m-3683 -51 c12 -12 -14 -110 -35 -131 -16
-16 -182 69 -182 93 0 27 194 61 217 38z m63 -139 c23 -14 21 -209 -4 -279
-33 -96 -116 -167 -231 -197 -60 -16 -193 -18 -232 -3 -64 24 -113 99 -113
175 0 92 52 138 176 155 132 18 307 84 354 134 26 28 29 29 50 15z m-504 -530
c8 -8 7 -27 -2 -62 -16 -59 -7 -109 26 -151 24 -31 109 -72 179 -89 28 -6 53
-18 56 -26 3 -9 -7 -34 -23 -56 -74 -103 -122 -237 -122 -342 0 -107 49 -245
131 -366 22 -31 39 -64 39 -72 0 -9 -27 -29 -62 -47 -213 -107 -368 -266 -419
-428 -29 -92 -29 -220 0 -326 39 -143 147 -339 281 -510 45 -57 53 -85 26 -85
-7 0 -52 27 -100 60 -341 232 -582 494 -734 795 -97 192 -135 345 -135 540 1
233 66 428 211 634 60 86 255 281 358 359 79 59 263 182 275 182 3 0 10 -5 15
-10z m4022 -50 c1 -9 -38 -48 -100 -97 -57 -45 -129 -108 -161 -141 l-59 -59
169 -6 c270 -8 409 -54 536 -178 76 -73 86 -105 32 -103 -17 1 -100 6 -186 12
-337 21 -612 -30 -813 -150 -41 -25 -130 -62 -212 -89 -253 -84 -482 -214
-641 -363 -125 -117 -137 -102 -61 75 177 411 442 720 780 907 136 75 359 152
543 186 152 29 168 29 173 6z m-98 -826 c140 -21 282 -54 434 -104 102 -33
126 -45 126 -60 0 -24 -19 -26 -330 -39 -265 -11 -425 -33 -547 -75 -80 -27
-214 -95 -255 -129 l-28 -23 125 -53 c178 -75 285 -142 377 -233 43 -43 78
-84 78 -90 -1 -33 -15 -38 -70 -23 -113 29 -310 56 -455 62 -242 9 -424 -26
-604 -116 -89 -45 -213 -140 -262 -200 -18 -23 -38 -41 -45 -41 -13 0 -190
177 -243 244 l-31 38 32 47 c127 186 314 389 463 501 298 224 630 328 1005
314 69 -2 172 -11 230 -20z m-238 -444 c312 -75 584 -186 785 -319 108 -72
253 -206 322 -299 289 -386 305 -940 48 -1651 -35 -95 -46 -116 -62 -116 -18
0 -21 9 -27 83 -8 96 -22 170 -50 267 -39 133 -32 131 -91 31 -199 -339 -499
-403 -954 -204 -69 30 -93 45 -93 59 0 13 10 20 38 24 183 30 272 55 389 111
415 198 509 693 238 1259 -121 253 -318 494 -520 638 -58 41 -193 115 -238
130 -6 2 -8 11 -4 20 4 12 14 16 29 13 13 -3 98 -24 190 -46z m65 -386 c210
-36 305 -114 421 -348 111 -222 165 -433 165 -646 1 -160 -16 -237 -75 -353
-58 -112 -192 -240 -228 -217 -10 6 -16 45 -22 136 -12 195 -39 335 -90 472
l-20 55 -32 -59 c-94 -177 -194 -262 -344 -295 -75 -17 -79 -10 -53 99 28 118
28 261 1 366 -21 81 -69 200 -78 191 -3 -3 -15 -45 -28 -94 -39 -154 -99 -249
-168 -267 -36 -9 -92 22 -139 78 -53 64 -150 111 -282 139 -55 12 -105 23
-111 25 -13 3 -187 327 -192 356 -5 27 54 101 117 148 111 83 252 142 441 183
251 56 508 67 717 31z m-864 -1395 c34 -44 96 -100 156 -139 41 -27 18 -44
-111 -78 -97 -26 -124 -30 -133 -20 -7 9 -9 65 -7 160 3 127 6 147 20 151 9 2
22 -3 27 -11 6 -8 27 -37 48 -63z"/>
<path d="M5312 14106 c-127 -31 -258 -120 -348 -237 -77 -101 -102 -78 -113
105 l-6 109 -65 -49 c-81 -61 -150 -152 -174 -228 -15 -46 -17 -78 -13 -150 5
-80 27 -177 46 -198 4 -4 39 17 79 47 236 178 481 202 696 68 l47 -29 57 28
c79 39 166 52 260 37 88 -13 218 -57 316 -106 l69 -35 -7 29 c-13 49 -65 150
-104 200 -48 60 -103 98 -189 131 -62 24 -82 26 -228 27 l-160 2 -3 26 c-5 40
26 94 96 169 l64 68 -133 -1 c-74 0 -158 -6 -187 -13z"/>
<path d="M9655 13768 c-197 -124 -456 -202 -970 -293 -402 -71 -553 -115 -638
-188 l-38 -32 253 0 c271 0 342 -9 513 -60 150 -46 325 -144 442 -250 l53 -47
87 47 c129 70 229 140 307 214 62 60 124 133 100 119 -5 -4 -72 -11 -149 -17
-163 -13 -278 -5 -283 20 -2 9 24 46 58 83 75 83 168 200 220 276 39 57 102
160 97 160 -1 0 -24 -15 -52 -32z"/>
<path d="M5005 13496 c-66 -21 -146 -66 -212 -118 -35 -27 -63 -51 -63 -53 0
-2 28 -47 61 -101 116 -183 159 -304 159 -440 0 -127 -54 -219 -169 -288 -66
-41 -207 -90 -303 -106 l-67 -12 13 -26 c34 -65 151 -142 249 -166 37 -9 34
-27 -12 -89 -90 -121 -131 -226 -131 -337 0 -58 23 -154 45 -191 4 -5 24 12
45 38 61 78 153 135 264 168 84 24 169 68 252 131 39 30 78 54 87 54 11 0 18
-19 27 -72 28 -166 80 -303 147 -385 50 -61 62 -62 51 -5 -14 73 -11 307 7
427 21 144 62 313 137 565 61 205 61 205 61 335 0 100 -5 151 -22 220 -54 224
-190 391 -360 445 -73 23 -203 26 -266 6z m50 -150 c27 -18 33 -47 11 -65 -27
-22 -118 -33 -170 -19 -122 32 -61 114 77 104 32 -2 69 -11 82 -20z"/>
<path d="M4885 13320 c-19 -7 -18 -9 8 -19 16 -6 43 -11 62 -11 19 0 46 5 62
11 26 10 27 12 8 19 -11 5 -42 9 -70 9 -27 0 -59 -4 -70 -9z"/>
<path d="M4534 13201 c-36 -22 -57 -48 -32 -38 9 3 43 11 77 18 61 12 75 22
45 33 -28 11 -58 6 -90 -13z"/>
<path d="M8183 13140 c-478 -55 -1000 -329 -1384 -726 -271 -282 -438 -576
-505 -889 -20 -96 -23 -312 -5 -400 26 -129 36 -146 117 -214 42 -35 82 -64
89 -65 7 0 46 37 88 83 66 74 80 96 108 175 184 517 552 994 949 1228 546 323
1107 256 1550 -184 139 -138 248 -285 361 -486 l61 -107 -7 80 c-32 396 -142
759 -305 1007 -59 90 -180 221 -261 284 -120 92 -293 169 -450 199 -100 19
-305 27 -406 15z"/>
<path d="M4688 13093 c-38 -6 -35 -20 7 -40 39 -19 40 -18 49 20 7 29 6 29
-56 20z"/>
<path d="M4770 12909 c-56 -36 -197 -85 -288 -100 -37 -6 -77 -13 -89 -15 -34
-6 -80 -51 -86 -83 -15 -76 48 -165 126 -176 57 -9 176 10 238 36 55 24 111
80 135 136 18 41 33 234 18 232 -5 0 -29 -14 -54 -30z"/>
<path d="M4186 12334 c-493 -338 -716 -740 -655 -1180 43 -309 254 -666 549
-931 89 -79 271 -223 284 -223 3 0 -24 43 -60 95 -77 115 -145 247 -180 353
-34 103 -44 260 -21 349 47 180 171 324 395 456 84 50 89 54 75 73 -32 43 -82
134 -106 196 -71 178 -50 372 59 536 20 30 34 55 32 57 -2 1 -28 10 -58 18
-70 20 -140 65 -171 108 -20 28 -24 46 -24 101 0 38 -2 68 -5 68 -3 -1 -54
-35 -114 -76z"/>
<path d="M8220 12373 c-79 -14 -270 -68 -351 -98 -405 -155 -696 -432 -910
-870 -38 -77 -69 -143 -69 -147 0 -5 32 19 72 52 161 135 371 249 594 323 78
26 174 65 218 91 96 55 218 101 346 129 84 20 125 22 367 22 l272 0 -27 28
c-107 112 -297 168 -577 171 -192 1 -192 3 -63 130 51 51 116 111 143 134 51
42 49 46 -15 35z"/>
<path d="M7795 11558 c-187 -21 -417 -96 -571 -186 -123 -71 -235 -160 -355
-281 -105 -106 -278 -321 -279 -346 0 -6 49 -62 108 -125 l109 -115 78 73
c141 132 294 210 496 253 188 40 509 29 744 -26 33 -7 61 -12 63 -10 7 7 -91
97 -147 134 -68 47 -227 127 -338 171 -57 22 -83 38 -83 49 0 22 98 92 195
140 164 82 336 115 680 131 121 6 220 12 222 14 7 6 -216 67 -332 91 -214 43
-406 54 -590 33z"/>
<path d="M8070 11058 c262 -184 506 -520 619 -854 60 -178 74 -258 75 -419 0
-201 -37 -328 -140 -471 -106 -150 -321 -273 -546 -314 -98 -18 -98 -19 -8
-56 258 -106 488 -113 640 -21 92 56 200 187 259 315 14 28 31 52 38 52 28 0
94 -198 117 -350 15 -101 16 -99 70 69 166 515 180 942 42 1269 -129 307 -428
560 -848 716 -93 34 -360 116 -381 116 -6 0 23 -23 63 -52z"/>
<path d="M7650 10730 c-329 -34 -592 -126 -726 -254 -35 -34 -64 -68 -64 -76
1 -8 38 -85 84 -170 71 -133 87 -156 112 -162 16 -4 67 -17 113 -28 124 -30
181 -60 265 -139 41 -39 84 -71 94 -71 60 0 117 102 159 282 22 96 31 118 45
118 24 0 69 -82 109 -199 32 -91 33 -104 33 -241 1 -105 -4 -161 -16 -203
l-16 -58 31 7 c130 28 224 114 317 287 56 103 69 102 110 -5 54 -140 88 -324
103 -552 l2 -39 54 49 c71 64 125 148 158 248 24 72 27 96 27 226 0 167 -14
252 -74 431 -89 270 -218 456 -346 502 -129 46 -384 67 -574 47z"/>
<path d="M7180 9314 c0 -22 -3 -68 -6 -101 l-7 -61 84 22 c46 12 83 25 81 29
-1 3 -36 39 -77 79 l-75 74 0 -42z"/>
<path d="M5134 11710 c-39 -38 -139 -90 -253 -130 -155 -55 -195 -78 -199
-114 -4 -36 15 -83 42 -101 33 -24 116 -18 198 12 57 22 89 27 148 27 183 -2
457 -145 628 -328 77 -83 113 -136 162 -238 63 -132 75 -191 74 -358 -1 -158
-14 -227 -74 -376 -17 -42 -28 -79 -25 -82 11 -12 153 21 271 63 96 34 131 42
141 34 17 -15 48 -117 69 -227 13 -68 15 -123 11 -252 -7 -212 -38 -356 -124
-584 -18 -49 -32 -90 -30 -92 6 -6 146 94 227 161 41 34 112 101 158 149 45
47 89 86 97 86 18 0 86 -114 130 -218 71 -168 117 -342 204 -772 33 -162 67
-315 74 -340 l14 -45 8 100 c12 150 -1 815 -20 995 -50 491 -144 859 -296
1162 -216 430 -557 729 -1022 897 -139 50 -201 88 -305 186 -102 96 -186 206
-242 317 -23 45 -42 83 -44 85 -1 1 -11 -6 -22 -17z"/>
<path d="M4907 11239 c-272 -29 -554 -203 -653 -404 -86 -173 -48 -342 133
-595 348 -487 854 -851 1551 -1115 l113 -43 28 38 c37 51 66 131 95 260 l23
105 -151 21 c-229 33 -421 85 -589 162 -56 25 -77 40 -75 51 5 20 0 20 183
-17 163 -33 311 -56 503 -76 l124 -13 9 24 c18 47 3 323 -17 323 -3 0 -62 -12
-132 -26 -154 -32 -278 -30 -355 4 -26 11 -47 26 -47 33 0 6 25 84 55 173 69
204 87 286 88 411 2 154 -36 272 -127 398 -131 182 -270 257 -531 287 -100 11
-116 11 -228 -1z"/>
<path d="M8230 11166 c532 -159 876 -385 1071 -700 268 -435 227 -1035 -123
-1801 -54 -117 -58 -130 -43 -141 25 -19 150 -37 217 -32 74 5 82 -3 62 -68
-28 -90 -62 -248 -79 -359 -20 -131 -23 -385 -6 -500 24 -159 85 -356 148
-479 l20 -39 7 154 c17 371 68 698 170 1094 40 154 74 269 180 610 58 188 80
340 79 565 0 231 -20 365 -83 553 -131 390 -382 700 -741 912 -252 149 -578
245 -881 260 l-113 6 115 -35z"/>
<path d="M3926 10152 c13 -53 63 -181 100 -254 171 -341 479 -560 913 -648
123 -25 347 -50 450 -50 l74 0 -184 93 c-278 140 -451 255 -613 407 -77 73
-85 77 -166 98 -174 46 -347 150 -502 304 -64 63 -77 72 -72 50z"/>
<path d="M940 9795 c0 -3 21 -88 46 -188 844 -3369 2119 -5999 4120 -8498 259
-324 770 -928 914 -1083 15 -15 230 146 442 332 149 130 394 375 557 558 983
1099 2013 2827 3032 5089 l158 350 -207 8 c-114 4 -231 6 -260 5 l-53 -3 -108
-265 c-341 -841 -723 -1633 -1129 -2345 -640 -1120 -1351 -2063 -2044 -2712
-181 -169 -406 -362 -423 -363 -24 0 -415 433 -716 795 -1198 1437 -2143 3041
-2874 4875 -359 902 -674 1876 -934 2890 -33 128 -64 236 -68 240 -10 9 -424
304 -440 314 -7 4 -13 4 -13 1z"/>
<path d="M1487 9298 c464 -1773 965 -3141 1643 -4483 668 -1324 1460 -2505
2414 -3600 143 -164 422 -471 435 -480 5 -2 55 34 112 81 311 256 665 617
1000 1019 821 988 1602 2304 2244 3785 89 205 285 681 299 727 7 23 2 24 -299
38 -1056 49 -2157 225 -3062 488 l-153 44 0 -41 c0 -45 26 -106 50 -116 84
-37 124 -64 177 -117 68 -68 119 -148 128 -203 7 -41 -8 -90 -27 -90 -7 0 -42
25 -78 56 -168 143 -344 205 -525 183 -83 -10 -194 -60 -253 -113 -81 -74
-132 -186 -132 -292 0 -71 -17 -75 -73 -15 -56 60 -77 99 -84 160 -9 79 27
144 147 262 55 55 98 99 96 99 -1 0 -38 -9 -81 -20 -43 -11 -108 -20 -144 -20
-143 0 -263 -38 -333 -107 -22 -21 -43 -33 -51 -30 -18 7 -40 100 -41 169 0
36 6 53 24 73 32 34 65 43 215 55 145 11 219 28 313 71 70 31 172 101 214 146
l27 28 -162 58 c-793 287 -1603 687 -2417 1195 -394 246 -805 523 -1361 919
-158 111 -289 203 -292 203 -3 0 11 -60 30 -132z m3788 -3876 l290 -7 0 -35 0
-35 -83 -9 c-70 -7 -82 -11 -77 -25 4 -9 81 -216 172 -461 91 -245 169 -449
173 -453 4 -4 88 203 187 460 99 257 179 469 178 471 -1 1 -38 6 -81 10 l-79
7 -3 32 c-3 27 1 33 20 38 13 3 259 4 548 3 l525 -3 0 -160 0 -160 -45 0 -44
0 -18 104 c-9 57 -19 110 -22 118 -5 11 -46 13 -213 11 l-208 -3 -3 -257 -2
-258 129 0 129 0 6 38 c3 20 8 58 12 85 6 46 7 47 40 47 l34 0 0 -210 0 -210
-34 0 c-33 0 -34 1 -40 48 -4 26 -9 64 -12 85 l-6 37 -129 0 -129 0 0 -254 0
-254 68 -7 c37 -3 76 -7 87 -8 16 -2 20 -9 20 -37 l0 -35 -260 0 -260 0 -3 33
c-4 38 -3 38 101 47 l77 7 0 554 0 555 -52 -3 -52 -3 -237 -605 -237 -605 -34
0 -33 0 -217 585 c-119 322 -222 595 -227 608 -7 14 -19 22 -36 22 l-25 0 0
-121 0 -120 -47 3 -48 3 -18 105 c-10 58 -21 108 -25 112 -15 15 -157 38 -239
38 -237 0 -410 -118 -484 -331 -19 -53 -23 -87 -23 -194 -1 -149 10 -204 64
-321 43 -94 141 -205 217 -246 89 -49 155 -61 283 -55 63 3 123 8 133 12 15 6
17 26 17 200 l0 193 -67 7 c-38 3 -77 7 -88 8 -16 2 -20 9 -20 37 l0 35 250 0
250 0 3 -33 c4 -37 2 -38 -90 -47 l-68 -7 -2 -226 -3 -227 -85 -18 c-122 -27
-409 -29 -500 -4 -113 30 -207 84 -291 167 -116 114 -169 222 -189 385 -33
268 91 524 315 650 148 83 251 106 435 99 74 -3 266 -9 425 -12z m2704 -2 c68
-11 127 -23 132 -26 5 -3 9 -72 9 -155 l0 -149 -49 0 -49 0 -17 98 c-9 53 -19
105 -21 114 -12 41 -262 63 -379 33 -133 -35 -254 -133 -310 -250 -40 -84 -59
-201 -51 -315 11 -183 66 -313 179 -424 116 -115 227 -155 395 -143 117 9 161
22 167 50 2 12 12 65 22 117 l18 95 45 0 45 0 3 -152 c2 -138 1 -152 -15 -157
-74 -23 -190 -39 -313 -43 -125 -5 -157 -2 -234 16 -309 74 -500 321 -499 646
0 196 59 341 192 470 173 169 414 226 730 175z m-2559 -1810 l57 -155 44 0 44
0 0 140 c0 138 0 140 -22 143 -13 2 -23 8 -23 14 0 6 36 9 101 6 96 -3 102 -4
125 -31 34 -40 31 -73 -11 -112 -26 -25 -31 -36 -22 -43 7 -6 26 -36 42 -66
19 -35 37 -56 48 -56 9 0 17 -4 17 -10 0 -5 -18 -10 -40 -10 -39 0 -40 1 -74
69 -33 65 -49 81 -82 81 -11 0 -14 -16 -14 -65 0 -63 1 -65 25 -65 14 0 25 -4
25 -10 0 -6 -52 -10 -135 -10 -83 0 -135 4 -135 10 0 6 9 10 21 10 13 0 19 5
15 13 -2 6 -10 29 -17 50 l-12 37 -57 0 -57 0 -17 -43 c-20 -54 -20 -57 4 -57
11 0 20 -4 20 -10 0 -6 -27 -10 -61 -10 -37 0 -58 4 -54 10 3 6 14 10 24 10
13 0 33 39 81 160 36 88 69 159 74 157 5 -2 34 -72 66 -157z m669 145 c6 -3
11 -22 11 -41 0 -44 -28 -47 -36 -4 -6 28 -9 30 -56 30 -27 0 -62 -7 -77 -15
-58 -29 -77 -123 -42 -202 23 -50 62 -73 124 -73 43 0 45 1 51 36 9 47 31 39
31 -11 0 -36 -3 -39 -35 -48 -48 -12 -125 -2 -165 23 -19 11 -43 40 -54 64
-64 132 31 264 181 252 31 -2 61 -7 67 -11z m785 -5 c158 -78 99 -330 -77
-330 -54 0 -118 40 -144 90 -46 87 -17 193 67 237 53 28 101 29 154 3z m265
14 c28 -6 31 -10 31 -45 0 -47 -25 -54 -33 -9 -6 27 -10 30 -45 30 -26 0 -45
-7 -57 -20 -28 -31 -7 -64 63 -99 67 -34 80 -47 87 -87 14 -71 -64 -124 -160
-110 l-46 7 3 42 c3 49 19 52 32 8 8 -28 13 -31 49 -31 104 0 101 90 -5 134
-49 21 -78 53 -78 89 0 72 65 109 159 91z m-1998 -33 c26 -31 24 -67 -5 -96
l-23 -23 28 -21 c53 -39 51 -108 -4 -141 -26 -16 -50 -20 -124 -20 -56 0 -93
4 -93 10 0 6 9 10 20 10 19 0 20 7 20 145 0 138 -1 145 -20 145 -11 0 -20 5
-20 11 0 7 32 10 101 7 92 -3 103 -5 120 -27z m1219 -11 c0 -48 -24 -56 -33
-10 -6 29 -8 30 -62 30 l-55 0 0 -65 0 -65 35 0 c31 0 35 3 35 25 0 14 5 25
10 25 6 0 10 -27 10 -60 0 -33 -4 -60 -10 -60 -5 0 -10 11 -10 25 0 22 -4 25
-35 25 l-35 0 0 -70 0 -70 59 0 c57 0 59 1 65 30 8 44 26 37 26 -10 l0 -40
-126 0 c-81 0 -123 4 -119 10 3 6 15 10 26 10 18 0 19 8 19 145 0 137 -1 145
-19 145 -11 0 -23 5 -26 10 -4 6 38 10 119 10 l126 0 0 -40z m160 30 c0 -5
-11 -10 -25 -10 l-25 0 0 -145 0 -145 59 0 c57 0 59 1 65 30 8 44 26 37 26
-10 l0 -40 -120 0 c-73 0 -120 4 -120 10 0 6 11 10 25 10 l25 0 0 145 0 145
-25 0 c-14 0 -25 5 -25 10 0 6 30 10 70 10 40 0 70 -4 70 -10z"/>
<path d="M5610 3675 l0 -65 38 0 c96 0 95 108 0 124 l-38 7 0 -66z"/>
<path d="M5316 3637 c-23 -62 -21 -67 24 -67 22 0 40 4 40 8 0 19 -32 102 -40
102 -4 0 -15 -19 -24 -43z"/>
<path d="M6731 3724 c-50 -36 -65 -127 -32 -200 24 -53 55 -74 109 -74 32 0
49 6 67 24 61 61 51 203 -17 250 -29 21 -97 20 -127 0z"/>
<path d="M5010 3681 l0 -61 33 0 c40 0 67 25 67 62 0 32 -18 47 -64 55 l-36 6
0 -62z"/>
<path d="M5010 3526 c0 -74 1 -76 24 -76 64 0 105 42 92 94 -7 29 -26 41 -79
51 l-37 7 0 -76z"/>
<path d="M6545 9210 c-55 -55 -137 -128 -182 -162 l-84 -63 28 -12 c27 -12
180 -11 289 3 53 6 67 -7 95 -94 l22 -69 72 -26 c39 -15 74 -27 78 -27 8 0
-37 162 -75 269 -33 94 -124 281 -136 281 -4 0 -52 -45 -107 -100z m136 -5
c34 -61 57 -161 41 -177 -18 -18 -226 21 -230 43 -4 20 136 191 152 186 6 -2
23 -25 37 -52z"/>
<path d="M6587 9148 c-27 -33 -47 -61 -45 -62 7 -7 141 -27 145 -22 7 7 -24
108 -39 127 -12 15 -19 10 -61 -43z"/>
<path d="M2927 9215 c-172 -28 -280 -51 -299 -62 -44 -26 -69 -63 -75 -113
l-6 -44 44 36 c100 81 215 118 369 118 103 0 168 -13 177 -36 7 -19 -6 -38
-137 -189 -140 -161 -161 -208 -128 -280 15 -34 24 -32 38 11 19 58 126 209
182 258 82 72 250 149 291 133 9 -3 19 -32 27 -74 25 -133 79 -262 129 -307
21 -19 21 -19 17 10 -14 87 -15 120 -6 186 13 89 29 146 44 151 17 7 219 -77
269 -111 71 -50 91 -110 62 -191 l-14 -41 57 29 c31 16 76 34 99 41 48 15 23
26 278 -136 249 -158 333 -195 354 -155 26 48 7 210 -35 292 -44 87 -149 149
-255 149 -41 0 -289 57 -414 95 -132 41 -299 110 -395 164 -222 125 -278 131
-673 66z"/>
<path d="M4593 9121 c6 -89 24 -150 55 -184 9 -11 43 -37 74 -58 79 -54 120
-136 126 -255 3 -47 -1 -104 -7 -130 -7 -26 -9 -49 -6 -52 10 -10 174 18 258
45 70 22 220 90 266 122 11 7 0 24 -49 82 -79 91 -183 232 -240 324 -24 39
-49 73 -54 77 -5 3 -37 14 -70 22 -34 9 -128 34 -210 55 l-149 40 6 -88z"/>
<path d="M5200 9071 c0 -3 38 -61 84 -130 246 -365 489 -588 802 -738 l91 -43
129 0 c71 0 179 3 241 7 l112 6 22 91 c27 111 37 332 20 431 -12 69 -58 225
-69 237 -4 4 -65 3 -137 -1 -128 -8 -131 -8 -184 -44 -61 -42 -121 -61 -239
-77 -116 -16 -121 -11 -75 91 20 44 34 81 32 83 -2 1 -56 22 -119 46 l-115 43
-297 1 c-164 0 -298 -1 -298 -3z"/>
<path d="M8850 8869 c-145 -95 -301 -142 -475 -142 l-110 0 -55 -69 c-72 -91
-277 -290 -362 -352 -37 -27 -65 -53 -62 -58 14 -22 162 -1 247 35 40 16 50
18 57 7 5 -8 3 -22 -5 -34 -8 -12 -22 -50 -32 -86 -31 -115 -20 -501 16 -568
4 -7 15 24 25 70 41 192 132 415 232 570 47 74 168 206 227 249 64 46 66 40
60 -149 -3 -92 -1 -185 4 -207 l9 -39 23 64 c13 36 61 147 107 248 46 100 99
226 118 280 36 105 68 233 58 231 -4 0 -41 -23 -82 -50z"/>
<path d="M8505 8399 c-60 -57 -142 -156 -134 -163 8 -6 191 -57 194 -54 4 5
14 278 10 278 -3 0 -34 -28 -70 -61z"/>
<path d="M6185 8018 c-2 -7 -17 -60 -34 -118 -138 -477 -301 -775 -516 -947
-140 -112 -337 -182 -515 -183 -96 -1 -150 -13 -172 -41 -21 -25 -22 -49 -7
-119 l11 -51 34 31 c67 58 163 91 270 91 87 0 166 13 273 45 66 20 86 23 92
13 12 -20 -1 -36 -123 -154 -164 -159 -189 -225 -128 -332 16 -28 33 -54 38
-57 5 -3 14 23 20 57 33 175 168 313 353 362 76 21 201 19 291 -4 111 -29 208
-82 327 -179 41 -33 41 -33 41 -10 0 70 -138 238 -230 279 -92 41 -95 43 -112
94 -13 39 -17 86 -18 210 l0 161 34 69 c42 87 127 206 218 304 38 42 94 112
123 156 47 72 142 249 165 311 l10 24 -221 0 c-167 0 -221 -3 -224 -12z"/>
<path d="M6205 7201 c-21 -41 -20 -42 28 -35 47 7 85 23 56 24 -9 0 -28 9 -42
20 l-26 21 -16 -30z"/>
</g>
</svg>
