<?xml version="1.0" standalone="no"?>
<!DOCTYPE svg PUBLIC "-//W3C//DTD SVG 20010904//EN"
 "http://www.w3.org/TR/2001/REC-SVG-20010904/DTD/svg10.dtd">
<svg version="1.0" xmlns="http://www.w3.org/2000/svg"
 width="1200.000000pt" height="1609.000000pt" viewBox="0 0 1200.000000 1609.000000"
 preserveAspectRatio="xMidYMid meet">

<g transform="translate(0.000000,1609.000000) scale(0.100000,-0.100000)"
fill="#000000" stroke="none">
<path d="M6035 16083 c-640 -32 -1214 -292 -1453 -658 -101 -155 -138 -293
-129 -484 10 -224 87 -385 271 -566 341 -336 901 -514 1546 -492 357 13 615
68 933 202 l37 15 0 255 0 255 -47 -24 c-158 -79 -392 -160 -563 -195 -167
-34 -294 -44 -470 -38 -464 17 -801 184 -901 445 -27 72 -37 229 -19 310 51
235 279 408 633 482 398 83 939 8 1275 -176 34 -19 65 -34 68 -34 2 0 3 115 2
256 l-3 256 -75 30 c-293 116 -729 180 -1105 161z"/>
<path d="M8351 15728 c-18 -47 -614 -1944 -615 -1956 -1 -9 109 -50 325 -121
l326 -107 118 372 c65 205 122 378 126 385 6 10 81 -10 316 -84 342 -108 398
-122 560 -137 272 -26 503 37 643 178 114 113 155 223 148 386 -4 78 -11 116
-30 164 -88 216 -278 386 -547 491 -108 41 -1338 451 -1355 451 -4 0 -10 -10
-15 -22z m902 -682 c164 -53 233 -91 307 -165 80 -80 99 -154 61 -238 -15 -33
-31 -48 -73 -69 -46 -24 -68 -29 -158 -32 -58 -2 -132 1 -165 7 -97 18 -465
134 -465 147 0 12 129 444 136 456 4 6 96 -21 357 -106z"/>
<path d="M3350 15599 c-551 -76 -953 -210 -1263 -422 -228 -156 -362 -350
-391 -567 -16 -116 41 -249 153 -360 130 -128 232 -165 491 -177 173 -7 326 7
532 48 277 55 432 58 535 8 69 -33 99 -105 73 -173 -40 -105 -256 -230 -504
-290 -175 -43 -496 -76 -743 -76 -46 0 -83 -3 -83 -6 0 -4 48 -101 107 -215
87 -170 111 -209 127 -209 12 0 82 7 156 15 623 69 1058 235 1353 515 94 89
157 170 202 260 150 299 84 553 -176 678 -215 104 -458 116 -1064 52 -284 -29
-302 -30 -342 -15 -65 25 -86 58 -81 127 7 92 73 160 235 238 199 97 588 170
906 170 37 0 67 1 67 3 0 2 -42 93 -93 203 -72 152 -98 199 -113 200 -10 1
-48 -2 -84 -7z"/>
<path d="M5672 13470 c-679 -32 -1182 -143 -1706 -375 -70 -31 -320 -152 -555
-269 -234 -117 -489 -238 -566 -270 -501 -206 -1006 -300 -1810 -336 -126 -6
-232 -14 -236 -18 -10 -11 -123 -302 -192 -497 -301 -844 -496 -1800 -562
-2757 l-7 -98 1362 0 1363 0 -7 -32 c-36 -176 -79 -437 -97 -588 -11 -102 -23
-191 -25 -197 -3 -10 -274 -13 -1313 -13 l-1309 0 -7 -97 c-7 -93 -1 -403 11
-605 l7 -98 1287 0 1288 0 6 -31 c3 -17 6 -71 6 -119 0 -108 24 -363 50 -534
11 -71 20 -133 20 -137 0 -5 -577 -9 -1281 -9 l-1282 0 7 -52 c16 -126 98
-503 156 -717 l11 -41 1318 0 1318 0 28 -67 c80 -192 222 -454 347 -640 37
-56 68 -105 68 -108 0 -3 -630 -5 -1400 -5 -770 0 -1400 -3 -1400 -6 0 -16
114 -272 201 -452 704 -1455 1874 -2657 3434 -3527 199 -111 598 -309 820
-408 399 -176 905 -367 975 -367 75 0 653 221 1070 410 150 68 492 239 650
325 1050 573 1932 1300 2620 2159 326 407 630 886 860 1351 83 168 230 495
230 510 0 3 -630 5 -1400 5 -770 0 -1400 2 -1400 4 0 3 33 56 73 118 133 204
237 395 327 601 l43 97 1317 0 1318 0 11 43 c55 206 136 576 156 720 l7 47
-1281 0 c-1213 0 -1281 1 -1281 18 0 9 7 58 15 107 25 160 46 372 53 538 l7
162 1291 3 1291 2 6 113 c4 61 7 241 7 400 l0 287 -1313 0 -1314 0 -12 118
c-16 158 -47 355 -82 537 -16 83 -29 156 -29 163 0 9 279 12 1361 12 l1360 0
-5 68 c-74 872 -168 1437 -347 2091 -132 482 -388 1201 -427 1201 -56 0 -458
22 -567 30 -625 50 -1072 149 -1491 329 -77 32 -341 160 -589 283 -460 229
-658 317 -889 394 -336 112 -717 183 -1141 213 -207 15 -635 21 -833 11z
m1088 -975 c294 -31 549 -57 566 -60 l30 -5 -12 -111 c-7 -61 -16 -114 -18
-117 -3 -3 -101 5 -217 17 -116 13 -212 21 -214 19 -2 -2 -24 -199 -49 -437
-25 -239 -47 -435 -48 -436 -5 -5 -317 31 -323 37 -3 3 15 191 40 419 25 228
45 423 45 435 0 19 -12 21 -217 43 -120 12 -219 23 -220 24 -1 2 23 210 27
235 0 1 17 0 38 -3 20 -3 278 -30 572 -60z m-957 -20 c87 -30 151 -78 179
-135 30 -60 33 -216 5 -268 -29 -52 -87 -112 -149 -153 l-58 -37 55 -42 c108
-83 219 -217 309 -371 l26 -46 -112 -7 c-62 -3 -149 -9 -194 -12 l-81 -6 -34
53 c-53 83 -137 177 -232 257 l-86 73 -85 -7 c-70 -5 -86 -10 -86 -23 0 -9 7
-98 16 -199 9 -101 14 -185 11 -188 -8 -9 -317 -37 -324 -30 -6 6 -106 1107
-101 1112 2 1 401 37 658 58 90 7 215 -6 283 -29z m2000 -189 c81 -24 150 -46
154 -49 4 -5 -180 -670 -284 -1019 -8 -29 -20 -48 -28 -48 -12 0 -182 45 -287
76 -10 3 -18 11 -18 17 0 21 303 1067 309 1067 3 0 72 -20 154 -44z m-3557
-64 c109 -30 163 -60 240 -136 188 -188 228 -465 99 -681 -158 -263 -632 -466
-925 -396 -212 51 -371 226 -417 460 -51 260 104 508 410 656 223 107 428 140
593 97z m4298 -228 l143 -65 143 -457 c78 -251 144 -458 145 -460 1 -2 85 123
185 278 100 154 186 280 191 280 5 0 69 -36 143 -80 l135 -80 -301 -473 c-165
-259 -303 -475 -307 -479 -7 -8 -216 132 -241 161 -8 9 -76 214 -150 454 -74
240 -137 437 -140 437 -3 0 -65 -133 -139 -295 -74 -162 -135 -295 -136 -295
-4 0 -280 122 -283 125 -7 6 451 1015 461 1015 5 0 73 -30 151 -66z m-5594
-396 c106 -33 204 -164 217 -290 11 -111 -57 -275 -162 -386 -32 -35 -106
-103 -162 -149 -57 -47 -103 -88 -103 -90 0 -3 46 -59 103 -127 56 -67 108
-128 114 -137 11 -13 -6 -31 -112 -120 -69 -57 -129 -105 -134 -107 -4 -1
-169 189 -365 424 -345 411 -357 427 -339 444 46 43 503 419 546 449 140 96
276 126 397 89z m7044 -673 c173 -37 313 -134 466 -326 119 -149 174 -248 226
-405 24 -75 44 -140 44 -145 0 -9 -195 -159 -207 -159 -4 0 -18 55 -31 123
-44 232 -104 359 -226 474 -93 88 -167 123 -263 123 -99 0 -164 -26 -242 -96
-104 -95 -140 -186 -120 -304 13 -73 94 -235 170 -338 l60 -82 75 51 c41 29
76 55 79 58 2 4 -19 42 -46 86 -27 44 -49 82 -49 86 0 9 160 122 165 117 4 -3
262 -402 288 -444 4 -7 -69 -68 -189 -159 -186 -140 -196 -146 -217 -132 -50
33 -316 289 -373 358 -328 400 -350 757 -61 996 137 114 287 153 451 118z
m-8206 -238 l83 -83 -53 -36 c-190 -127 -360 -338 -362 -452 -2 -79 52 -108
123 -65 19 11 82 67 140 123 269 260 394 326 532 281 76 -26 161 -112 183
-185 54 -182 -31 -416 -253 -689 -77 -96 -244 -251 -269 -251 -17 0 -232 132
-232 142 0 5 4 8 9 8 27 0 236 154 312 229 137 137 215 294 176 354 -23 36
-61 42 -111 18 -23 -12 -106 -82 -184 -156 -203 -193 -306 -255 -425 -255 -73
0 -127 22 -185 74 -169 153 -82 501 203 816 71 78 212 210 225 210 3 0 43 -37
88 -83z m4547 -348 c223 -19 428 -63 621 -134 54 -20 236 -103 404 -185 331
-161 417 -196 567 -235 184 -48 363 -71 737 -93 l120 -7 37 -91 c123 -304 223
-641 288 -971 118 -594 151 -1382 81 -1931 -185 -1440 -1046 -2593 -2455
-3286 -292 -144 -697 -302 -751 -293 -101 17 -602 227 -844 355 -1378 726
-2191 1881 -2345 3332 -44 412 -25 1039 46 1540 57 407 186 891 331 1240 l43
105 120 7 c387 24 544 43 725 89 160 42 251 79 600 250 330 161 491 222 697
264 283 58 627 74 978 44z m-3745 -6509 c275 -245 333 -319 360 -456 18 -89
-4 -157 -70 -223 -64 -64 -125 -85 -227 -79 -110 7 -208 60 -342 183 -58 52
-108 95 -112 95 -4 0 -50 -46 -102 -102 l-95 -102 -96 89 c-53 48 -95 92 -94
96 4 11 599 649 605 649 3 0 80 -67 173 -150z m7094 -215 c130 -140 241 -255
245 -255 4 0 87 74 184 165 97 91 180 165 184 165 12 0 123 -113 123 -125 0
-14 -549 -520 -564 -520 -6 0 -132 131 -280 290 -148 160 -283 305 -300 323
l-30 32 94 90 c52 49 97 89 100 90 3 0 113 -115 244 -255z m-398 -441 c206
-147 384 -274 396 -283 20 -17 18 -19 -101 -89 -67 -40 -126 -72 -132 -72 -5
0 -43 25 -84 56 -67 50 -76 54 -97 43 -13 -6 -91 -52 -174 -100 l-150 -89 7
-57 c4 -32 8 -76 8 -98 l1 -41 -112 -64 c-125 -72 -138 -77 -138 -58 0 7 -20
226 -46 486 -25 260 -44 475 -42 476 17 16 266 155 277 156 7 0 182 -120 387
-266z m-5830 59 c225 -80 396 -232 454 -404 18 -52 21 -80 18 -151 -4 -77 -9
-96 -46 -171 -52 -106 -140 -193 -229 -227 -78 -31 -205 -37 -295 -16 -176 41
-376 176 -464 312 -56 87 -77 165 -71 263 4 72 11 95 46 166 116 235 332 318
587 228z m4788 -252 c27 -5 32 -14 58 -100 16 -51 27 -95 24 -98 -3 -3 -48 0
-100 6 -182 21 -263 12 -382 -45 -87 -41 -155 -111 -174 -178 -18 -64 -9 -161
20 -220 71 -148 209 -188 436 -126 116 31 111 25 85 118 l-23 79 -75 -24 c-42
-13 -77 -22 -78 -21 -7 10 -46 160 -43 163 2 3 91 31 197 64 190 58 193 58
200 37 5 -11 34 -106 66 -210 l58 -189 -24 -18 c-13 -11 -87 -51 -164 -89
-284 -142 -523 -173 -702 -90 -71 33 -144 96 -179 155 -158 270 -43 551 283
694 159 69 413 115 517 92z m-3804 -151 c293 -95 359 -123 430 -187 72 -64 93
-110 88 -189 -6 -92 -44 -149 -127 -191 -35 -18 -85 -36 -112 -39 -27 -4 -49
-8 -49 -10 0 -2 16 -29 36 -61 20 -31 50 -86 67 -122 32 -72 100 -271 94 -278
-2 -2 -74 19 -160 47 -146 47 -157 53 -162 78 -24 114 -124 335 -168 369 -14
11 -104 43 -122 43 -7 0 -29 -55 -50 -122 -20 -68 -43 -137 -51 -155 l-13 -32
-123 41 c-68 22 -125 43 -128 45 -2 2 12 54 32 116 20 62 82 253 138 425 66
204 106 312 113 309 7 -2 127 -41 267 -87z m2670 -144 c0 -3 11 -141 26 -308
31 -375 27 -410 -52 -498 -79 -88 -193 -133 -381 -152 -201 -20 -346 14 -433
102 -76 75 -84 109 -113 460 -14 168 -24 306 -23 307 3 4 269 24 272 20 2 -1
15 -135 29 -296 32 -373 38 -390 149 -413 43 -9 72 -9 127 0 91 16 124 36 150
90 l21 42 -26 307 c-15 168 -24 308 -21 312 11 10 275 36 275 27z m-1567 -63
l459 -38 -7 -90 c-4 -49 -10 -93 -14 -96 -3 -4 -82 0 -174 9 -99 9 -171 11
-176 6 -4 -5 -20 -162 -36 -349 -15 -187 -29 -341 -30 -343 -4 -4 -239 20
-245 25 -2 2 8 154 23 336 15 183 27 339 27 348 0 14 -23 18 -142 28 -79 6
-158 14 -177 17 l-33 5 7 87 c4 48 9 90 12 95 2 4 14 5 26 3 12 -3 228 -22
480 -43z"/>
<path d="M5270 12271 l-55 -6 3 -35 c5 -73 24 -255 26 -257 5 -6 252 28 285
38 52 17 86 44 105 83 31 65 16 124 -43 163 -31 21 -44 23 -150 21 -64 -1
-141 -4 -171 -7z"/>
<path d="M3832 11966 c-165 -63 -252 -172 -252 -316 0 -139 106 -322 217 -375
164 -79 430 25 493 191 65 174 -33 419 -198 500 -60 30 -182 30 -260 0z"/>
<path d="M2670 11301 c-14 -5 -41 -16 -60 -26 -40 -20 -215 -164 -215 -176 0
-4 36 -51 80 -104 44 -53 90 -108 102 -122 l21 -26 90 77 c98 84 135 126 158
182 30 71 -9 160 -83 190 -35 15 -55 16 -93 5z"/>
<path d="M5825 10169 c-187 -8 -297 -21 -453 -56 -186 -40 -330 -96 -642 -248
-162 -79 -329 -157 -370 -173 -256 -101 -493 -147 -869 -171 -84 -6 -154 -11
-156 -13 -1 -2 -20 -52 -42 -113 -180 -488 -281 -962 -325 -1530 -7 -88 -12
-326 -12 -530 0 -396 9 -516 59 -810 187 -1079 790 -1985 1747 -2625 346 -231
719 -420 1120 -566 l118 -43 77 29 c1193 436 2070 1165 2549 2120 321 640 448
1292 415 2142 -20 525 -66 873 -173 1293 -38 152 -130 440 -181 570 -26 68
-34 72 -149 74 -112 2 -365 31 -503 58 -233 45 -409 110 -735 273 -109 54
-246 120 -305 145 -332 141 -679 193 -1170 174z m495 -621 c90 -23 137 -29
217 -29 57 0 103 -1 103 -3 0 -7 -127 -93 -174 -117 l-51 -27 45 -6 c25 -3
110 -7 190 -9 157 -5 202 -16 252 -64 25 -24 55 -79 47 -87 -2 -3 -35 6 -74
20 -157 53 -278 14 -292 -95 -3 -23 -4 -41 -2 -41 2 0 28 9 57 20 106 40 225
19 300 -53 49 -47 59 -72 71 -181 6 -53 18 -113 26 -133 23 -56 7 -53 -44 6
-94 111 -135 149 -178 161 -61 19 -107 6 -156 -43 l-41 -41 68 -13 c183 -33
283 -172 302 -418 3 -49 12 -107 19 -127 31 -93 -66 3 -139 136 -62 114 -97
152 -150 162 -43 7 -96 -17 -133 -60 l-26 -31 34 -8 c66 -17 94 -32 137 -71
85 -78 94 -112 101 -397 l6 -236 31 -60 32 -61 -32 10 c-85 29 -128 93 -175
267 -52 185 -77 229 -160 274 -67 37 -75 34 -41 -15 65 -94 71 -199 25 -408
-13 -58 -26 -126 -29 -151 -9 -65 17 -183 50 -226 l27 -36 17 67 c15 62 60
134 88 144 9 3 12 -33 12 -140 0 -176 15 -355 36 -427 33 -115 145 -338 245
-487 194 -290 542 -321 681 -61 20 37 23 56 22 152 -1 150 -17 193 -235 630
-221 444 -233 479 -233 690 -1 122 3 160 18 205 57 167 143 276 258 330 71 33
164 54 216 48 27 -3 36 0 49 22 31 54 110 90 193 90 65 -1 124 -16 214 -57 76
-34 83 -36 165 -31 47 3 92 3 99 1 8 -3 -26 -24 -75 -46 -75 -35 -97 -41 -148
-40 -33 1 -79 8 -103 17 -43 15 -43 15 -40 -6 7 -50 124 -88 209 -69 87 20 97
12 24 -21 -97 -43 -199 -57 -256 -35 -48 19 -54 17 -44 -13 14 -44 50 -55 174
-52 64 2 113 1 111 -1 -16 -15 -251 -100 -302 -109 -114 -20 -226 23 -264 100
-12 24 -18 59 -18 99 0 56 -2 62 -22 67 -33 9 -112 -11 -159 -39 -51 -30 -127
-110 -154 -163 -68 -133 -68 -334 -1 -526 30 -89 106 -233 215 -412 164 -266
244 -406 267 -464 31 -77 33 -295 3 -385 -34 -106 -99 -186 -231 -281 l-29
-22 39 -7 c29 -6 51 -3 87 13 27 11 49 16 49 11 0 -6 -22 -32 -48 -58 -75 -75
-138 -95 -290 -95 l-123 -1 6 -25 c11 -42 53 -107 86 -130 61 -44 155 -36 240
21 l44 29 3 -41 c2 -29 -5 -57 -24 -96 -30 -63 -91 -112 -230 -188 -48 -26
-104 -63 -125 -82 -54 -48 -89 -124 -89 -190 0 -53 8 -64 29 -39 6 7 58 37
116 65 78 38 119 66 158 107 l54 54 11 -25 c19 -42 14 -115 -11 -160 -13 -23
-53 -63 -92 -92 -61 -46 -93 -62 -209 -106 -55 -20 -143 -103 -161 -150 -19
-50 -9 -115 16 -109 47 12 140 24 145 19 9 -9 -33 -73 -67 -101 -17 -14 -59
-42 -94 -62 -36 -19 -76 -50 -91 -67 -73 -86 -100 -218 -70 -335 32 -125 16
-171 -72 -216 -37 -18 -131 -46 -157 -46 -2 0 -1 25 2 55 6 60 -14 175 -30
175 -6 0 -42 -34 -81 -75 -39 -41 -84 -80 -101 -86 -16 -6 -69 -14 -117 -18
l-87 -6 6 25 c21 90 45 137 98 189 52 50 54 55 39 72 -26 28 -61 31 -171 13
-120 -20 -127 -17 -117 51 12 82 57 119 143 119 31 0 101 -4 156 -9 l101 -8
54 44 c160 131 277 382 241 517 -25 93 -87 126 -187 97 -32 -9 -74 -25 -92
-36 -18 -10 -34 -19 -35 -19 -2 0 -3 33 -4 74 -1 102 -27 154 -156 305 -137
163 -147 182 -147 302 0 121 19 194 77 294 110 188 129 235 106 259 -4 4 -6
22 -5 40 6 66 -66 102 -328 161 -235 53 -309 85 -435 187 -114 91 -199 208
-152 208 17 0 117 68 117 80 0 6 -20 10 -43 10 -63 0 -145 31 -287 110 -176
97 -192 103 -272 98 -68 -5 -130 -33 -142 -63 -4 -12 4 -15 39 -15 61 0 87
-12 174 -82 41 -33 96 -70 121 -80 l45 -20 -65 -25 c-51 -20 -79 -24 -130 -21
-57 3 -83 12 -210 76 -166 83 -221 96 -295 68 -25 -10 -47 -21 -50 -26 -3 -4
20 -20 49 -34 80 -39 165 -139 104 -122 -163 46 -231 60 -308 60 -77 1 -101
-4 -258 -56 -108 -36 -191 -70 -225 -92 -28 -19 -74 -43 -102 -54 -27 -11 -58
-23 -67 -27 -16 -6 -18 -1 -18 49 0 31 6 71 14 89 18 43 67 84 119 98 23 6 49
13 57 16 11 3 6 12 -20 34 -42 36 -88 38 -172 7 -40 -14 -63 -29 -71 -45 -20
-44 -37 -20 -37 52 0 88 69 129 237 142 46 3 83 8 83 10 0 2 -7 15 -16 29 -24
36 -59 51 -137 59 -63 7 -67 9 -61 29 35 114 101 116 311 10 130 -66 138 -69
217 -72 153 -7 266 37 493 191 77 53 169 110 203 127 63 32 63 32 101 14 54
-24 153 -14 308 31 139 40 195 73 249 149 32 44 62 114 62 143 0 10 -14 3 -40
-20 -52 -48 -102 -72 -186 -92 -44 -10 -104 -36 -164 -70 -105 -60 -168 -85
-212 -85 -29 0 -30 1 -23 38 11 59 52 137 101 191 54 60 123 95 325 165 157
55 243 100 267 138 9 15 14 30 11 33 -4 3 -35 -1 -70 -9 -94 -21 -309 -29
-309 -12 0 51 105 108 328 180 168 54 210 74 246 116 45 55 28 140 -29 140
-39 0 -105 -28 -176 -76 l-69 -45 -32 22 c-50 34 -108 91 -124 121 -8 15 -14
43 -14 64 l0 36 93 -8 c125 -12 245 -10 288 4 72 25 114 102 95 176 -10 39
-64 94 -120 123 -69 36 -198 44 -277 18 -59 -20 -131 -58 -149 -80 -18 -22
-41 -18 -72 12 -51 48 -29 137 41 165 24 11 23 12 -29 20 -71 11 -77 18 -55
67 17 38 21 41 88 56 105 24 199 34 244 25 44 -8 108 -43 121 -67 7 -12 16
-11 63 10 30 14 84 37 121 52 36 15 73 34 82 44 16 17 9 18 -133 13 -172 -5
-214 0 -247 33 -31 31 -30 65 1 95 34 32 119 37 239 16 86 -15 90 -15 117 5
64 45 156 70 229 62 25 -3 97 -19 160 -35z m-2207 -572 c51 -21 100 -87 142
-189 63 -152 118 -227 234 -319 151 -121 275 -164 511 -178 222 -14 213 -9
143 -78 -33 -31 -84 -93 -115 -137 -68 -97 -147 -174 -214 -208 -75 -38 -208
-58 -271 -41 -22 6 -21 8 16 35 22 15 64 59 95 98 64 80 95 104 151 118 l40
10 -30 12 c-38 16 -86 8 -144 -22 -206 -108 -190 -102 -276 -102 -44 0 -89 5
-99 11 -18 11 -14 15 40 45 32 19 94 62 138 97 43 35 89 68 102 74 13 6 24 15
24 20 0 15 -85 8 -188 -17 -91 -22 -152 -31 -152 -22 0 1 9 20 20 42 27 53 26
113 -2 155 -40 58 -110 88 -295 126 -192 40 -240 59 -287 117 -42 53 -79 124
-70 138 12 20 106 5 151 -24 42 -27 93 -45 93 -33 0 15 -30 62 -52 82 -12 12
-49 35 -80 52 l-57 30 19 25 c53 67 141 88 215 49 44 -22 107 -84 150 -147
l27 -40 -6 40 c-3 22 -21 72 -41 111 -19 40 -35 75 -35 78 0 11 70 6 103 -8z
m1552 -65 c13 -5 -5 -10 -55 -14 -89 -8 -155 -28 -309 -91 -140 -58 -220 -76
-288 -66 -94 15 -179 64 -208 120 -8 16 -15 31 -15 34 0 3 26 -7 57 -21 45
-21 77 -27 152 -31 85 -4 111 0 236 31 77 20 149 38 160 40 34 8 249 6 270 -2z
m254 -2388 c0 -11 -87 -67 -140 -90 -95 -42 -155 -89 -179 -138 -12 -25 -20
-48 -17 -51 3 -3 47 15 99 40 109 53 187 74 295 82 77 5 78 5 53 -13 -64 -46
-121 -110 -153 -171 -60 -116 -58 -120 30 -49 113 91 206 130 259 110 21 -8
21 -9 -18 -73 -60 -97 -98 -185 -115 -264 -21 -100 -12 -160 42 -290 8 -18 5
-19 -46 -13 -30 3 -94 17 -144 32 -137 41 -232 27 -307 -43 -26 -24 -40 -60
-18 -47 23 14 116 -17 170 -56 30 -21 77 -50 103 -63 l48 -24 -26 -20 c-70
-55 -187 -55 -362 1 -62 20 -134 39 -162 43 -49 6 -146 -10 -156 -26 -3 -5 14
-20 38 -34 51 -30 92 -72 102 -105 6 -21 5 -23 -11 -16 -102 42 -140 48 -314
49 -209 1 -207 2 -319 -130 l-74 -87 -91 9 c-50 4 -108 8 -129 8 -36 0 -38 2
-32 25 11 46 76 130 136 176 l59 44 -45 7 c-84 12 -185 -31 -248 -106 -14 -16
-28 -30 -31 -30 -3 0 -10 19 -17 42 -20 77 18 158 98 205 43 25 54 27 150 25
109 -1 117 3 93 48 -18 33 -69 42 -165 29 -47 -6 -89 -8 -92 -5 -14 13 54 92
97 114 76 38 138 31 257 -28 56 -27 120 -54 144 -59 59 -14 256 -14 321 0 194
41 262 199 162 376 -92 164 -99 182 -99 263 0 63 4 82 27 121 55 93 147 133
328 143 69 4 179 16 245 26 141 21 155 23 154 13z"/>
<path d="M5904 7874 c-49 -84 -119 -141 -234 -190 -221 -94 -330 -171 -330
-232 l0 -31 44 20 c24 10 103 28 175 39 71 11 155 28 186 39 107 38 205 134
221 218 8 44 0 164 -13 187 -8 15 -16 7 -49 -50z"/>
<path d="M6285 7848 c0 -72 -4 -89 -27 -129 -38 -65 -89 -107 -209 -174 -175
-99 -224 -139 -244 -203 -6 -21 -3 -21 57 12 48 27 88 39 163 51 55 9 120 26
145 38 58 27 136 100 163 152 30 56 29 169 -1 246 -39 99 -47 100 -47 7z"/>
<path d="M5395 7309 c-46 -11 -70 -29 -38 -29 12 0 59 -25 104 -56 45 -31 100
-65 123 -75 58 -26 206 -25 206 2 0 5 -5 9 -12 9 -7 0 -51 25 -99 55 -142 90
-207 112 -284 94z"/>
<path d="M6208 6950 c-20 -11 -76 -31 -125 -46 -149 -44 -338 -43 -458 2 -38
15 5 -26 55 -51 179 -91 402 -67 536 57 63 58 60 73 -8 38z"/>
<path d="M6415 6755 c-121 -27 -283 -37 -409 -26 -65 7 -121 10 -123 7 -11
-11 85 -68 145 -86 78 -24 197 -26 270 -5 43 13 202 108 202 121 0 6 -17 4
-85 -11z"/>
<path d="M6420 6103 c-39 -61 -67 -137 -80 -216 -15 -93 5 -156 96 -307 41
-68 77 -135 80 -147 4 -13 11 -23 16 -23 6 0 9 32 6 83 -3 70 -10 95 -45 172
-22 50 -46 117 -53 150 -14 67 -8 185 14 278 7 31 9 57 4 57 -4 0 -22 -21 -38
-47z"/>
<path d="M2406 3578 l-87 -91 28 -30 c15 -16 60 -55 100 -87 82 -66 131 -82
181 -56 67 35 88 95 56 159 -16 31 -172 197 -185 197 -4 0 -46 -41 -93 -92z"/>
<path d="M8883 3114 c3 -21 11 -91 18 -154 7 -63 15 -119 19 -123 4 -4 55 20
114 54 87 50 105 64 94 74 -18 16 -220 169 -237 180 -11 6 -13 1 -8 -31z"/>
<path d="M3317 3046 c-60 -16 -112 -57 -159 -127 -125 -184 -72 -363 129 -439
132 -50 265 15 339 166 25 51 29 70 29 145 0 77 -3 90 -28 127 -36 54 -122
111 -194 128 -68 16 -56 16 -116 0z"/>
<path d="M4339 2573 c-17 -54 -34 -103 -36 -110 -6 -15 172 -73 231 -75 84 -4
136 40 136 115 0 52 -40 82 -169 128 -62 21 -116 39 -121 39 -4 0 -23 -44 -41
-97z"/>
</g>
</svg>
