<?xml version="1.0" standalone="no"?>
<!DOCTYPE svg PUBLIC "-//W3C//DTD SVG 20010904//EN"
 "http://www.w3.org/TR/2001/REC-SVG-20010904/DTD/svg10.dtd">
<svg version="1.0" xmlns="http://www.w3.org/2000/svg"
 width="376.000000pt" height="500.000000pt" viewBox="0 0 376.000000 500.000000"
 preserveAspectRatio="xMidYMid meet">

<g transform="translate(0.000000,500.000000) scale(0.100000,-0.100000)"
fill="#000000" stroke="none">
<path d="M1869 4846 c-19 -18 -50 -50 -69 -71 -19 -21 -59 -53 -88 -72 -61
-40 -73 -60 -47 -79 17 -13 16 -14 -15 -14 -47 0 -112 34 -153 79 -36 40 -76
71 -91 71 -5 0 -2 -8 6 -17 9 -10 25 -37 36 -60 18 -39 18 -43 4 -43 -10 0
-43 22 -76 49 -56 47 -90 61 -145 61 -22 -1 -20 -3 14 -15 22 -8 58 -34 82
-61 41 -44 42 -46 15 -39 -15 3 -49 20 -77 37 -34 21 -66 32 -100 35 l-50 3
36 -14 c21 -8 60 -30 89 -50 28 -19 67 -38 86 -42 50 -9 30 -27 -24 -21 -37 4
-42 3 -26 -6 15 -9 73 -15 172 -17 22 0 8 -24 -19 -31 -20 -6 -18 -7 13 -8 21
-1 70 12 110 28 74 29 177 55 185 47 3 -3 -9 -12 -26 -21 -17 -8 -31 -18 -31
-20 0 -2 14 -12 30 -20 28 -14 32 -14 46 0 16 15 31 20 98 29 21 3 47 13 58
23 17 15 21 15 29 3 60 -90 48 -133 -29 -110 -21 6 -43 5 -59 -1 -18 -6 -43
-6 -77 1 -73 15 -122 15 -196 1 -55 -11 -76 -10 -135 3 -195 45 -205 47 -226
35 -16 -8 -20 -17 -16 -39 5 -23 2 -29 -17 -34 -13 -3 -27 -13 -30 -23 -11
-29 36 -105 89 -145 28 -21 50 -45 50 -55 0 -9 -19 -30 -42 -47 l-43 -30 -29
28 c-21 20 -35 26 -50 21 -14 -4 -23 -1 -27 9 -7 19 -40 21 -46 4 -7 -17 1
-38 14 -38 12 0 48 -38 48 -50 0 -5 -7 -10 -15 -14 -8 -3 -15 -12 -15 -21 0
-9 -7 -26 -16 -39 -14 -23 -14 -25 8 -40 28 -20 42 -20 58 -1 19 23 30 18 30
-15 0 -21 4 -28 14 -24 19 7 56 -30 56 -55 0 -25 14 -34 40 -26 15 5 20 15 20
45 0 50 -37 90 -55 60 -9 -15 -25 -12 -25 5 0 8 9 15 19 15 11 0 33 17 50 37
l31 38 0 -31 c0 -17 7 -53 15 -80 18 -58 17 -57 6 -50 -5 3 -12 -10 -15 -30
-9 -44 -43 -63 -82 -45 -32 14 -36 22 65 -141 46 -75 83 -140 82 -145 -1 -4
-30 -18 -64 -29 -34 -12 -91 -33 -125 -48 -48 -20 -67 -24 -77 -16 -10 8 -15
6 -20 -9 -5 -17 -10 -19 -26 -11 -11 6 -25 8 -31 4 -8 -5 -9 -2 -5 10 4 10 7
19 7 22 0 2 7 1 16 -3 18 -7 84 53 84 77 0 20 31 50 52 50 8 0 23 9 34 21 14
16 16 24 7 37 -6 9 -19 15 -29 14 -14 -3 -16 -1 -6 10 16 20 -27 62 -53 52
-14 -6 -17 -4 -12 9 4 11 0 20 -12 26 -14 8 -23 5 -40 -13 -11 -12 -21 -29
-21 -37 0 -19 -20 -39 -39 -39 -8 0 -32 -16 -53 -37 -42 -41 -40 -52 14 -109
25 -27 27 -34 19 -58 -14 -35 -38 -44 -56 -20 -13 17 -14 16 -15 -22 0 -25 6
-47 15 -54 8 -7 12 -17 9 -22 -3 -5 -13 0 -21 11 -17 26 -36 18 -27 -11 4 -14
2 -18 -5 -14 -7 4 -11 0 -11 -12 0 -11 -19 -32 -44 -50 -127 -91 -319 -384
-400 -610 -110 -307 -125 -648 -46 -1042 140 -701 556 -1138 1199 -1260 81
-16 116 -19 124 -11 6 6 9 12 6 14 -65 46 -125 98 -159 139 -93 110 -182 290
-239 483 -50 170 -101 509 -101 660 1 100 16 61 24 -60 36 -538 197 -983 419
-1154 l57 -44 133 -2 c128 -1 133 0 172 26 219 149 379 529 430 1026 8 81 17
178 21 215 3 38 10 68 16 68 14 0 4 -192 -17 -340 -72 -508 -223 -843 -447
-993 -31 -20 -35 -27 -24 -36 11 -9 43 -6 138 13 474 96 810 348 1017 761 126
253 198 548 208 860 l5 160 -36 23 c-20 12 -42 22 -50 22 -21 0 -30 20 -17 33
12 12 12 12 70 -31 l31 -23 0 50 c0 48 -2 51 -42 79 -43 29 -48 32 -68 32 -13
0 -13 27 1 35 6 4 20 -2 32 -13 12 -10 34 -27 48 -36 l26 -16 -4 32 c-2 18 -6
43 -9 55 -4 24 -82 83 -108 83 -17 0 -22 25 -6 35 5 3 31 -10 58 -30 l49 -35
-10 51 c-9 44 -16 54 -56 82 -25 18 -55 34 -65 37 -25 7 -32 28 -12 36 9 3 32
-8 55 -27 23 -18 43 -30 46 -27 8 8 -43 148 -90 243 -82 168 -224 356 -324
429 -31 23 -51 45 -51 57 0 12 -4 17 -11 13 -7 -4 -9 0 -5 14 9 29 -10 37 -27
11 -8 -11 -18 -16 -21 -11 -3 5 1 15 9 22 16 13 21 80 6 80 -5 0 -11 -5 -13
-12 -7 -19 -35 -2 -52 32 -15 31 -15 33 14 68 17 20 30 41 30 47 0 6 -17 27
-37 46 l-38 34 29 -32 c16 -18 28 -34 25 -36 -2 -1 -12 -9 -22 -16 -15 -12
-20 -11 -36 4 -13 11 -27 14 -40 10 -24 -7 -28 -37 -6 -55 8 -7 15 -16 15 -21
0 -18 -27 -9 -51 17 l-24 25 50 48 50 48 -22 17 c-13 9 -23 25 -23 35 0 25
-36 55 -56 47 -9 -3 -14 -13 -10 -21 6 -17 -10 -30 -19 -14 -12 19 -56 -31
-49 -55 6 -18 5 -19 -8 -8 -12 10 -17 8 -26 -12 -9 -20 -7 -27 7 -40 10 -9 24
-16 33 -16 18 0 61 -44 51 -53 -4 -4 9 -23 27 -42 56 -57 29 -62 -89 -15 -57
23 -116 44 -133 47 -17 3 -27 11 -24 18 2 6 41 72 86 146 45 74 84 137 87 141
2 4 -10 3 -26 -3 -51 -18 -80 10 -71 70 2 13 0 13 -16 0 -16 -13 -17 -11 -11
21 4 19 9 54 13 77 4 29 10 40 20 36 9 -3 14 -29 16 -86 l3 -82 75 4 c41 2 83
7 92 12 23 12 48 61 48 93 0 29 28 48 74 50 24 1 32 7 34 25 3 21 1 23 -25 18
-17 -3 -39 1 -55 11 -23 14 -28 23 -28 57 0 23 5 46 12 53 10 9 9 16 -4 28
-19 19 -38 11 -38 -16 0 -10 -7 -20 -15 -24 -8 -3 -15 -14 -15 -24 0 -10 -9
-27 -20 -37 -19 -17 -20 -17 -29 7 -12 32 -32 48 -83 63 l-43 12 -5 84 c-3 46
-2 94 2 106 6 18 0 29 -33 56 -22 19 -53 37 -68 40 -16 3 -42 18 -60 33 -26
21 -38 25 -65 20 -20 -4 -37 -2 -41 4 -3 5 1 10 9 10 9 0 16 2 16 5 0 16 -41
83 -64 104 -20 19 -23 27 -14 33 15 10 -33 55 -70 64 -22 6 -22 6 8 40 16 19
30 39 30 44 0 12 -81 2 -134 -17 -48 -16 -45 -17 -39 6 8 33 -13 31 -48 -3z
m-119 -232 c0 -2 -15 -4 -32 -3 -27 0 -29 2 -13 8 18 8 45 4 45 -5z m-317
-199 c9 -25 12 -45 7 -45 -8 0 -40 72 -40 91 0 22 19 -3 33 -46z m287 34 c0
-5 -10 -8 -22 -6 -17 1 -23 -3 -23 -18 0 -16 6 -20 28 -18 27 2 36 -10 16 -22
-39 -25 -92 43 -55 70 18 13 56 9 56 -6z m-217 -30 c-3 11 -1 21 4 21 10 0 34
-82 26 -90 -2 -3 -18 10 -34 28 -28 32 -29 32 -23 8 3 -15 3 -26 0 -26 -7 0
-23 37 -32 78 l-7 27 36 -34 c30 -28 35 -30 30 -12z m136 4 c6 -21 7 -41 2
-46 -4 -4 -13 10 -18 32 -9 34 -8 51 3 51 2 0 8 -17 13 -37z m140 31 c17 -4
31 -11 31 -16 0 -6 -7 -7 -15 -4 -13 5 -15 0 -9 -31 8 -42 -10 -39 -21 4 -3
15 -14 33 -23 40 -19 14 -9 16 37 7z m-183 -80 c-3 -8 -9 -14 -13 -14 -8 0
-53 64 -53 75 0 14 17 2 32 -22 l17 -28 1 26 c0 14 3 29 8 33 8 9 16 -50 8
-70z m282 36 c17 -31 19 -40 8 -40 -8 0 -16 6 -19 13 -3 9 -9 9 -27 -1 -12 -7
-24 -11 -27 -9 -6 7 24 77 34 77 4 0 18 -18 31 -40z m402 -29 c0 -3 -20 -13
-45 -22 -25 -9 -45 -13 -45 -8 0 5 7 9 15 9 8 0 19 9 25 19 6 13 17 17 30 14
11 -3 20 -8 20 -12z m-813 -130 c-34 -67 -42 -77 -70 -81 -32 -6 -32 -6 -32
36 0 27 -7 50 -19 63 -19 21 -19 21 5 21 29 0 49 17 49 40 0 14 7 15 53 6 l52
-9 -38 -76z m383 71 l-47 -22 -53 23 -52 23 100 0 100 -1 -48 -23z m410 -348
c0 -8 -4 -14 -10 -14 -5 0 -10 9 -10 21 0 11 5 17 10 14 6 -3 10 -13 10 -21z
m-140 -63 c22 -20 32 -22 76 -18 42 4 54 2 67 -14 30 -34 63 -35 140 -4 12 5
17 2 17 -8 0 -9 10 -23 22 -31 21 -15 21 -15 3 -56 -13 -29 -23 -40 -34 -36
-157 51 -292 66 -596 66 l-235 0 0 33 c0 29 5 35 34 45 21 8 44 27 56 47 12
19 24 35 27 35 3 0 21 -13 40 -30 40 -36 79 -39 117 -9 l26 20 26 -20 c37 -29
66 -26 116 13 l43 34 15 -22 c8 -11 26 -32 40 -45z m184 4 c30 -28 34 -47 9
-38 -26 9 -53 34 -53 50 0 19 14 16 44 -12z m-181 -155 c117 -10 239 -32 267
-50 12 -8 11 -15 -7 -54 l-22 -44 -43 15 c-83 28 -247 43 -495 43 l-241 0 1
32 c2 29 6 33 42 40 120 25 322 32 498 18z m512 -5 c0 -6 -24 -32 -54 -60 -30
-28 -49 -40 -42 -28 7 15 8 24 1 28 -19 12 11 36 39 33 22 -3 26 1 23 20 -1
18 2 23 15 20 10 -2 18 -8 18 -13z m-1448 -28 c6 -6 13 -67 8 -67 -1 0 -17 17
-38 38 l-36 37 29 0 c15 0 32 -4 37 -8z m1462 -89 l-41 -40 -24 23 c-32 30
-30 42 13 78 l37 31 28 -27 27 -26 -40 -39z m-1485 41 c32 -37 32 -46 4 -76
l-22 -24 -38 42 -39 42 22 24 c29 30 42 29 73 -8z m76 -23 c0 -8 -5 -18 -11
-22 -14 -8 -33 11 -25 25 10 16 36 13 36 -3z m-141 -41 c22 -24 41 -51 41 -58
0 -7 -11 -24 -25 -37 -25 -23 -25 -23 -40 -4 -18 24 -18 34 0 54 9 10 13 25 9
34 -8 20 -47 21 -64 1 -7 -8 -17 -12 -22 -9 -9 6 39 64 53 64 3 0 25 -20 48
-45z m1620 -158 c1 -5 -3 -5 -9 -2 -5 3 -18 1 -29 -4 -15 -8 -20 -7 -25 6 -4
9 -5 17 -4 17 2 1 14 7 28 13 24 10 37 1 39 -30z m-199 -130 c1 -463 13 -1223
21 -1227 4 -3 4 -12 -1 -20 -6 -8 -10 -25 -10 -37 0 -13 -6 -23 -14 -23 -8 0
-18 -9 -21 -20 -5 -15 -12 -19 -26 -15 -11 4 -19 2 -19 -5 0 -6 -5 -8 -11 -4
-6 3 -9 17 -6 31 4 20 1 23 -12 16 -9 -4 -115 -10 -236 -13 -121 -4 -221 -7
-222 -8 -38 -29 -73 -68 -73 -81 0 -11 -5 -8 -16 10 -9 14 -32 36 -52 50 -34
23 -43 24 -251 29 -234 5 -256 10 -300 66 l-21 27 0 -41 c0 -22 -5 -44 -12
-48 -8 -5 -9 -2 -5 10 4 10 7 341 7 736 l0 719 640 0 640 0 0 -152z m-1474 87
c-30 -21 -42 -17 -15 5 13 11 26 17 29 14 3 -2 -4 -11 -14 -19z m1699 -12 c-6
-7 -45 19 -45 29 0 5 11 2 24 -8 13 -10 23 -19 21 -21z m-1685 -317 c0 -8 9
-15 20 -15 11 0 20 7 20 15 0 9 6 12 15 9 8 -4 15 -15 15 -26 0 -14 -5 -18
-16 -14 -9 3 -43 7 -77 7 -34 1 -54 3 -44 6 9 2 17 11 17 19 0 8 10 14 25 14
16 0 25 -6 25 -15z m1680 0 c0 -8 7 -15 15 -15 8 0 15 5 15 10 0 6 7 10 15 10
9 0 15 -9 15 -21 0 -15 -4 -19 -16 -15 -9 3 -41 7 -72 7 -31 1 -49 3 -39 6 9
2 17 11 17 19 0 8 10 14 25 14 16 0 25 -6 25 -15z m-1632 -77 l3 -38 -60 0
-61 0 0 40 0 41 58 -3 57 -3 3 -37z m1672 2 l0 -40 -55 0 -55 0 0 40 0 40 55
0 55 0 0 -40z m-1652 -99 c3 -37 1 -43 -13 -37 -9 3 -23 6 -30 6 -8 0 -15 12
-17 28 -2 21 -9 28 -30 30 -22 3 -27 -1 -30 -24 -5 -46 -28 -41 -28 6 l0 41
73 -3 72 -3 3 -44z m1670 0 c3 -37 1 -43 -13 -37 -9 3 -20 6 -25 6 -4 0 -10
14 -14 31 -5 26 -10 30 -33 27 -22 -2 -29 -9 -31 -30 -5 -43 -22 -33 -22 12
l0 41 68 -3 67 -3 3 -44z m-1738 -496 c0 -8 9 -15 20 -15 11 0 20 7 20 15 0 9
6 12 15 9 8 -4 15 -15 15 -26 0 -14 -5 -18 -16 -14 -9 3 -43 7 -77 7 -34 1
-54 3 -44 6 9 2 17 11 17 19 0 8 10 14 25 14 16 0 25 -6 25 -15z m1680 0 c0
-20 26 -19 34 1 8 20 26 8 26 -18 0 -14 -5 -18 -16 -14 -9 3 -41 7 -72 7 -31
1 -49 3 -39 6 9 2 17 11 17 19 0 8 10 14 25 14 16 0 25 -6 25 -15z m-1632 -77
l3 -38 -60 0 -61 0 0 40 0 41 58 -3 57 -3 3 -37z m1672 2 l0 -40 -55 0 -55 0
0 40 0 40 55 0 55 0 0 -40z m-1652 -99 c3 -37 1 -43 -13 -37 -9 3 -23 6 -30 6
-8 0 -15 12 -17 28 -2 21 -9 28 -30 30 -22 3 -27 -1 -30 -24 -5 -46 -28 -41
-28 6 l0 41 73 -3 72 -3 3 -44z m1670 0 c3 -37 1 -43 -13 -37 -9 3 -20 6 -25
6 -4 0 -10 14 -14 31 -5 26 -10 30 -33 27 -22 -2 -29 -9 -31 -30 -5 -43 -22
-33 -22 12 l0 41 68 -3 67 -3 3 -44z m-1550 -290 c-3 -21 0 -28 11 -27 18 1
18 -13 -1 -91 -6 -29 -16 -53 -21 -53 -4 0 -5 5 -2 11 4 6 0 16 -9 22 -20 15
-10 61 11 53 21 -8 27 21 9 39 -16 17 -22 56 -9 68 12 13 15 7 11 -22z m1272
-41 c-8 -34 -8 -33 -9 15 0 34 3 45 9 35 4 -9 5 -31 0 -50z m-26 5 c3 -9 0
-15 -8 -15 -9 0 -12 -7 -9 -21 4 -12 11 -18 20 -15 21 8 27 -19 12 -53 l-14
-30 -21 67 c-16 49 -19 69 -11 74 18 11 24 10 31 -7z m-1137 -38 c2 -2 -1 -16
-7 -31 -5 -15 -10 -35 -10 -44 1 -9 9 6 18 33 17 49 18 50 55 49 47 -2 51 -5
36 -37 -9 -19 -18 -24 -43 -23 -25 1 -32 -3 -34 -21 -2 -16 4 -26 22 -35 25
-11 35 -28 17 -28 -28 0 -71 14 -71 24 0 6 -11 12 -25 12 -50 3 -58 11 -50 51
12 63 20 73 56 63 18 -5 33 -11 36 -13z m1108 -29 c17 -57 14 -63 -30 -72 -29
-6 -30 -5 -46 48 l-16 55 36 9 c20 6 37 10 38 11 1 1 9 -22 18 -51z m-91 -5
c18 -51 21 -93 7 -93 -5 0 -23 -3 -40 -6 -40 -8 -40 8 -1 23 17 6 30 18 30 26
0 22 -27 40 -50 34 -13 -3 -24 1 -30 13 -19 35 -9 46 47 49 17 1 24 -9 37 -46z
m-484 -203 c0 -5 7 -10 15 -10 8 0 15 5 15 12 0 8 3 9 10 2 6 -6 7 -27 1 -57
-5 -27 -5 -47 0 -47 5 0 9 -13 9 -30 0 -23 -5 -30 -19 -30 -13 0 -21 8 -23 23
-2 14 -10 22 -23 22 -13 0 -21 -8 -23 -22 -2 -13 -8 -23 -13 -23 -11 0 -11 20
-3 83 l7 46 46 4 46 3 -53 2 c-45 2 -51 4 -40 17 15 16 48 20 48 5z m-895
-183 c14 -24 25 -49 25 -55 0 -6 -45 -36 -100 -68 l-99 -58 31 -56 c17 -30 34
-59 38 -63 4 -4 49 17 101 47 105 61 100 61 139 -16 l19 -36 -92 -52 c-51 -29
-94 -54 -96 -56 -2 -2 26 -53 62 -113 47 -80 62 -112 54 -119 -18 -14 -95 -52
-106 -52 -8 0 -97 147 -276 454 -32 55 -54 101 -49 103 5 2 77 44 159 93 83
49 153 90 157 90 4 0 19 -20 33 -43z m919 -11 c68 -28 87 -100 41 -154 -43
-51 -107 -51 -154 -1 -43 47 -10 150 52 162 12 2 23 5 25 6 1 0 18 -5 36 -13z
m898 -36 c187 -60 253 -122 253 -234 0 -117 -82 -206 -193 -213 -50 -4 -124
10 -173 31 -12 5 -24 -14 -58 -94 -24 -55 -48 -100 -54 -100 -26 0 -127 44
-123 54 2 6 54 130 115 276 137 327 130 310 136 310 2 0 46 -13 97 -30z m-854
-449 c58 -11 63 -18 50 -69 -10 -41 -12 -43 -41 -36 -120 26 -211 -17 -237
-114 -20 -78 12 -152 82 -188 30 -15 121 -21 157 -9 23 7 26 2 35 -47 7 -36 6
-37 -31 -47 -92 -26 -211 -4 -285 52 -61 47 -92 113 -92 196 1 101 47 177 133
224 75 41 148 53 229 38z"/>
<path d="M1840 4410 c0 -5 5 -10 11 -10 5 0 7 5 4 10 -3 6 -8 10 -11 10 -2 0
-4 -4 -4 -10z"/>
<path d="M1740 3735 c-18 -21 -5 -47 22 -43 26 3 37 36 16 49 -18 12 -24 11
-38 -6z"/>
<path d="M1981 3740 c-18 -11 -9 -44 13 -48 21 -4 37 14 29 34 -6 17 -27 24
-42 14z"/>
<path d="M2184 3705 c-4 -9 -2 -21 4 -27 16 -16 47 -5 47 17 0 26 -42 34 -51
10z"/>
<path d="M2596 3672 c-3 -6 -1 -14 5 -17 15 -10 25 3 12 16 -7 7 -13 7 -17 1z"/>
<path d="M1120 3665 c0 -8 5 -15 10 -15 6 0 10 7 10 15 0 8 -4 15 -10 15 -5 0
-10 -7 -10 -15z"/>
<path d="M1310 3085 l0 -325 240 0 240 0 -1 23 c0 12 -3 16 -6 10 -11 -29 -21
-9 -20 40 l1 53 33 0 c27 -1 32 -4 27 -18 -4 -13 0 -18 15 -18 21 0 21 4 21
280 l0 280 -275 0 -275 0 0 -325z m99 265 c0 -14 1 -36 3 -49 2 -13 -3 -26 -9
-28 -7 -3 -13 2 -13 11 0 9 -4 16 -10 16 -5 0 -10 -7 -10 -15 0 -8 -5 -15 -10
-15 -17 0 -22 24 -11 53 7 17 7 28 1 32 -20 13 -9 23 24 22 30 -1 35 -4 35
-27z m197 -27 c1 -29 -2 -53 -7 -53 -5 0 -9 7 -9 15 0 8 -4 15 -9 15 -5 0 -11
-7 -15 -15 -12 -32 -24 -13 -22 38 1 51 2 52 31 52 29 0 30 -1 31 -52z m220 0
c2 -51 -10 -70 -22 -38 -4 8 -10 15 -15 15 -5 0 -9 -7 -9 -15 0 -8 -4 -15 -9
-15 -5 0 -9 24 -8 53 1 53 1 53 32 53 29 -1 30 -2 31 -53z m-106 -238 l0 -175
-135 0 -135 0 0 175 0 175 135 0 135 0 0 -175z m-360 53 c0 -9 4 -8 11 2 9 12
12 13 16 1 5 -11 7 -11 14 0 6 10 8 4 7 -16 -1 -16 2 -42 6 -57 7 -22 5 -28
-8 -28 -9 0 -16 7 -16 15 0 8 -4 15 -10 15 -5 0 -10 -7 -10 -15 0 -8 -7 -15
-15 -15 -18 0 -18 4 -6 47 6 20 6 35 0 38 -12 8 -12 25 1 25 6 0 10 -6 10 -12z
m424 3 c5 11 7 11 12 1 4 -8 10 -10 17 -3 9 7 12 -5 13 -45 1 -40 -2 -54 -12
-54 -8 0 -14 8 -14 18 -1 16 -1 16 -14 0 -21 -28 -25 -22 -23 37 1 30 4 50 8
44 4 -8 9 -7 13 2z m-375 -281 c0 -14 1 -36 3 -49 2 -13 -3 -26 -9 -28 -7 -3
-13 2 -13 11 0 9 -4 16 -10 16 -5 0 -10 -7 -10 -15 0 -8 -5 -15 -10 -15 -17 0
-22 24 -11 53 7 17 7 28 1 32 -20 13 -9 23 24 22 30 -1 35 -4 35 -27z"/>
<path d="M1560 3230 c0 -6 5 -8 10 -5 6 3 10 1 10 -6 0 -8 4 -8 15 1 8 7 15 9
15 6 0 -4 -7 -14 -15 -22 -8 -9 -15 -11 -15 -5 0 6 -4 11 -10 11 -5 0 -10 -7
-10 -15 0 -8 6 -15 13 -15 8 0 7 -4 -3 -11 -12 -7 -8 -9 15 -7 27 3 30 6 30
38 0 31 -3 35 -27 38 -16 2 -28 -2 -28 -8z"/>
<path d="M1474 3116 c-3 -8 -4 -25 -2 -38 2 -17 10 -24 33 -26 23 -2 27 0 15
7 -10 7 -11 11 -2 11 6 0 12 7 12 15 0 8 -4 15 -10 15 -5 0 -10 -5 -10 -11 0
-6 -7 -4 -15 5 -8 8 -15 18 -15 22 0 3 7 1 15 -6 11 -9 15 -9 15 -1 0 7 5 9
10 6 6 -3 10 -1 10 4 0 16 -50 13 -56 -3z"/>
<path d="M1560 3122 c0 -15 26 -22 39 -9 6 6 11 8 11 3 0 -4 -7 -14 -15 -22
-8 -9 -15 -11 -15 -5 0 6 -4 11 -10 11 -5 0 -10 -7 -10 -15 0 -8 6 -15 13 -15
8 0 7 -4 -3 -11 -12 -7 -8 -9 15 -7 27 3 30 6 30 38 0 31 -3 35 -27 38 -16 2
-28 -1 -28 -6z"/>
<path d="M1640 3120 c0 -6 5 -8 10 -5 6 3 10 1 10 -6 0 -8 4 -8 15 1 10 9 15
9 15 1 0 -6 -5 -11 -12 -11 -9 0 -9 -3 0 -12 15 -15 15 -28 1 -28 -5 0 -7 5
-4 10 9 15 -4 12 -21 -5 -14 -13 -12 -15 16 -15 30 0 31 1 28 38 -3 32 -7 37
-30 40 -16 2 -28 -2 -28 -8z"/>
<path d="M1640 3084 c0 -8 5 -12 10 -9 6 3 10 10 10 16 0 5 -4 9 -10 9 -5 0
-10 -7 -10 -16z"/>
<path d="M1560 3012 c0 -15 26 -22 39 -9 6 6 11 8 11 3 0 -4 -7 -14 -15 -22
-8 -9 -15 -11 -15 -5 0 6 -4 11 -10 11 -5 0 -10 -7 -10 -15 0 -8 6 -15 13 -15
9 0 9 -2 -1 -9 -11 -7 -11 -9 1 -14 25 -10 49 16 45 48 -2 24 -8 31 -30 33
-16 2 -28 -1 -28 -6z"/>
<path d="M2038 3403 c79 -2 205 -2 280 0 75 1 11 3 -143 3 -154 0 -216 -2
-137 -3z"/>
<path d="M2034 3312 c23 -24 27 -35 18 -44 -9 -9 -16 -7 -31 6 -28 25 -54 14
-42 -17 6 -14 6 -29 0 -38 -5 -8 -9 -37 -9 -66 0 -28 -5 -55 -10 -58 -6 -4 -8
-16 -5 -26 4 -11 3 -53 0 -94 -7 -70 -9 -75 -31 -75 -19 0 -24 -5 -24 -25 0
-22 4 -25 35 -25 35 0 35 0 35 -45 l0 -45 240 0 240 0 0 70 0 70 -29 0 c-29 0
-30 2 -34 53 l-3 52 -2 -57 c-2 -59 -22 -84 -22 -28 0 23 -4 30 -20 30 -18 0
-20 7 -20 60 0 57 1 60 25 60 21 0 25 -5 26 -32 1 -32 2 -32 9 7 4 22 4 50 -1
63 -5 13 -10 57 -12 97 -2 41 -6 77 -9 81 -4 3 -17 -1 -30 -10 -30 -21 -38
-20 -38 4 0 11 -4 20 -10 20 -5 0 -10 -5 -10 -11 0 -21 21 -49 36 -49 12 0 14
-5 8 -17 -4 -10 -11 -63 -16 -118 -5 -55 -11 -124 -14 -152 l-5 -53 -40 0
c-36 0 -39 2 -34 23 3 12 10 51 15 87 5 36 12 78 16 95 l7 29 -26 -17 c-30
-19 -77 -23 -77 -6 0 6 8 9 19 6 14 -3 22 5 35 33 9 20 16 45 16 55 0 15 -6
11 -24 -13 -18 -25 -25 -29 -29 -17 -4 8 -2 15 4 15 5 0 9 6 8 13 -3 28 2 37
22 37 18 0 19 2 9 15 -7 9 -15 13 -18 10 -3 -3 -11 0 -17 5 -9 8 -11 4 -7 -15
3 -16 -2 -33 -12 -44 -25 -28 -44 -110 -34 -146 4 -16 6 -40 3 -52 -3 -13 0
-31 6 -41 7 -11 9 -31 5 -45 -5 -22 -12 -27 -36 -27 -24 0 -30 4 -31 23 0 12
-6 87 -13 166 l-13 145 24 20 24 21 -38 35 c-37 34 -37 34 -9 2z m-6 -174 c3
-30 0 -36 -15 -34 -19 3 -32 36 -14 36 6 0 11 5 11 11 0 5 -4 7 -10 4 -5 -3
-10 1 -10 10 0 10 7 15 18 13 12 -2 18 -14 20 -40z m332 20 c0 -13 3 -34 7
-48 6 -23 5 -24 -12 -10 -10 8 -21 13 -24 10 -8 -7 -14 38 -7 56 9 23 36 17
36 -8z m-327 -95 c11 -19 19 -173 9 -173 -6 0 -12 12 -14 28 -2 18 -10 28 -23
30 -18 2 -20 9 -17 62 3 51 7 60 22 60 10 0 21 -3 23 -7z"/>
<path d="M2178 3283 c7 -3 16 -2 19 1 4 3 -2 6 -13 5 -11 0 -14 -3 -6 -6z"/>
<path d="M2330 3019 c0 -5 5 -7 10 -4 6 3 10 8 10 11 0 2 -4 4 -10 4 -5 0 -10
-5 -10 -11z"/>
<path d="M1814 2776 c-9 -38 33 -106 66 -106 9 0 29 13 44 29 21 22 27 36 24
62 l-3 34 -62 2 c-59 2 -63 1 -69 -21z"/>
<path d="M1973 2708 c2 -7 8 -12 13 -11 5 1 10 -21 11 -48 1 -47 -9 -64 -21
-36 -5 10 -7 10 -12 0 -9 -20 -34 -15 -34 7 0 11 -7 20 -15 20 -13 0 -15 -40
-15 -296 0 -278 1 -296 18 -289 63 27 128 35 298 35 99 0 183 3 187 6 3 4 -1
14 -10 23 -12 11 -17 13 -21 3 -2 -6 -8 -12 -14 -12 -7 0 -8 15 -4 40 4 25 2
40 -4 40 -5 0 -10 4 -10 8 0 5 18 9 40 9 22 0 40 -4 40 -9 0 -4 -4 -8 -9 -8
-5 0 -4 -18 1 -40 10 -37 12 -39 24 -23 10 14 13 81 14 306 l0 287 -241 0
c-188 0 -240 -3 -236 -12z m223 -60 c0 -45 -9 -63 -19 -35 -4 10 -7 10 -18 0
-21 -21 -25 -15 -25 35 1 45 2 47 31 47 29 0 30 -2 31 -47z m224 40 c0 -4 -4
-8 -9 -8 -6 0 -6 -12 0 -32 5 -18 9 -36 9 -40 0 -13 -28 -9 -34 5 -5 10 -7 10
-12 0 -13 -29 -26 -12 -20 27 4 25 2 40 -4 40 -5 0 -10 4 -10 8 0 5 18 9 40 9
22 0 40 -4 40 -9z m-112 -280 l2 -178 -135 0 -135 0 0 180 0 181 133 -3 132
-3 3 -177z m-311 5 c1 -29 -3 -53 -8 -53 -5 0 -9 7 -9 15 0 8 -4 15 -10 15 -5
0 -10 -7 -10 -15 0 -8 -6 -15 -14 -15 -10 0 -13 14 -12 53 1 51 2 52 31 53 31
0 31 0 32 -53z m423 46 c0 -4 -4 -10 -10 -14 -6 -4 -6 -15 1 -32 11 -29 6 -53
-11 -53 -5 0 -10 7 -10 15 0 8 -4 15 -10 15 -5 0 -10 -7 -10 -15 0 -8 -5 -15
-11 -15 -8 0 -10 14 -6 40 3 22 1 43 -4 46 -20 12 -7 21 31 21 22 0 40 -4 40
-8z m-423 -301 c1 -46 -9 -62 -21 -35 -5 10 -7 10 -12 0 -3 -7 -11 -13 -18
-13 -8 0 -12 16 -12 48 1 46 2 47 31 48 29 0 30 -1 32 -48z"/>
<path d="M2142 2523 c3 -34 6 -38 33 -41 23 -2 27 0 15 8 -13 9 -13 11 0 20
13 9 13 11 0 20 -13 9 -13 11 0 20 11 7 7 10 -18 10 -32 0 -33 -1 -30 -37z
m32 12 c6 -18 -2 -45 -15 -45 -13 0 -11 17 4 24 10 5 10 7 0 12 -15 7 -17 24
-4 24 5 0 11 -7 15 -15z"/>
<path d="M2062 2413 c3 -34 6 -38 32 -41 26 -3 27 -2 15 12 -28 31 -39 45 -39
52 0 3 6 2 13 -4 8 -7 16 -6 25 4 11 12 8 14 -18 14 -30 0 -31 -2 -28 -37z
m23 -23 c3 -5 1 -10 -4 -10 -6 0 -11 5 -11 10 0 6 2 10 4 10 3 0 8 -4 11 -10z"/>
<path d="M2142 2413 c3 -34 6 -38 33 -41 23 -2 27 0 15 8 -13 9 -13 11 0 20
13 9 13 11 0 20 -13 9 -13 11 0 20 11 7 7 10 -18 10 -32 0 -33 -1 -30 -37z
m32 12 c6 -18 -2 -45 -15 -45 -13 0 -11 17 4 24 10 5 10 7 0 12 -15 7 -17 24
-4 24 5 0 11 -7 15 -15z"/>
<path d="M2240 2440 c13 -9 13 -11 0 -20 -13 -9 -13 -11 0 -20 13 -9 13 -11 0
-20 -12 -8 -8 -10 15 -8 27 3 30 7 33 41 3 36 2 37 -30 37 -25 0 -29 -3 -18
-10z m40 -9 c0 -5 -6 -12 -12 -15 -10 -5 -10 -7 0 -12 14 -7 16 -24 3 -24 -13
0 -21 27 -15 45 7 16 24 21 24 6z"/>
<path d="M2100 2411 c0 -6 5 -13 10 -16 6 -3 10 1 10 9 0 9 -4 16 -10 16 -5 0
-10 -4 -10 -9z"/>
<path d="M2142 2303 c3 -34 6 -38 33 -41 23 -2 27 0 15 8 -13 9 -13 11 0 20
13 9 13 11 0 20 -13 9 -13 11 0 20 11 7 7 10 -18 10 -32 0 -33 -1 -30 -37z
m32 12 c6 -18 -2 -45 -15 -45 -13 0 -11 17 4 24 10 5 10 7 0 12 -15 7 -17 24
-4 24 5 0 11 -7 15 -15z"/>
<path d="M1445 2622 c22 -24 26 -35 17 -44 -9 -9 -16 -7 -31 6 -28 25 -53 14
-45 -19 3 -14 3 -33 -1 -42 -4 -10 -7 -35 -6 -56 2 -21 -3 -44 -9 -52 -7 -8
-9 -22 -6 -31 3 -9 3 -52 0 -95 -6 -74 -8 -79 -30 -79 -21 0 -24 -5 -24 -34 0
-21 9 -42 25 -60 l24 -26 189 0 c180 0 223 -5 295 -35 15 -6 17 1 17 74 l0 81
-29 0 c-28 0 -30 2 -34 48 l-3 47 -2 -52 c-2 -58 -19 -72 -24 -20 -2 23 -8 32
-20 31 -15 -2 -18 7 -18 57 0 56 1 59 25 59 22 0 25 -5 26 -37 l2 -38 7 45 c4
25 4 52 -1 61 -4 9 -10 54 -12 100 -4 89 -14 104 -47 74 -18 -17 -20 -17 -26
-1 -4 11 2 27 17 44 l24 27 -30 -25 c-16 -14 -32 -26 -34 -27 -10 -6 20 -53
34 -53 12 0 14 -4 5 -19 -5 -11 -10 -42 -10 -70 0 -27 -4 -52 -8 -55 -5 -3 -7
-19 -4 -36 2 -16 1 -59 -3 -95 l-7 -65 -38 0 -39 0 5 38 c11 81 22 148 29 170
8 25 -6 30 -25 7 -14 -17 -70 -21 -70 -5 0 6 9 10 21 10 15 0 19 5 15 16 -3 8
-2 12 4 9 6 -3 10 1 10 9 0 9 5 16 11 16 5 0 8 4 4 9 -3 6 2 14 11 19 15 8 15
10 0 15 -10 4 -20 -1 -27 -16 l-12 -21 -9 23 c-9 26 7 55 27 47 6 -2 12 2 12
10 0 8 -10 14 -24 14 -17 0 -22 4 -17 13 4 6 4 9 -1 5 -4 -4 -9 -21 -10 -38
-2 -17 -9 -39 -17 -48 -23 -28 -39 -108 -28 -137 6 -15 7 -37 4 -51 -3 -13 -1
-31 6 -39 7 -9 9 -26 5 -45 -5 -25 -12 -30 -35 -30 -26 0 -28 3 -33 53 -4 28
-9 97 -13 152 -3 55 -11 108 -16 118 -6 12 -5 17 6 17 9 0 20 10 27 21 10 19
7 26 -22 53 l-34 31 30 -33z m-7 -174 c3 -30 0 -36 -15 -34 -19 3 -32 36 -14
36 6 0 11 5 11 11 0 5 -4 7 -10 4 -5 -3 -10 1 -10 10 0 10 7 15 18 13 12 -2
18 -14 20 -40z m334 4 c3 -33 1 -38 -17 -37 -15 1 -21 10 -23 38 -3 31 0 37
16 37 16 0 21 -8 24 -38z m-329 -79 c11 -20 18 -173 8 -173 -6 0 -11 11 -11
24 0 26 -24 51 -40 41 -5 -3 -10 2 -10 14 0 28 11 52 21 45 5 -3 9 0 9 5 0 6
-4 11 -10 11 -5 0 -10 9 -10 20 0 20 33 29 43 13z"/>
<path d="M1740 2460 c0 -5 5 -10 11 -10 5 0 7 5 4 10 -3 6 -8 10 -11 10 -2 0
-4 -4 -4 -10z"/>
<path d="M1740 2329 c0 -5 5 -7 10 -4 6 3 10 8 10 11 0 2 -4 4 -10 4 -5 0 -10
-5 -10 -11z"/>
<path d="M1030 3020 c0 -5 5 -10 10 -10 6 0 10 5 10 10 0 6 -4 10 -10 10 -5 0
-10 -4 -10 -10z"/>
<path d="M2700 3020 c0 -5 7 -10 15 -10 8 0 15 5 15 10 0 6 -7 10 -15 10 -8 0
-15 -4 -15 -10z"/>
<path d="M1030 2350 c0 -5 5 -10 10 -10 6 0 10 5 10 10 0 6 -4 10 -10 10 -5 0
-10 -4 -10 -10z"/>
<path d="M2700 2350 c0 -5 7 -10 15 -10 8 0 15 5 15 10 0 6 -7 10 -15 10 -8 0
-15 -4 -15 -10z"/>
<path d="M1286 1831 c-4 -5 -2 -12 3 -15 5 -4 12 -2 15 3 4 5 2 12 -3 15 -5 4
-12 2 -15 -3z"/>
<path d="M2430 1825 c0 -8 5 -15 10 -15 6 0 10 7 10 15 0 8 -4 15 -10 15 -5 0
-10 -7 -10 -15z"/>
<path d="M2772 1206 c-42 -100 -42 -96 3 -113 70 -25 134 4 150 68 13 51 -49
119 -108 119 -8 0 -27 -30 -45 -74z"/>
<path d="M1230 4853 c8 -4 30 -17 48 -31 18 -14 35 -22 38 -20 9 10 -57 58
-79 57 -15 0 -17 -2 -7 -6z"/>
<path d="M983 4719 c-6 -6 -26 -15 -45 -19 -32 -8 -32 -8 -5 -9 26 -1 87 23
87 34 0 9 -26 5 -37 -6z"/>
<path d="M1070 4617 c14 -8 35 -19 48 -26 12 -6 22 -9 22 -6 0 9 -64 45 -80
45 -8 0 -4 -6 10 -13z"/>
<path d="M612 3075 c-226 -242 -371 -522 -444 -857 -20 -90 -22 -132 -22 -338
0 -207 2 -247 22 -340 100 -457 367 -858 736 -1104 119 -79 154 -94 278 -120
215 -47 367 -51 498 -16 75 20 50 37 -95 64 -207 39 -423 129 -587 246 -352
251 -579 689 -642 1240 -54 466 34 863 268 1205 35 52 63 95 61 95 -2 0 -35
-34 -73 -75z"/>
<path d="M3157 3040 c69 -105 143 -256 181 -373 24 -75 34 -91 64 -112 20 -13
38 -21 42 -18 3 3 8 -2 12 -11 9 -24 -10 -41 -27 -24 -8 7 -23 20 -33 28 -18
14 -19 13 -12 -34 8 -54 29 -78 84 -96 17 -7 32 -17 32 -25 0 -25 -25 -22 -60
6 -18 16 -35 27 -37 25 -2 -2 -1 -26 3 -54 6 -45 11 -54 45 -76 21 -15 45 -26
54 -26 17 0 21 -25 5 -35 -6 -4 -28 7 -49 24 -21 17 -41 31 -44 31 -8 0 5 -94
15 -107 5 -7 30 -22 54 -33 24 -12 44 -28 44 -36 0 -17 -36 -19 -43 -1 -3 6
-18 20 -34 29 l-30 17 -7 -125 c-30 -536 -197 -966 -490 -1260 -223 -222 -477
-344 -848 -408 -40 -7 -52 -31 -20 -40 124 -38 282 -37 483 4 107 22 169 39
208 61 167 89 399 294 520 459 165 223 263 441 322 720 20 90 23 137 23 320 1
219 -4 268 -46 440 -62 256 -223 552 -412 755 l-56 60 57 -85z"/>
<path d="M1777 373 c-47 -19 -47 -50 -2 -72 43 -22 171 -20 213 3 102 54 -94
118 -211 69z"/>
<path d="M1190 279 c150 -69 391 -127 568 -136 l112 -6 0 61 0 60 -42 7 c-24
4 -51 12 -61 17 -13 7 -53 3 -130 -13 -129 -25 -229 -22 -386 11 -115 25 -117
25 -61 -1z"/>
<path d="M2500 278 c-117 -27 -320 -29 -409 -5 -60 17 -66 17 -132 0 l-69 -17
0 -60 0 -59 113 6 c176 9 382 57 545 127 78 34 69 35 -48 8z"/>
</g>
</svg>
