<?xml version="1.0" standalone="no"?>
<!DOCTYPE svg PUBLIC "-//W3C//DTD SVG 20010904//EN"
 "http://www.w3.org/TR/2001/REC-SVG-20010904/DTD/svg10.dtd">
<svg version="1.0" xmlns="http://www.w3.org/2000/svg"
 width="3500.000000pt" height="3500.000000pt" viewBox="0 0 3500.000000 3500.000000"
 preserveAspectRatio="xMidYMid meet">

<g transform="translate(0.000000,3500.000000) scale(0.100000,-0.100000)"
fill="#000000" stroke="none">
<path d="M16903 34989 c-2023 -69 -4018 -488 -5888 -1237 -3159 -1264 -5914
-3455 -7867 -6252 -847 -1215 -1538 -2530 -2053 -3910 -1038 -2782 -1345
-5807 -889 -8765 404 -2625 1410 -5130 2942 -7325 802 -1147 1774 -2232 2834
-3161 3572 -3131 8213 -4663 12958 -4279 1723 140 3433 543 5050 1190 456 182
818 346 1320 597 2152 1075 4058 2583 5611 4438 2995 3579 4430 8168 4004
12810 -236 2564 -1032 5036 -2333 7245 -1733 2942 -4266 5309 -7302 6823 -769
384 -1423 656 -2215 923 -1987 670 -4075 975 -6172 903z m1427 -728 c988 -56
1838 -168 2710 -357 2699 -585 5192 -1816 7305 -3609 573 -486 1186 -1085
1690 -1652 2162 -2429 3569 -5419 4054 -8613 202 -1327 243 -2727 121 -4050
-228 -2452 -960 -4749 -2192 -6880 -1031 -1783 -2428 -3405 -4048 -4701 -2525
-2021 -5521 -3253 -8725 -3588 -599 -63 -1051 -85 -1735 -86 -586 0 -816 8
-1305 46 -3520 270 -6843 1639 -9550 3934 -661 560 -1390 1289 -1950 1950
-2296 2708 -3663 6027 -3934 9550 -38 490 -45 702 -45 1295 0 593 7 805 45
1295 207 2697 1056 5280 2487 7570 1656 2651 4023 4796 6817 6179 1932 957
3980 1520 6130 1685 223 17 375 26 805 45 151 7 1140 -3 1320 -13z"/>
<path d="M17255 33923 c-2746 -33 -5487 -782 -7880 -2153 -2680 -1535 -4874
-3785 -6337 -6500 -1714 -3178 -2325 -6855 -1737 -10440 210 -1282 584 -2567
1089 -3745 276 -645 604 -1294 952 -1885 1259 -2138 2974 -3956 5043 -5345
3225 -2165 7112 -3108 10990 -2664 2500 285 4888 1141 7010 2512 2332 1506
4265 3598 5577 6037 1507 2801 2160 5940 1897 9130 -351 4263 -2369 8225
-5629 11051 -2616 2267 -5878 3649 -9310 3944 -493 42 -1138 65 -1665 58z
m855 -763 c1654 -68 3227 -376 4755 -932 2846 -1036 5344 -2891 7175 -5328
2258 -3006 3350 -6703 3095 -10475 -281 -4133 -2186 -7979 -5310 -10715 -2069
-1813 -4562 -3046 -7245 -3584 -1401 -280 -2858 -369 -4285 -261 -2973 226
-5788 1283 -8180 3070 -1445 1080 -2687 2393 -3692 3900 -365 548 -661 1062
-977 1695 -364 731 -654 1442 -892 2190 -1089 3416 -978 7117 313 10445 1412
3638 4161 6644 7663 8379 1976 980 4086 1519 6315 1615 270 12 987 12 1265 1z"/>
<path d="M17838 32050 c-120 -3 -220 -8 -222 -11 -2 -2 1 -243 9 -534 7 -292
11 -532 9 -534 -6 -7 -1083 -36 -1089 -29 -2 2 -11 244 -20 538 -9 294 -18
536 -19 536 -3 3 -580 -17 -583 -20 -4 -4 65 -2707 69 -2710 6 -4 582 15 587
20 3 2 -3 246 -12 541 -9 296 -15 538 -14 539 1 0 247 9 546 18 387 12 547 13
551 6 4 -6 10 -170 14 -363 3 -194 9 -435 13 -536 l6 -183 291 7 c160 4 294
10 297 14 3 3 -9 582 -27 1286 -18 704 -33 1313 -33 1353 l-1 72 -77 -2 c-43
-1 -176 -4 -295 -8z"/>
<path d="M19667 31858 c-20 -80 -567 -2622 -565 -2624 10 -8 2014 -442 2019
-436 9 10 112 503 106 508 -3 3 -326 75 -718 161 -393 86 -715 157 -717 158
-4 3 114 544 120 550 3 3 227 -42 498 -100 278 -59 497 -102 502 -97 19 19
277 467 270 469 -4 1 -263 59 -576 127 -313 69 -571 127 -573 129 -4 5 103
526 109 533 3 2 322 -65 709 -149 387 -84 706 -149 707 -144 2 4 30 118 61
253 39 163 54 247 47 250 -6 2 -447 99 -980 214 -532 116 -978 213 -991 216
-18 4 -24 1 -28 -18z"/>
<path d="M13955 31640 c-188 -22 -423 -89 -579 -166 -146 -72 -253 -149 -372
-268 -188 -187 -294 -376 -362 -646 -24 -97 -26 -122 -27 -315 0 -233 9 -294
71 -486 134 -417 459 -747 867 -883 152 -50 228 -61 427 -61 210 0 280 11 472
75 333 111 561 281 745 555 47 71 117 195 112 199 -12 9 -457 256 -462 256 -3
0 -34 -42 -69 -92 -81 -120 -213 -252 -304 -307 -91 -53 -236 -105 -339 -121
-180 -28 -382 21 -542 131 -172 119 -306 329 -354 557 -28 131 -23 341 11 447
72 225 206 384 405 480 112 54 192 74 317 82 153 9 313 -24 483 -101 l71 -33
122 260 c67 143 119 264 116 269 -8 12 -123 64 -222 98 -174 62 -410 90 -587
70z"/>
<path d="M23024 30765 c-92 -16 -134 -30 -214 -70 -151 -76 -261 -187 -335
-340 -65 -135 -87 -214 -92 -335 -6 -129 6 -193 56 -297 78 -159 197 -289 507
-550 327 -276 387 -366 339 -504 -62 -174 -239 -204 -492 -83 -216 104 -414
307 -539 557 -27 53 -39 67 -52 62 -9 -3 -120 -56 -248 -118 l-232 -111 40
-81 c122 -243 319 -475 548 -646 178 -133 321 -205 505 -255 91 -25 116 -28
275 -28 157 -1 183 1 250 22 219 69 377 207 475 417 118 251 125 439 21 639
-84 164 -197 289 -471 521 -205 174 -322 291 -354 352 -42 84 -19 207 50 267
100 85 255 72 448 -36 111 -63 286 -239 381 -384 l72 -112 234 140 233 140
-24 47 c-80 159 -264 376 -415 491 -315 239 -673 348 -966 295z"/>
<path d="M10831 30446 c-128 -79 -237 -148 -241 -153 -4 -4 185 -325 420 -713
235 -388 426 -707 424 -708 -1 -2 -439 168 -973 378 -534 210 -975 380 -980
378 -4 -2 -110 -64 -234 -138 -152 -91 -225 -139 -222 -149 4 -10 1358 -2245
1393 -2299 7 -10 71 25 260 140 235 143 250 154 238 173 -125 201 -877 1447
-874 1450 2 2 454 -174 1005 -391 l1002 -394 208 126 c114 69 212 130 216 134
10 9 -1381 2310 -1397 2310 -6 -1 -116 -66 -245 -144z"/>
<path d="M25298 29668 c-268 -346 -271 -349 -251 -363 102 -74 627 -483 630
-490 2 -6 -291 -395 -651 -864 l-655 -855 237 -178 237 -178 20 23 c11 12 305
397 653 855 349 457 637 832 640 832 4 0 153 -113 331 -249 l325 -249 165 220
c161 214 164 220 145 237 -14 14 -1516 1158 -1731 1318 l-31 24 -64 -83z"/>
<path d="M16905 28259 c-1783 -99 -3513 -641 -5035 -1577 -374 -230 -797 -529
-1111 -783 l-95 -78 -230 -36 c-393 -61 -937 -158 -1016 -181 -10 -3 -22 -22
-28 -42 -41 -148 -180 -826 -244 -1193 -16 -91 -20 -98 -73 -165 -196 -243
-471 -631 -656 -920 -929 -1458 -1494 -3121 -1642 -4834 -39 -456 -50 -1097
-26 -1515 124 -2150 833 -4115 2109 -5845 444 -601 1041 -1243 1622 -1744
1550 -1334 3426 -2195 5440 -2495 175 -26 210 -35 340 -84 287 -109 791 -274
1093 -358 l119 -33 71 18 c222 57 806 246 1142 368 108 40 177 59 245 67 52 7
190 28 307 46 1838 296 3609 1094 5058 2280 403 329 970 875 1284 1235 1511
1732 2416 3805 2640 6050 40 400 46 535 46 1080 0 544 -5 651 -46 1070 -140
1430 -585 2850 -1291 4124 -282 508 -624 1019 -998 1491 l-127 160 -18 100
c-51 293 -144 748 -206 1007 l-31 127 -66 15 c-166 37 -596 113 -1063 187 -60
9 -73 16 -160 86 -1716 1374 -3730 2178 -5894 2353 -373 30 -1089 39 -1460 19z
m1260 -609 c1654 -121 3158 -589 4525 -1408 186 -111 423 -263 418 -267 -2 -2
-124 10 -273 26 -1229 129 -2229 194 -3660 240 -533 16 -2242 23 -2865 10
-1491 -30 -2624 -94 -3855 -217 -247 -24 -475 -47 -505 -50 l-55 -6 80 54
c121 83 375 237 552 336 1245 699 2578 1117 3998 1256 129 13 229 20 570 40
122 7 925 -3 1070 -14z m305 -2020 c1446 -34 2792 -126 4070 -276 707 -83
1482 -197 1997 -295 l162 -31 10 -32 c80 -250 284 -1223 390 -1861 439 -2639
508 -5336 201 -7801 -49 -394 -104 -677 -201 -1031 -324 -1195 -931 -2365
-1768 -3411 -1313 -1640 -3137 -2910 -5381 -3745 -272 -101 -470 -168 -480
-162 -5 3 -11 1 -14 -3 -9 -15 -545 178 -921 331 -922 376 -1794 842 -2545
1360 -1096 755 -2004 1638 -2738 2662 -834 1164 -1417 2525 -1606 3755 -68
443 -145 1264 -181 1945 -114 2152 47 4519 455 6655 96 503 280 1313 303 1336
9 10 628 119 957 168 1650 250 3427 396 5345 439 321 8 1594 6 1945 -3z m7687
-2800 c1441 -2321 1877 -5161 1203 -7825 -714 -2820 -2618 -5208 -5225 -6555
-261 -135 -640 -308 -875 -400 -69 -27 -66 -24 115 100 1071 736 1997 1641
2740 2675 977 1360 1674 3013 1899 4505 61 401 140 1251 180 1925 111 1858 57
3674 -164 5552 -17 139 -30 256 -30 260 0 11 52 -68 157 -237z m-17242 -60
c-256 -2148 -284 -4370 -85 -6520 33 -346 79 -752 106 -930 170 -1111 608
-2341 1222 -3430 776 -1378 1785 -2527 3047 -3470 116 -87 267 -197 338 -245
70 -48 126 -90 124 -92 -11 -10 -569 245 -817 374 -1221 635 -2291 1495 -3164
2543 -1305 1566 -2103 3464 -2305 5480 -38 378 -46 548 -46 1020 0 471 8 641
46 1020 151 1518 646 2984 1446 4284 59 96 108 174 110 173 1 -2 -9 -95 -22
-207z"/>
<path d="M17420 15633 c-66 -24 -88 -46 -246 -245 -91 -116 -172 -226 -180
-244 -8 -18 -14 -50 -14 -71 l0 -38 -93 0 c-159 -1 -319 -65 -430 -173 -32
-31 -104 -118 -159 -192 -120 -160 -232 -274 -350 -353 -112 -75 -203 -116
-373 -168 -160 -48 -225 -78 -311 -143 -99 -74 -181 -195 -220 -327 l-17 -57
-35 10 c-49 14 -77 7 -349 -83 -233 -77 -243 -82 -282 -124 -76 -82 -76 -164
-1 -278 94 -145 233 -343 262 -373 16 -18 48 -40 69 -50 29 -13 38 -22 33 -33
-39 -93 -48 -141 -48 -266 -1 -116 2 -139 27 -217 28 -86 60 -138 224 -363 63
-86 116 -190 154 -304 47 -138 59 -230 59 -458 0 -193 1 -209 26 -281 14 -42
42 -106 62 -142 35 -63 133 -171 200 -221 31 -22 33 -26 23 -52 -7 -18 -11
-132 -11 -306 0 -272 1 -279 23 -322 31 -58 99 -101 170 -107 74 -6 535 125
587 167 l35 28 45 -35 c53 -41 186 -105 252 -121 80 -19 191 -24 259 -12 35 6
143 35 239 65 204 63 290 78 449 78 161 0 283 -25 521 -107 200 -69 435 -30
604 100 32 24 54 35 61 29 7 -5 24 -17 38 -27 15 -11 136 -53 269 -94 219 -68
250 -75 309 -71 84 5 137 37 169 103 22 45 23 58 24 328 0 155 -2 291 -6 302
-7 17 4 29 62 73 76 59 150 148 186 228 51 108 65 194 74 449 9 249 20 326 66
463 39 117 88 203 198 349 166 221 202 313 193 503 -3 80 -11 125 -33 189 -19
57 -24 86 -17 88 41 14 102 84 243 278 157 216 160 221 160 271 0 62 -31 125
-81 166 -23 18 -117 57 -279 113 -205 72 -253 86 -292 82 l-47 -4 -16 51 c-50
152 -163 293 -300 374 -38 22 -144 66 -235 97 -378 130 -511 223 -725 510 -62
83 -140 176 -173 208 -105 99 -274 160 -430 155 l-84 -2 -4 47 c-2 25 -12 64
-23 84 -30 59 -283 394 -324 430 -50 44 -135 65 -187 46z m185 -3067 c134 -62
186 -213 119 -343 -35 -68 -100 -117 -178 -133 -163 -34 -316 88 -316 250 0
62 27 129 68 174 71 75 208 99 307 52z"/>
<path d="M7050 27579 c-102 -110 -184 -204 -183 -209 4 -14 1176 -2694 1181
-2700 4 -5 32 24 288 296 l131 139 -133 290 c-73 160 -133 296 -134 303 0 10
445 491 708 765 l75 78 296 -115 c163 -63 301 -116 308 -118 6 -2 107 98 223
221 201 212 211 225 189 233 -22 8 -825 304 -2248 828 -272 100 -499 183 -505
185 -6 2 -94 -86 -196 -196z m1015 -689 c204 -78 375 -145 382 -149 7 -4 -85
-107 -234 -264 -135 -142 -249 -255 -253 -250 -5 7 -285 617 -366 800 l-24 53
63 -24 c34 -13 229 -87 432 -166z"/>
<path d="M26929 26714 c-569 -476 -1033 -871 -1033 -878 1 -9 1226 -1474 1308
-1564 9 -9 54 24 206 153 107 91 196 169 198 174 1 4 -207 259 -463 567 -256
307 -465 560 -464 564 0 7 415 354 428 358 5 2 158 -175 340 -392 l331 -394
258 85 c141 47 261 89 265 93 5 4 -168 220 -383 479 -215 259 -390 476 -388
481 2 5 95 86 207 179 l203 169 107 -126 c58 -70 268 -319 465 -555 314 -374
360 -426 375 -415 92 73 386 323 386 329 0 7 -1291 1545 -1304 1554 -4 2 -473
-385 -1042 -861z"/>
<path d="M5337 25418 c-123 -229 -247 -467 -247 -475 0 -5 152 -270 339 -589
186 -318 338 -580 337 -581 -2 -2 -260 -21 -956 -69 -212 -14 -388 -29 -392
-33 -9 -8 -299 -564 -296 -566 7 -6 2384 -1256 2391 -1258 8 -2 282 512 276
517 -2 2 -349 185 -771 407 -422 222 -764 407 -760 410 4 3 308 36 676 72 368
36 671 69 674 71 3 4 -505 928 -666 1210 -3 5 69 -30 159 -77 90 -47 444 -231
786 -410 l623 -325 49 92 c104 195 223 427 220 430 -8 6 -2364 1245 -2380
1251 -13 5 -27 -13 -62 -77z"/>
<path d="M28753 24352 l-1221 -606 130 -261 c72 -143 132 -262 133 -263 2 -2
178 84 391 192 213 108 388 195 389 193 1 -1 50 -95 108 -208 l106 -207 -256
-458 -257 -458 148 -293 c82 -161 154 -300 160 -308 9 -12 68 87 295 494 l284
509 66 -55 c81 -67 260 -156 358 -177 92 -20 242 -20 341 0 162 33 353 127
485 238 107 89 204 243 244 386 13 50 17 100 17 220 -1 135 -4 168 -28 254
-40 149 -71 217 -383 840 l-288 574 -1222 -606z m1165 -489 c167 -338 187
-397 179 -518 -8 -136 -85 -237 -226 -296 -64 -28 -89 -33 -156 -33 -67 -1
-90 3 -137 26 -80 37 -121 70 -174 142 -51 67 -341 638 -328 643 5 2 158 80
339 172 182 93 335 169 340 170 6 0 79 -137 163 -306z"/>
<path d="M14205 5873 c-583 -50 -1052 -410 -1230 -946 -60 -182 -70 -248 -70
-482 0 -168 4 -227 19 -295 104 -477 417 -855 854 -1030 397 -159 863 -145
1227 37 129 65 224 134 342 248 l104 100 -193 193 c-105 105 -194 192 -196
192 -1 0 -34 -27 -72 -59 -191 -165 -367 -242 -585 -257 -269 -19 -511 86
-675 292 -262 329 -259 846 6 1168 168 203 422 304 696 275 202 -21 360 -90
540 -236 l77 -63 192 222 193 221 -58 51 c-206 180 -423 291 -671 340 -148 29
-356 42 -500 29z"/>
<path d="M16040 4460 l0 -1380 300 0 300 0 0 1380 0 1380 -300 0 -300 0 0
-1380z"/>
<path d="M17220 5555 l0 -285 420 0 420 0 0 -1100 0 -1100 305 0 305 0 0 1100
0 1100 420 0 420 0 -2 283 -3 282 -1142 3 -1143 2 0 -285z"/>
<path d="M19770 5834 c0 -3 236 -379 525 -835 l525 -830 0 -545 0 -544 305 0
305 0 0 549 0 550 525 821 c289 452 525 826 525 831 0 5 -138 9 -339 9 l-340
0 -333 -555 c-205 -341 -336 -551 -342 -545 -5 5 -154 253 -331 552 l-322 543
-351 3 c-194 1 -352 0 -352 -4z"/>
</g>
</svg>
