<svg height="512" viewBox="0 0 128 128" width="512" xmlns="http://www.w3.org/2000/svg"><g><g><path d="m116.242 92.469h-104.484l-10.008-18.097 30.024-18.091h64.452l30.024 18.094z" fill="#73c3f9"/><path d="m96.226 56.281v-.8a32.226 32.226 0 0 0 -32.226-32.231 32.226 32.226 0 0 0 -32.226 32.226v.8z" fill="#fcf9f0"/><path d="m84.234 48.032a1.749 1.749 0 0 1 -1.592-1.024 20.55 20.55 0 0 0 -18.642-12.008 1.75 1.75 0 0 1 0-3.5 24.055 24.055 0 0 1 21.825 14.055 1.752 1.752 0 0 1 -1.591 2.477z" fill="#efe1cb"/><g fill="#ffc839"><circle cx="64" cy="74.372" r="8"/><circle cx="89.95" cy="74.372" r="5.497"/><circle cx="38.05" cy="74.372" r="5.497"/></g><path d="m94.554 104.75h-61.109l-10.008-12.281h81.125z" fill="#2d3c6b"/></g><g><path d="m60.031 90.719h-5.856a1.75 1.75 0 0 0 0 3.5h5.856a1.75 1.75 0 1 0 0-3.5z"/><path d="m127.153 72.876-29.184-17.588a33.881 33.881 0 0 0 -21-31.223 1.75 1.75 0 1 0 -1.335 3.235 30.391 30.391 0 0 1 18.827 27.231h-60.922a30.512 30.512 0 0 1 30.461-29.531 1.75 1.75 0 0 0 0-3.5 34.012 34.012 0 0 0 -33.971 33.79l-29.182 17.583a1.75 1.75 0 0 0 -.628 2.346l10.008 18.1a1.747 1.747 0 0 0 1.531.9h10.848l9.483 11.636a1.748 1.748 0 0 0 1.356.645h61.11a1.748 1.748 0 0 0 1.356-.645l9.483-11.636h10.848a1.748 1.748 0 0 0 1.531-.9l10.008-18.094a1.75 1.75 0 0 0 -.628-2.349zm-11.943 17.843h-39.054a1.75 1.75 0 0 0 0 3.5h24.723l-7.155 8.781h-59.448l-7.155-8.781h10.929a1.75 1.75 0 1 0 0-3.5h-25.26l-8.69-15.719 28.163-16.97h63.476l28.161 16.97z"/><path d="m62.25 33.25a1.75 1.75 0 0 0 1.75 1.75 20.55 20.55 0 0 1 18.642 12.008 1.749 1.749 0 1 0 3.183-1.453 24.055 24.055 0 0 0 -21.825-14.055 1.75 1.75 0 0 0 -1.75 1.75z"/><path d="m64 64.622a9.75 9.75 0 1 0 9.75 9.75 9.761 9.761 0 0 0 -9.75-9.75zm0 16a6.25 6.25 0 1 1 6.25-6.25 6.257 6.257 0 0 1 -6.25 6.25z"/><path d="m89.95 67.125a7.247 7.247 0 1 0 7.25 7.247 7.255 7.255 0 0 0 -7.25-7.247zm0 10.994a3.747 3.747 0 1 1 3.75-3.747 3.751 3.751 0 0 1 -3.75 3.747z"/><path d="m38.05 67.125a7.247 7.247 0 1 0 7.25 7.247 7.255 7.255 0 0 0 -7.25-7.247zm0 10.994a3.747 3.747 0 1 1 3.75-3.747 3.751 3.751 0 0 1 -3.75 3.747z"/></g></g></svg>