<?xml version="1.0" standalone="no"?>
<!DOCTYPE svg PUBLIC "-//W3C//DTD SVG 20010904//EN"
 "http://www.w3.org/TR/2001/REC-SVG-20010904/DTD/svg10.dtd">
<svg version="1.0" xmlns="http://www.w3.org/2000/svg"
 width="548.000000pt" height="650.000000pt" viewBox="0 0 548.000000 650.000000"
 preserveAspectRatio="xMidYMid meet">

<g transform="translate(0.000000,650.000000) scale(0.100000,-0.100000)"
fill="#000000" stroke="none">
<path d="M2558 6432 c-47 -3 -48 -4 -48 -36 0 -31 -3 -34 -37 -40 -34 -5 -41
-2 -63 24 -22 26 -32 30 -74 30 -34 0 -47 -4 -43 -12 2 -7 19 -60 38 -117 36
-110 46 -121 110 -121 32 0 34 -4 42 -62 5 -32 2 -38 -16 -44 -58 -17 -74 -68
-34 -107 14 -14 21 -31 19 -48 -3 -30 -23 -39 -84 -39 -41 0 -58 -19 -58 -64
0 -16 -6 -26 -15 -26 -10 0 -15 10 -15 28 0 47 -9 52 -80 44 l-65 -7 3 -43 c5
-56 -22 -58 -44 -3 l-15 39 -64 -6 c-63 -5 -65 -4 -75 23 -8 22 -7 31 5 45 34
38 8 103 -41 105 -27 2 -29 5 -32 46 l-3 45 49 20 49 21 12 99 c6 54 14 111
17 125 5 26 5 26 -42 19 -45 -7 -74 -29 -74 -56 0 -15 -23 -24 -60 -24 -23 0
-30 5 -35 30 -6 26 -11 30 -38 30 -62 0 -77 -9 -77 -45 0 -25 -5 -34 -22 -39
-36 -9 -38 -8 -49 24 -11 31 -23 35 -78 24 -28 -6 -31 -10 -31 -44 0 -33 -3
-38 -27 -43 -29 -6 -53 13 -53 40 0 16 -22 16 -72 3 -35 -10 -37 -13 -35 -47
2 -33 -1 -37 -32 -45 -29 -8 -37 -6 -60 16 -25 24 -28 25 -71 12 -28 -9 -44
-19 -42 -27 2 -8 28 -55 57 -105 56 -95 67 -104 133 -104 29 0 35 -5 48 -37
15 -34 15 -38 -3 -50 -37 -25 -43 -34 -43 -64 0 -23 7 -34 30 -47 25 -14 30
-23 28 -46 -3 -26 -10 -32 -63 -51 l-59 -23 3 -41 c3 -50 -13 -54 -33 -7 l-14
35 -54 -20 c-29 -11 -58 -22 -65 -24 -9 -3 -9 -13 3 -40 13 -32 13 -36 -2 -42
-9 -3 -19 -2 -23 4 -3 5 -14 20 -23 32 l-17 24 -62 -23 -62 -24 -23 29 c-20
26 -21 31 -8 49 19 28 18 48 -7 75 -16 17 -29 22 -52 18 -24 -3 -36 2 -58 27
-16 17 -29 34 -29 37 0 3 21 21 48 39 26 18 49 35 50 36 5 4 -50 217 -58 227
-4 4 -26 1 -49 -9 -36 -14 -41 -20 -41 -49 0 -21 -6 -35 -16 -39 -25 -10 -30
-7 -42 19 l-11 24 -50 -22 c-48 -21 -50 -24 -45 -53 5 -26 2 -32 -22 -42 -23
-11 -30 -10 -49 8 l-22 21 -46 -22 c-42 -20 -45 -24 -36 -47 5 -14 8 -26 7
-27 -2 -1 -17 -10 -34 -18 -28 -15 -33 -14 -61 3 -31 18 -31 18 -89 -9 l-57
-27 120 -77 120 -77 59 8 c53 7 63 5 96 -16 31 -20 36 -28 28 -42 -28 -52 1
-103 56 -98 32 2 37 -2 104 -99 38 -56 70 -108 70 -117 0 -8 7 -19 14 -23 15
-8 180 -243 174 -247 -2 -2 -29 -13 -61 -26 -67 -26 -87 -50 -87 -103 0 -55
35 -87 93 -87 38 0 46 -3 50 -22 5 -16 -1 -30 -18 -48 -39 -40 -34 -92 10
-127 l35 -28 0 -1395 c0 -1528 -2 -1475 60 -1707 201 -753 758 -1262 1500
-1369 159 -23 441 -15 594 15 319 64 627 219 860 433 318 291 542 747 596
1213 6 57 10 584 10 1457 0 1360 0 1367 20 1373 27 9 53 61 45 92 -3 14 -16
34 -29 46 -18 17 -21 27 -15 45 7 18 16 22 48 22 51 0 90 32 97 81 8 45 -27
90 -86 109 -22 7 -43 17 -46 22 -6 9 152 239 172 251 8 4 14 17 14 27 0 10 30
61 66 112 56 80 70 93 94 93 57 1 81 46 57 105 -5 10 6 24 31 41 35 25 40 26
98 17 l61 -10 111 73 c61 41 112 77 112 80 0 4 -23 17 -52 29 -50 21 -53 22
-84 5 -29 -16 -34 -16 -63 0 -28 14 -31 20 -26 43 5 25 1 30 -38 49 l-44 21
-21 -20 c-18 -18 -24 -20 -49 -9 -25 10 -29 17 -25 41 4 25 -1 31 -37 49 -51
27 -55 26 -69 -4 -10 -22 -15 -24 -32 -15 -13 7 -20 21 -20 41 0 26 -6 33 -46
50 -25 12 -47 19 -48 17 -2 -1 -16 -54 -31 -117 l-28 -115 39 -33 c21 -18 42
-33 47 -33 14 0 6 -26 -19 -54 -17 -19 -31 -26 -45 -23 -55 15 -96 -43 -67
-94 15 -26 15 -29 -6 -48 l-22 -20 -58 21 -59 22 -28 -34 c-34 -40 -57 -32
-39 14 15 40 15 40 -42 60 -29 10 -58 21 -64 23 -7 2 -17 -12 -24 -31 -17 -53
-41 -48 -34 7 l6 42 -58 21 c-53 19 -59 24 -62 53 -2 17 1 31 7 31 20 0 51 40
51 64 0 16 -11 34 -31 49 -30 23 -30 25 -18 65 l12 42 56 0 56 0 58 99 c31 54
57 103 57 108 0 5 -20 14 -44 20 -41 9 -47 8 -70 -15 -22 -22 -29 -24 -58 -16
-29 8 -33 14 -36 47 -3 33 -7 37 -40 47 -53 14 -58 13 -72 -20 -11 -25 -16
-29 -39 -23 -35 8 -36 9 -33 47 3 31 1 34 -35 39 -64 11 -71 9 -78 -23 -7 -31
-14 -34 -52 -24 -18 5 -23 14 -23 40 0 30 -3 34 -34 39 -50 10 -69 3 -76 -25
-5 -20 -13 -26 -42 -28 -33 -3 -39 0 -54 30 -21 42 -31 48 -76 48 -30 0 -38
-4 -38 -17 1 -37 29 -215 35 -222 4 -3 25 -13 48 -22 41 -16 42 -18 42 -64 0
-46 -1 -48 -29 -50 -28 -1 -66 -35 -66 -60 0 -7 8 -23 19 -36 15 -19 17 -29 8
-52 l-10 -29 -64 6 -64 7 -16 -41 c-22 -56 -49 -52 -45 8 3 35 1 42 -15 42
-10 0 -42 3 -70 6 l-53 7 0 -29 c0 -16 -5 -36 -10 -44 -9 -13 -11 -13 -20 0
-5 8 -10 30 -10 48 0 30 -2 32 -34 32 -98 0 -129 34 -81 91 14 17 25 36 25 43
0 22 -29 54 -56 60 -25 7 -26 10 -20 48 9 55 8 54 65 62 l49 6 40 120 41 120
-53 0 c-47 0 -53 -3 -70 -31 -14 -24 -23 -29 -40 -25 -11 3 -29 6 -38 6 -14 0
-18 8 -18 35 0 34 -1 35 -39 35 -22 0 -46 3 -54 6 -10 4 -16 -5 -21 -30 -6
-33 -10 -36 -41 -36 -33 0 -35 2 -35 35 l0 35 -54 0 c-54 0 -55 0 -58 -32 -3
-30 -6 -33 -38 -33 -30 0 -35 4 -38 25 -5 33 -9 36 -64 32z m45 -52 c6 -28 9
-30 56 -30 48 0 49 1 55 35 6 32 10 35 41 35 33 0 35 -2 35 -35 l0 -35 55 0
c48 0 55 3 55 19 0 39 9 49 43 42 27 -6 33 -12 35 -38 3 -27 8 -31 40 -37 61
-10 70 -7 89 24 13 22 25 30 45 30 15 0 28 -4 28 -8 0 -4 -13 -46 -28 -92
l-29 -85 -59 -6 c-32 -4 -199 -7 -371 -8 l-311 -1 -31 93 c-17 50 -31 95 -31
100 0 4 13 7 29 7 21 0 36 -8 50 -29 19 -26 24 -28 68 -23 51 5 63 14 63 49 0
16 7 23 28 25 36 5 38 3 45 -32z m-636 -62 c-4 -18 -9 -62 -13 -96 -5 -52 -11
-65 -28 -73 -11 -5 -167 -38 -346 -74 -179 -36 -332 -68 -341 -71 -13 -3 -30
17 -68 83 l-50 88 27 12 c24 10 30 8 54 -14 26 -24 29 -25 78 -13 51 12 51 13
48 48 -2 27 2 37 17 43 34 13 42 10 55 -21 14 -34 17 -35 71 -18 35 10 39 15
39 44 0 52 55 63 71 14 12 -32 14 -33 71 -24 34 6 37 9 40 43 3 32 6 36 35 39
28 3 32 -1 42 -31 10 -30 15 -33 44 -30 62 8 76 13 82 33 9 29 33 50 57 50 17
0 19 -5 15 -32z m1634 -2 c13 -35 36 -46 99 -46 24 0 30 5 35 31 6 27 10 30
38 27 29 -3 32 -7 35 -39 3 -34 6 -37 40 -43 57 -9 59 -8 71 24 10 30 19 34
56 24 17 -4 20 -12 17 -38 -4 -32 -2 -34 42 -45 59 -15 55 -16 68 20 8 25 15
30 32 25 11 -3 27 -6 35 -6 10 0 12 -10 7 -39 l-6 -40 55 -12 c52 -12 57 -11
80 11 18 17 31 21 50 16 l26 -7 -32 -57 c-18 -31 -40 -71 -50 -88 l-19 -31
-342 68 c-189 38 -352 73 -364 78 -17 7 -22 21 -28 75 -4 37 -9 80 -13 96 -5
28 -4 30 25 30 26 0 33 -5 43 -34z m-670 -162 l75 -7 -4 -32 -4 -33 -91 -7
c-51 -3 -162 -5 -247 -3 l-155 3 -3 43 -3 42 179 0 c98 0 212 -3 253 -6z
m-1088 -106 c5 -36 5 -38 -31 -47 -34 -9 -428 -91 -438 -91 -6 0 -35 73 -30
77 3 4 490 102 492 99 1 0 4 -18 7 -38z m2087 -14 c124 -25 226 -47 227 -48 1
-1 -3 -19 -9 -39 -8 -26 -16 -36 -27 -33 -9 2 -116 23 -238 47 l-223 43 0 43
c0 40 2 43 23 39 12 -3 123 -26 247 -52z m-3182 -85 c12 -51 21 -94 18 -96 -8
-9 -439 -203 -450 -203 -5 0 -52 28 -104 62 l-95 62 29 13 c39 16 55 16 81 -2
19 -13 26 -13 68 6 44 19 47 23 41 50 -5 24 -1 31 23 43 25 14 29 13 49 -6 19
-20 23 -20 59 -7 33 13 38 19 41 50 2 28 9 39 30 48 22 11 28 10 39 -5 7 -9
14 -21 15 -26 2 -5 20 -2 41 7 31 13 37 20 37 45 0 27 20 49 45 50 6 0 21 -41
33 -91z m2230 84 c77 -6 83 -8 89 -31 12 -49 -5 -52 -315 -52 -176 0 -291 4
-303 10 -24 13 -25 56 -1 69 19 12 398 15 530 4z m1827 -5 c19 -9 25 -19 25
-44 0 -27 5 -34 32 -43 33 -12 49 -3 61 32 1 5 17 3 36 -7 28 -15 32 -21 26
-46 -6 -26 -2 -31 35 -50 l42 -21 24 22 c21 19 26 20 53 9 26 -11 29 -15 20
-37 -12 -32 -7 -38 46 -58 42 -17 46 -17 71 0 22 14 31 15 55 5 16 -7 29 -16
29 -20 0 -4 -40 -34 -90 -68 l-89 -60 -223 100 c-123 55 -226 103 -230 107 -6
5 20 128 37 179 5 15 8 15 40 0z m-936 -103 c324 -66 323 -66 319 -103 -2 -22
-8 -28 -35 -30 -26 -3 -497 85 -556 104 -30 9 -41 43 -21 65 9 10 18 19 20 19
1 0 124 -25 273 -55z m-1935 23 c23 -37 -13 -50 -306 -109 -201 -41 -287 -55
-300 -48 -20 11 -24 54 -6 65 23 14 523 113 562 111 24 -1 43 -8 50 -19z
m1091 -40 c6 -5 106 -592 102 -593 -1 -1 -27 1 -59 3 -55 4 -56 4 -62 38 -14
70 -93 207 -166 287 -40 42 -78 77 -86 77 -24 0 -118 -100 -168 -177 -25 -39
-56 -103 -70 -144 l-25 -74 -57 -7 c-32 -4 -59 -7 -60 -5 -3 3 94 578 101 595
4 11 53 13 274 10 148 -2 272 -6 276 -10z m-1020 -293 c47 -126 93 -249 102
-273 19 -50 14 -57 -47 -66 l-45 -6 -29 57 c-36 71 -190 227 -260 263 l-48 25
-29 -35 c-17 -19 -51 -76 -75 -126 -36 -71 -49 -113 -63 -194 l-17 -103 -48
-14 c-27 -8 -51 -12 -54 -8 -7 7 -27 604 -20 610 9 9 533 112 539 106 4 -3 46
-109 94 -236z m1875 184 l255 -53 -10 -302 c-5 -166 -13 -305 -16 -309 -4 -3
-29 0 -55 8 l-49 14 -6 71 c-7 78 -29 151 -67 227 -39 79 -93 155 -109 155
-27 0 -150 -89 -205 -148 -29 -32 -70 -88 -92 -125 -41 -71 -44 -73 -117 -59
l-37 7 28 70 c15 39 64 168 110 288 66 174 86 217 99 213 9 -2 131 -28 271
-57z m-729 41 c15 0 19 -7 19 -33 0 -38 15 -57 46 -57 18 0 23 7 29 40 7 43
14 46 74 34 30 -6 31 -8 25 -45 -5 -29 -3 -39 7 -39 8 0 23 -3 35 -6 18 -5 24
2 38 35 16 41 16 41 58 35 24 -4 44 -8 46 -9 1 -1 -10 -36 -25 -78 -26 -73
-30 -77 -58 -77 -32 0 -338 30 -342 34 -3 3 -33 158 -33 170 0 5 14 6 31 2 17
-3 40 -6 50 -6z m-721 -9 c0 -12 -30 -154 -33 -157 -1 -2 -68 -10 -147 -18
-80 -9 -162 -18 -182 -21 l-37 -5 -31 81 c-17 45 -30 82 -28 84 2 1 23 5 47 8
43 5 43 5 59 -34 14 -36 19 -40 46 -37 29 3 31 5 31 44 l0 42 45 5 c25 3 48 3
52 0 5 -2 8 -20 8 -39 0 -34 1 -35 33 -32 27 3 32 7 35 33 2 17 5 36 7 43 5
14 95 17 95 3z m-1731 -102 c13 -17 21 -32 19 -34 -11 -11 -182 -85 -196 -85
-18 0 -80 46 -72 52 11 9 206 97 216 97 5 1 20 -13 33 -30z m4269 -34 l82 -38
-39 -29 -39 -28 -101 47 -101 48 26 32 c29 37 12 40 172 -32z m-2053 -189 c20
-37 45 -93 55 -126 18 -59 18 -60 -1 -60 -14 0 -25 12 -35 38 -39 98 -78 163
-129 217 l-55 60 -44 -48 c-53 -56 -100 -135 -125 -209 -13 -40 -23 -54 -39
-56 -28 -4 -28 11 -1 85 33 87 82 163 150 234 l61 64 63 -67 c35 -36 80 -96
100 -132z m-2095 160 c6 -8 10 -25 8 -37 -2 -18 -29 -33 -141 -82 -150 -65
-172 -67 -172 -12 0 26 8 31 135 86 74 32 140 59 146 59 6 0 17 -7 24 -14z
m4021 -47 c138 -61 157 -77 137 -113 -14 -26 -44 -19 -183 42 -111 49 -131 61
-133 82 -3 20 18 50 37 50 2 0 66 -27 142 -61z m-3501 -38 l0 -89 -156 -58
-157 -57 -66 68 -66 68 49 19 c27 10 52 15 55 10 36 -52 39 -54 71 -47 33 7
36 19 15 67 -5 13 -1 20 16 27 66 24 67 24 83 -13 16 -39 21 -41 51 -23 15 9
20 23 20 51 0 36 3 40 35 52 19 7 38 13 43 13 4 1 7 -39 7 -88z m2894 69 c22
-8 24 -13 19 -46 -10 -58 45 -78 67 -24 14 35 11 34 62 18 36 -10 39 -14 32
-37 -12 -46 -9 -55 19 -65 24 -9 30 -6 55 23 l27 32 44 -18 44 -19 -64 -68
-64 -67 -157 57 -158 58 0 89 0 89 25 -6 c13 -3 35 -10 49 -16z m-1063 -10
c28 0 29 -2 29 -45 0 -45 0 -45 -35 -45 -29 0 -37 5 -45 26 -16 41 -13 77 6
70 9 -3 29 -6 45 -6z m-781 -29 c0 -50 -9 -61 -51 -61 l-39 0 0 45 0 45 45 0
c43 0 45 -1 45 -29z m-120 -26 c0 -36 -3 -45 -17 -45 -10 0 -28 -3 -40 -6 -23
-6 -27 0 -47 63 -7 23 5 29 72 32 32 1 32 0 32 -44z m1058 37 c10 -7 10 -16 0
-46 -7 -21 -16 -38 -20 -37 -5 1 -24 1 -43 1 -35 0 -35 0 -35 45 l0 45 43 0
c23 0 48 -4 55 -8z m-1187 -43 c14 -46 5 -59 -43 -59 -22 0 -28 7 -41 44 l-15
45 31 4 c18 2 37 5 44 5 7 1 18 -16 24 -39z m1316 27 c2 -1 -5 -22 -14 -45
-16 -41 -18 -42 -52 -36 -20 4 -37 8 -39 10 -2 2 2 22 8 45 l11 42 42 -6 c23
-4 42 -8 44 -10z m-1622 -127 c64 -61 145 -176 145 -206 0 -29 -40 -12 -59 25
-32 62 -98 138 -163 187 l-62 46 -17 -23 c-51 -66 -109 -237 -109 -318 0 -15
-6 -20 -26 -20 -24 0 -25 2 -19 48 17 127 62 245 124 330 l32 43 41 -23 c23
-13 74 -53 113 -89z m2024 63 c64 -100 100 -201 116 -324 6 -46 5 -48 -19 -48
-24 0 -26 4 -26 41 0 81 -46 212 -102 292 l-19 27 -47 -32 c-66 -46 -136 -123
-171 -188 -27 -50 -34 -57 -56 -52 l-25 4 32 59 c40 77 133 177 209 228 34 23
65 41 69 41 4 0 22 -22 39 -48z m-2884 -148 c205 -225 265 -294 265 -303 0 -4
-21 -14 -46 -22 l-46 -14 -72 70 c-78 77 -169 130 -281 165 -70 21 -70 21
-124 101 -29 44 -52 82 -50 84 8 7 184 83 194 83 6 0 78 -74 160 -164z m3807
125 c51 -22 95 -42 97 -45 2 -2 -19 -39 -48 -82 l-52 -79 -82 -27 c-110 -36
-207 -95 -282 -172 l-62 -64 -52 18 -52 18 217 237 c119 130 218 237 220 237
2 0 45 -18 96 -41z m-1536 -3 c0 0 -1 -21 -4 -44 l-4 -44 -47 7 c-25 4 -47 8
-48 9 -1 1 -5 21 -9 45 l-7 43 59 -7 c32 -4 59 -8 60 -9z m-879 -33 c-7 -43
-20 -53 -68 -53 -36 0 -37 1 -41 41 -2 22 -2 42 1 45 2 2 29 4 59 4 l55 0 -6
-37z m-142 -9 c8 -45 3 -50 -57 -58 -47 -6 -48 -5 -63 30 -23 56 -29 52 91 62
18 2 23 -5 29 -34z m1148 30 l45 -6 -17 -41 c-18 -41 -18 -41 -67 -38 -27 1
-52 6 -56 10 -4 3 -5 23 -1 44 6 41 11 42 96 31z m834 -95 c-7 -29 -14 -39
-24 -35 -8 4 -19 6 -24 6 -10 0 -13 73 -3 83 3 3 18 1 34 -4 27 -10 27 -12 17
-50z m-2857 12 c0 -36 -12 -51 -40 -51 -15 0 -22 72 -8 81 32 20 48 10 48 -30z
m2934 4 c42 -18 42 -17 19 -56 -15 -24 -22 -29 -43 -24 -37 9 -41 17 -28 58 6
20 12 37 13 37 2 0 19 -7 39 -15z m-3015 -27 c10 -28 9 -35 -6 -45 -27 -21
-47 -15 -67 18 -20 34 -20 34 14 48 40 16 47 13 59 -21z m1081 -25 c0 -21 -5
-45 -10 -53 -9 -13 -11 -13 -20 0 -5 8 -10 32 -10 53 0 30 4 37 20 37 16 0 20
-7 20 -37z m846 21 c-3 -9 -6 -31 -6 -50 0 -44 -25 -46 -34 -3 -11 58 -8 69
20 69 20 0 25 -4 20 -16z m-2008 -68 c-1 -2 -22 -10 -44 -19 l-41 -16 -32 33
-32 33 53 20 53 20 23 -34 c13 -19 22 -36 20 -37z m1086 58 c3 -9 6 -31 6 -50
0 -29 -4 -34 -22 -34 -13 0 -39 -3 -58 -6 -34 -6 -35 -5 -52 40 -19 51 -21 50
57 59 58 8 63 7 69 -9z m1088 0 c4 -3 0 -25 -9 -50 -15 -45 -16 -46 -52 -40
-20 3 -46 6 -58 6 -18 0 -23 6 -23 28 0 15 3 37 7 50 5 23 9 23 67 17 33 -4
64 -9 68 -11z m1091 -24 c4 -3 -6 -19 -23 -35 -28 -27 -32 -28 -69 -16 -22 6
-42 15 -45 19 -3 4 7 22 20 40 l25 31 42 -16 c23 -9 45 -19 50 -23z m-3097
-47 c5 -29 3 -39 -11 -50 -26 -19 -29 -17 -49 23 -19 41 -19 39 14 53 37 15
39 14 46 -26z m2857 17 c5 -4 0 -23 -10 -43 -16 -30 -21 -34 -42 -26 -18 7
-22 14 -17 32 3 12 6 30 6 41 0 15 5 17 28 11 15 -3 31 -10 35 -15z m83 -26
c22 -9 50 -21 63 -26 l24 -9 -33 -34 -33 -34 -41 16 c-57 22 -59 26 -40 67 10
20 19 36 20 36 1 0 19 -7 40 -16z m-3031 -24 c8 -16 15 -32 15 -35 0 -3 -21
-15 -47 -26 l-47 -20 -34 34 -34 35 53 20 c71 27 76 27 94 -8z m1750 0 c429
-29 846 -112 1290 -257 248 -81 350 -120 366 -139 17 -20 -4 -64 -30 -64 -11
0 -120 34 -243 75 -434 144 -771 223 -1178 272 -207 25 -745 25 -950 0 -381
-47 -747 -132 -1151 -267 -145 -48 -269 -85 -277 -83 -7 3 -17 14 -23 25 -21
39 9 60 167 115 754 262 1401 365 2029 323z m-2181 -20 c29 -12 82 -39 116
-61 64 -41 160 -130 160 -149 0 -20 -27 -9 -61 26 -50 52 -170 130 -239 155
-33 12 -60 28 -60 35 0 19 20 18 84 -6z m3919 6 c1 -5 -28 -22 -64 -37 -84
-34 -159 -82 -230 -147 -41 -38 -59 -48 -70 -41 -11 8 -1 22 51 70 71 66 147
115 231 147 56 22 79 24 82 8z m-531 -53 c40 -14 75 -28 77 -29 2 -2 -13 -24
-33 -48 l-36 -45 -43 13 -42 12 -3 62 c-2 34 -1 62 2 62 3 0 38 -12 78 -27z
m-2862 -37 l0 -54 -44 -15 -45 -15 -36 44 c-33 39 -34 45 -18 51 10 3 38 14
63 24 74 30 80 27 80 -35z m1706 -36 c424 -33 937 -146 1376 -302 90 -31 113
-53 88 -83 -17 -21 -34 -19 -136 15 -49 17 -174 55 -279 85 -886 254 -1607
275 -2455 74 -134 -32 -448 -122 -569 -164 -41 -14 -85 -25 -97 -25 -26 0 -47
30 -38 55 8 20 12 22 249 96 422 132 838 218 1205 248 152 12 506 13 656 1z
m31 -131 c427 -35 919 -145 1385 -310 86 -31 103 -45 92 -74 -9 -24 -34 -19
-232 45 -614 196 -1068 274 -1597 273 -537 0 -998 -81 -1629 -287 -92 -30
-174 -52 -181 -49 -17 6 -26 29 -19 47 12 31 473 175 784 246 226 51 526 98
730 113 111 8 551 6 667 -4z m-62 -119 c421 -31 809 -111 1290 -267 77 -25
144 -49 149 -54 6 -5 -707 -9 -1729 -9 -1046 0 -1735 4 -1730 9 10 10 253 88
440 141 318 92 723 163 1040 183 122 8 412 6 540 -3z m1473 -1787 l-3 -1418
-23 -105 c-170 -761 -656 -1278 -1352 -1436 -131 -30 -365 -53 -381 -37 -7 7
-8 146 -3 464 l7 454 36 1 c61 2 103 18 125 47 18 24 21 41 19 110 -2 45 -10
117 -19 160 -13 66 -14 97 -5 199 12 130 11 125 55 181 27 34 30 45 30 105 0
44 -6 78 -18 101 -15 27 -16 38 -6 61 7 18 9 45 5 70 -7 44 4 79 56 160 15 25
31 65 34 90 4 25 16 57 26 72 24 34 24 40 -2 90 -13 25 -19 52 -16 72 5 39
-39 131 -71 146 -13 5 -21 14 -18 19 3 4 -1 17 -8 27 -9 12 -11 25 -6 35 11
20 -2 76 -28 119 -12 19 -22 43 -22 53 0 9 -4 17 -10 17 -5 0 -10 -6 -10 -13
0 -9 -9 -12 -30 -9 -17 2 -47 -4 -73 -17 -37 -18 -49 -31 -71 -80 -17 -38 -26
-76 -26 -108 0 -28 -6 -58 -15 -69 -8 -10 -15 -27 -15 -37 0 -10 -4 -16 -10
-12 -5 3 -6 13 -3 23 4 12 3 14 -6 6 -8 -8 5 -45 54 -147 36 -75 65 -141 65
-147 0 -5 5 -10 11 -10 5 0 7 5 4 10 -3 6 1 10 9 10 22 0 20 11 -9 54 -14 20
-25 51 -25 68 0 31 0 31 21 12 32 -29 79 -115 79 -146 0 -16 5 -28 10 -28 12
0 12 26 1 55 -11 26 -2 53 10 33 7 -10 9 -10 9 2 0 8 -9 26 -19 39 -22 28 -18
59 5 40 8 -6 14 -9 14 -6 0 2 -6 10 -14 16 -11 9 -17 8 -29 -3 -13 -14 -16
-14 -21 0 -4 10 -2 13 6 8 8 -5 9 -2 5 10 -5 14 -3 16 12 11 26 -8 35 9 14 26
-13 11 -17 11 -20 2 -6 -17 -44 -16 -68 1 -27 19 -13 50 20 42 28 -7 33 5 10
24 -20 16 -19 39 1 47 15 5 15 7 0 15 -9 5 -14 13 -11 18 3 5 -3 11 -14 15
-31 9 -53 52 -46 86 4 16 13 29 21 29 8 0 14 9 14 20 0 11 5 20 10 20 6 0 19
9 30 20 27 27 76 26 91 -2 10 -18 8 -24 -7 -35 -10 -7 -15 -13 -11 -13 3 0 1
-13 -4 -30 -6 -16 -18 -30 -26 -30 -8 0 -11 -5 -8 -11 4 -5 -1 -20 -12 -31
-18 -21 -18 -21 13 -15 29 6 32 3 44 -34 10 -30 11 -42 2 -51 -17 -17 -15 -28
5 -21 10 4 14 2 10 -4 -3 -5 8 -23 26 -39 18 -16 24 -19 13 -6 -17 20 -17 22
-2 22 9 0 21 -12 26 -26 12 -30 13 -47 2 -40 -4 2 -5 -14 -3 -37 l5 -42 8 50
c12 63 4 91 -30 113 -33 20 -32 52 1 52 26 0 96 -82 99 -114 0 -11 2 -26 2
-32 1 -6 10 -29 20 -52 18 -40 17 -72 -3 -72 -5 0 -12 13 -16 29 -3 16 -13 35
-20 41 -11 10 -17 5 -29 -22 -8 -19 -15 -26 -15 -15 -1 21 -17 22 -25 1 -4
-10 -14 -14 -25 -11 -15 3 -17 0 -13 -16 3 -13 1 -18 -6 -13 -9 5 -25 -36 -27
-69 -1 -19 -49 -79 -53 -67 -2 7 6 21 19 31 15 12 19 20 11 25 -7 4 -12 2 -12
-4 0 -6 -5 -8 -10 -5 -19 12 -28 -38 -13 -73 20 -48 10 -50 -12 -3 -14 33 -26
43 -63 56 -62 21 -80 19 -124 -11 -26 -18 -38 -34 -38 -50 0 -29 -7 -30 -39
-5 -23 18 -39 81 -19 81 5 0 21 11 36 25 28 26 48 33 36 13 -6 -10 -4 -10 7
-2 8 6 38 19 67 30 46 16 54 16 62 4 29 -46 0 22 -59 138 -65 129 -67 133 -79
107 -7 -16 -17 -23 -24 -19 -8 5 -9 2 -4 -12 6 -16 4 -16 -17 4 -37 35 -40 26
-7 -23 35 -52 34 -75 -9 -111 -15 -12 -27 -32 -28 -43 -2 -25 0 -26 35 -4 18
10 14 5 -10 -16 -36 -31 -57 -69 -22 -41 12 11 11 2 -5 -39 -17 -40 -21 -74
-21 -156 0 -107 -10 -132 -31 -77 -14 35 -3 158 18 197 13 24 14 75 2 75 -5 0
-9 -2 -9 -4 0 -2 -3 -12 -7 -22 -4 -12 -3 -15 5 -10 18 11 14 -6 -9 -34 -17
-21 -19 -22 -10 -3 17 34 12 40 -9 14 -32 -37 -23 -9 11 37 17 23 37 42 45 42
8 0 14 5 14 11 0 5 -4 8 -8 5 -19 -11 -5 45 17 68 23 25 17 38 -6 15 -9 -9
-10 -7 -6 10 8 30 -6 26 -18 -5 -15 -42 -19 -24 -11 53 8 73 39 136 86 175 19
15 19 17 4 23 -9 4 -14 13 -12 20 3 8 12 11 20 8 8 -3 12 -9 9 -13 -9 -14 14
-22 32 -12 15 9 42 85 43 124 0 15 34 74 60 106 8 9 6 12 -7 12 -15 1 -15 3 6
20 12 11 28 17 34 13 6 -3 7 -1 3 6 -4 6 -12 8 -18 5 -7 -5 -9 -1 -5 9 9 24
-20 22 -32 -2 -6 -10 -8 -21 -6 -25 3 -3 -1 -2 -7 4 -16 13 0 41 30 55 22 10
22 14 22 216 l0 206 46 7 c95 13 173 67 217 150 19 37 22 60 25 249 l4 207
-146 0 -146 0 0 220 0 220 880 0 880 0 -2 -1417z m-2868 858 c0 -52 -3 -62
-26 -80 -35 -27 -59 -26 -89 4 -21 20 -25 34 -25 80 l0 55 70 0 70 0 0 -59z
m290 0 c0 -65 -13 -86 -57 -97 -17 -5 -33 0 -51 13 -23 17 -27 28 -30 82 l-3
61 71 0 70 0 0 -59z m750 0 c0 -52 -3 -62 -26 -80 -15 -12 -34 -21 -44 -21
-10 0 -29 9 -44 21 -23 18 -26 28 -26 80 l0 59 70 0 70 0 0 -59z m290 0 c0
-52 -3 -62 -26 -80 -15 -12 -34 -21 -44 -21 -10 0 -29 9 -44 21 -23 18 -26 28
-26 80 l0 59 70 0 70 0 0 -59z m-1190 -128 c0 -32 -4 -63 -8 -70 -13 -21 -60
-33 -86 -23 -34 12 -46 39 -46 99 l0 51 70 0 70 0 0 -57z m1040 -1 c0 -68 -20
-95 -70 -95 -50 0 -70 27 -70 95 l0 58 70 0 70 0 0 -58z m-1180 -141 c0 -65
-13 -86 -57 -97 -17 -5 -33 0 -51 13 -23 17 -27 28 -30 82 l-3 61 71 0 70 0 0
-59z m280 0 c0 -65 -13 -86 -57 -97 -17 -5 -33 0 -51 13 -23 17 -27 28 -30 82
l-3 61 71 0 70 0 0 -59z m760 0 c0 -52 -3 -62 -26 -80 -15 -12 -34 -21 -44
-21 -10 0 -29 9 -44 21 -23 18 -26 28 -26 80 l0 59 70 0 70 0 0 -59z m280 4
c0 -46 -4 -60 -25 -80 -27 -28 -45 -31 -78 -14 -32 17 -37 28 -37 92 l0 57 70
0 70 0 0 -55z m-1650 -440 c0 -32 2 -35 30 -35 28 0 30 3 30 35 l0 35 55 0 55
0 0 -35 0 -35 50 0 50 0 0 35 c0 31 3 35 25 35 22 0 25 -4 25 -35 0 -31 3 -35
25 -35 22 0 25 4 25 35 0 31 3 35 25 35 22 0 25 -4 25 -35 0 -32 2 -35 30 -35
28 0 30 3 30 35 0 31 3 35 25 35 22 0 25 -4 25 -35 l0 -35 50 0 50 0 0 35 0
35 49 0 50 0 3 -37 c3 -35 6 -38 33 -38 27 0 30 3 33 38 l3 37 55 0 54 0 0
-60 0 -60 -515 0 -515 0 0 60 0 60 60 0 60 0 0 -35z m260 -135 l0 -40 -190 0
-190 0 0 40 0 40 190 0 190 0 0 -40z m260 0 l0 -40 -125 0 -125 0 0 40 0 40
125 0 125 0 0 -40z m390 0 l0 -40 -190 0 -190 0 0 40 0 40 190 0 190 0 0 -40z
m-910 -130 c0 -71 -2 -80 -18 -80 -23 0 -43 22 -70 75 -41 84 -41 85 27 85
l61 0 0 -80z m390 0 l0 -80 -120 0 -120 0 0 80 0 80 120 0 120 0 0 -80z m250
0 l0 -80 -120 0 -120 0 0 80 0 80 120 0 120 0 0 -80z m265 53 c-13 -56 -59
-128 -82 -131 -22 -3 -23 -1 -23 77 l0 81 56 0 56 0 -7 -27z m-685 -203 l0
-60 -130 0 -130 0 0 60 0 60 130 0 130 0 0 -60z m340 0 l0 -60 -165 0 -165 0
0 60 0 60 165 0 165 0 0 -60z m270 0 l0 -60 -130 0 -130 0 0 60 0 60 130 0
130 0 0 -60z m809 -3 c10 -27 4 -67 -10 -67 -5 0 -9 9 -9 21 0 11 5 17 10 14
14 -9 12 7 -4 30 -7 11 -17 31 -21 45 -7 25 -7 25 9 3 9 -11 20 -32 25 -46z
m-1609 -122 l0 -55 -35 0 -35 0 0 55 0 55 35 0 35 0 0 -55z m360 0 l0 -55
-175 0 -175 0 0 55 0 55 175 0 175 0 0 -55z m360 0 l0 -55 -175 0 -175 0 0 55
0 55 175 0 175 0 0 -55z m80 0 l0 -55 -35 0 -35 0 0 55 0 55 35 0 35 0 0 -55z
m834 -20 c5 -16 1 -21 -14 -21 -16 0 -20 7 -20 35 0 31 2 33 14 21 8 -8 17
-24 20 -35z m-200 -27 c-7 -11 -7 -11 -24 22 -13 25 -13 25 8 6 12 -10 19 -23
16 -28z m-1244 -58 l0 -40 -130 0 -130 0 0 40 0 40 130 0 130 0 0 -40z m340 0
c0 -45 -11 -52 -28 -15 -18 40 -57 43 -100 7 l-38 -30 -32 29 c-41 37 -66 37
-94 -1 -29 -40 -38 -38 -38 10 l0 40 165 0 165 0 0 -40z m270 0 l0 -40 -130 0
-130 0 0 40 0 40 130 0 130 0 0 -40z m-465 -21 l35 -31 35 31 c43 37 59 39 81
6 22 -33 31 -78 39 -191 l7 -94 -166 0 -167 0 6 68 c13 154 25 209 51 235 15
15 44 6 79 -24z m1255 11 c0 -5 -2 -10 -4 -10 -3 0 -8 5 -11 10 -3 6 -1 10 4
10 6 0 11 -4 11 -10z m-1595 -100 c0 -54 0 -55 -30 -55 -28 0 -30 3 -33 44 -4
60 2 73 35 69 27 -3 28 -5 28 -58z m193 54 c21 -6 22 -10 16 -53 -4 -25 -12
-49 -18 -53 -6 -4 -48 -8 -93 -8 l-83 0 0 60 0 60 78 0 c42 0 87 -3 100 -6z
m510 0 c19 -5 22 -13 22 -54 0 -56 -7 -60 -113 -60 -74 0 -72 -2 -82 73 l-6
47 78 0 c43 0 88 -3 101 -6z m97 -54 c0 -55 0 -55 -32 -58 l-33 -3 0 61 0 61
33 -3 c32 -3 32 -3 32 -58z m730 40 c3 -5 1 -10 -4 -10 -6 0 -11 5 -11 10 0 6
2 10 4 10 3 0 8 -4 11 -10z m-31 -76 c39 -62 29 -64 -12 -3 -18 27 -29 49 -25
49 5 -1 21 -21 37 -46z m-63 -42 c20 -26 26 -58 8 -46 -19 11 -49 93 -41 112
5 13 8 10 10 -13 2 -16 12 -40 23 -53z m-57 12 c9 -23 10 -21 -35 -54 -43 -30
-63 -32 -52 -3 4 11 3 14 -5 9 -7 -4 -12 -2 -12 3 0 6 8 11 18 11 10 0 29 11
42 25 27 29 36 31 44 9z m-1182 -64 l-4 -60 -129 0 -129 0 0 60 0 60 133 0
132 0 -3 -60z m608 0 l0 -60 -130 0 -130 0 0 60 0 60 130 0 130 0 0 -60z m840
20 c0 -32 -14 -40 -24 -14 -5 14 8 44 20 44 2 0 4 -13 4 -30z m65 -105 c-3
-16 -17 -43 -32 -60 -25 -29 -25 -29 -9 -2 17 28 10 36 -14 15 -8 -8 -7 -3 3
14 9 15 17 35 17 45 0 15 2 15 9 4 7 -11 11 -6 16 20 3 19 6 39 5 44 -2 6 -1
17 1 25 1 8 4 -5 6 -30 3 -24 2 -58 -2 -75z m-99 59 c-4 -9 -9 -15 -11 -12 -3
3 -3 13 1 22 4 9 9 15 11 12 3 -3 3 -13 -1 -22z m10 -77 c0 -34 -1 -48 -4 -32
-4 26 -5 28 -12 10 -7 -16 -9 -14 -9 13 -1 27 13 72 22 72 1 0 2 -28 3 -63z
m-41 23 c-9 -16 -18 -30 -21 -30 -2 0 2 14 11 30 9 17 18 30 21 30 2 0 -2 -13
-11 -30z m-1575 -45 l0 -55 -35 0 -35 0 0 55 0 55 35 0 35 0 0 -55z m720 0 l0
-54 -92 -3 -93 -3 -3 -47 c-2 -27 1 -48 5 -48 4 0 8 19 8 42 l0 43 85 3 c47 2
104 0 128 -3 40 -6 42 -8 42 -41 0 -28 -4 -34 -22 -35 l-23 0 23 -9 c19 -8 22
-17 22 -65 l0 -55 -35 0 -35 0 0 60 0 60 -72 -2 -73 -2 68 -3 67 -4 0 -54 0
-55 -95 0 -95 0 0 -65 0 -65 95 0 95 0 0 -55 0 -55 -95 0 -95 0 0 -60 0 -60
-50 0 -50 0 0 120 0 120 -65 0 -65 0 0 -120 0 -120 -50 0 -50 0 0 60 0 60 -95
0 -95 0 0 55 0 55 95 0 95 0 0 65 0 65 -95 0 -95 0 0 60 c0 33 -3 60 -7 60 -5
0 -6 -27 -5 -60 l4 -60 -36 0 -36 0 3 103 2 102 75 3 c41 2 99 0 128 -3 51 -6
52 -7 52 -40 0 -29 -4 -34 -27 -38 -26 -4 -26 -4 5 -6 l32 -1 0 50 0 50 -95 0
-95 0 0 55 0 55 355 0 355 0 0 -55z m80 0 l0 -55 -35 0 -35 0 0 55 0 55 35 0
35 0 0 -55z m759 -19 c7 -8 9 -25 6 -38 -3 -13 -2 -35 2 -48 5 -14 6 -41 2
-60 -6 -35 -6 -35 -8 -5 -2 42 -21 70 -21 32 0 -28 -27 -103 -34 -96 -12 12
-75 143 -71 147 2 2 10 -7 16 -21 7 -15 15 -24 19 -22 4 3 15 -6 24 -20 34
-52 34 -22 1 40 -38 70 -38 80 1 38 29 -31 40 -25 26 15 -15 42 12 69 37 38z
m65 -41 c-4 -8 -8 -15 -10 -15 -2 0 -4 7 -4 15 0 8 4 15 10 15 5 0 7 -7 4 -15z
m-15 -87 c6 -26 11 -62 11 -80 l-1 -33 -15 28 c-15 27 -27 155 -13 139 3 -4
11 -28 18 -54z m-120 -103 c0 -20 0 -20 -14 -1 -11 14 -15 16 -15 5 -1 -10 -3
-9 -11 4 -6 9 -7 27 -3 39 l6 21 19 -24 c10 -13 19 -33 18 -44z m90 -47 c1
-23 -26 -13 -34 13 -4 11 -3 34 1 52 l8 32 12 -40 c7 -22 13 -48 13 -57z
m-380 -13 c1 -16 -1 -17 -9 -5 -5 8 -9 31 -9 50 l1 35 8 -30 c4 -16 8 -39 9
-50z m337 -13 c11 -7 0 -3 -22 7 -23 11 -44 28 -48 36 -4 12 2 10 23 -7 15
-12 37 -29 47 -36z m-1346 -17 l0 -55 -130 0 -130 0 0 55 0 55 130 0 130 0 0
-55z m610 0 l0 -55 -130 0 -130 0 0 55 0 55 130 0 130 0 0 -55z m830 -10 c0
-5 -5 -3 -10 5 -5 8 -10 20 -10 25 0 6 5 3 10 -5 5 -8 10 -19 10 -25z m-458 1
c6 4 5 -3 -2 -16 -6 -12 -10 -40 -9 -63 5 -84 0 -117 -16 -111 -9 4 -15 19
-15 40 0 42 23 169 28 154 2 -5 8 -7 14 -4z m447 -32 c12 -15 21 -40 20 -58
l-1 -31 -10 35 c-5 19 -24 50 -41 69 -24 25 -27 31 -10 22 12 -6 31 -23 42
-37z m-432 -46 c-2 -13 -4 -3 -4 22 0 25 2 35 4 23 2 -13 2 -33 0 -45z m-1187
-33 l0 -55 -35 0 -35 0 0 55 0 55 35 0 35 0 0 -55z m800 0 l0 -55 -35 0 -35 0
0 55 0 55 35 0 35 0 0 -55z m-610 -120 l0 -55 -130 0 -130 0 0 55 0 55 130 0
130 0 0 -55z m610 0 l0 -55 -130 0 -130 0 0 55 0 55 130 0 130 0 0 -55z m-802
-122 l3 -53 -35 0 -36 0 0 48 c0 56 5 64 40 60 23 -3 25 -8 28 -55z m316 51
l46 -7 0 -48 0 -49 -175 0 -175 0 0 55 0 55 129 0 c70 0 149 -3 175 -6z m360
0 l46 -7 0 -48 0 -49 -175 0 -175 0 0 55 0 55 129 0 c70 0 149 -3 175 -6z
m124 -51 l3 -53 -35 0 -36 0 0 56 0 55 33 -3 c31 -3 32 -4 35 -55z m-645 -69
c35 -6 37 -8 37 -45 l0 -39 -130 0 -130 0 0 38 c0 21 3 42 7 45 8 9 165 9 216
1z m331 0 c46 -7 46 -7 46 -45 l0 -39 -165 0 -165 0 0 45 0 45 119 0 c65 0
139 -3 165 -6z m285 0 c28 -6 31 -10 31 -45 l0 -39 -130 0 -130 0 0 38 c0 21
3 42 7 45 8 9 180 9 222 1z m-769 -144 l0 -50 -35 0 -35 0 0 50 0 50 35 0 35
0 0 -50z m360 0 l0 -50 -175 0 -175 0 0 50 0 50 175 0 175 0 0 -50z m360 0 l0
-50 -175 0 -175 0 0 50 0 50 175 0 175 0 0 -50z m80 0 l0 -50 -35 0 -35 0 0
50 0 50 35 0 35 0 0 -50z"/>
<path d="M2542 5852 c-7 -5 -15 -25 -19 -45 l-6 -37 42 0 c40 0 41 1 41 33 0
47 -26 69 -58 49z"/>
<path d="M2912 5848 c-7 -7 -12 -27 -12 -45 0 -32 1 -33 43 -33 43 0 44 0 39
33 -7 53 -40 75 -70 45z"/>
<path d="M1817 5774 c-4 -4 -7 -25 -7 -47 l0 -39 38 7 c47 9 47 8 36 47 -7 25
-16 34 -35 36 -13 2 -28 0 -32 -4z"/>
<path d="M1443 5695 c-12 -21 -4 -84 11 -80 6 2 24 6 39 10 26 5 28 9 22 33
-4 15 -11 33 -17 39 -14 18 -45 16 -55 -2z"/>
<path d="M3620 5744 c-7 -19 -10 -37 -8 -38 1 -2 19 -6 39 -10 34 -6 37 -4 43
20 11 41 -1 64 -34 64 -24 0 -30 -6 -40 -36z"/>
<path d="M4003 5698 c-6 -7 -13 -25 -17 -40 -6 -25 -3 -28 30 -37 46 -13 54
-8 54 33 0 49 -42 76 -67 44z"/>
<path d="M733 5454 c-3 -10 4 -26 20 -41 23 -24 28 -25 56 -13 37 15 38 20 8
48 -27 26 -75 29 -84 6z"/>
<path d="M4684 5446 c-25 -22 -27 -27 -14 -36 35 -24 63 -24 82 0 42 52 -16
82 -68 36z"/>
<path d="M2890 4435 c0 -22 4 -25 35 -25 l35 0 0 -105 0 -105 30 0 30 0 0 105
0 105 41 0 c36 0 40 2 37 23 -3 21 -8 22 -105 25 l-103 3 0 -26z"/>
<path d="M3250 4330 l0 -130 25 0 25 0 0 130 0 130 -25 0 -25 0 0 -130z"/>
<path d="M3470 4330 l0 -130 25 0 c24 0 24 2 27 88 l3 87 49 -87 c44 -78 53
-88 78 -88 l28 0 0 130 0 130 -25 0 c-24 0 -24 -2 -27 -87 l-3 -88 -50 87
c-44 77 -53 88 -77 88 l-28 0 0 -130z"/>
<path d="M3899 4445 c-57 -31 -76 -138 -34 -201 34 -52 114 -66 158 -27 15 15
17 15 17 0 0 -10 8 -17 20 -17 18 0 20 7 20 70 l0 70 -55 0 c-48 0 -55 -2 -55
-20 0 -16 7 -20 30 -20 34 0 39 -18 12 -43 -25 -23 -68 -21 -92 3 -30 30 -28
109 3 138 29 27 61 28 87 2 21 -21 70 -28 70 -9 0 6 -13 24 -29 40 -25 24 -37
29 -78 29 -26 -1 -60 -7 -74 -15z"/>
<path d="M3520 3878 c0 -183 2 -208 21 -248 26 -59 62 -96 124 -128 43 -23 62
-27 135 -27 73 0 92 4 136 27 62 32 116 93 132 147 7 23 12 115 12 235 l0 196
-280 0 -280 0 0 -202z m200 78 c0 -56 -3 -67 -22 -80 -53 -37 -107 -6 -115 66
-8 73 -3 78 72 78 l65 0 0 -64z m290 0 c0 -56 -3 -67 -22 -80 -53 -37 -107 -6
-115 66 -8 73 -3 78 72 78 l65 0 0 -64z m-140 -120 c0 -87 -57 -130 -113 -86
-24 19 -27 28 -27 81 l0 59 70 0 70 0 0 -54z m-150 -150 c0 -56 -3 -67 -22
-80 -53 -37 -107 -6 -115 66 -8 73 -3 78 72 78 l65 0 0 -64z m280 0 c0 -56 -3
-67 -22 -80 -32 -23 -65 -20 -93 9 -20 19 -25 34 -25 73 0 27 3 52 7 55 3 4
35 7 70 7 l63 0 0 -64z"/>
<path d="M3277 3294 c-4 -4 -7 -57 -7 -118 l0 -111 65 3 65 4 0 -81 c0 -69 -2
-81 -17 -81 -9 0 -26 8 -37 18 -21 17 -21 17 -3 -4 16 -19 17 -74 17 -837 l0
-817 440 0 440 0 0 819 c0 533 3 822 10 826 5 3 15 16 20 28 8 16 5 14 -10 -5
-12 -16 -30 -28 -41 -28 -17 0 -19 8 -19 80 l0 80 60 0 60 0 -15 -37 c-8 -20
-14 -38 -11 -40 2 -2 11 14 20 37 11 29 16 73 16 156 l0 115 -67 -3 c-67 -3
-68 -3 -71 -33 -4 -30 -16 -45 -39 -45 -8 0 -13 15 -13 40 l0 40 -60 0 -60 0
0 -34 c0 -24 -5 -36 -17 -39 -14 -4 -12 -5 5 -6 19 -1 22 4 22 34 l0 35 49 0
50 0 3 -37 c3 -35 6 -38 36 -41 31 -3 32 -2 32 37 l0 41 60 0 60 0 0 -60 0
-60 -520 0 -520 0 0 60 0 60 59 0 60 0 4 -35 4 -35 -1 37 -1 38 -60 3 c-34 2
-64 0 -68 -4z m383 -174 l0 -40 -190 0 -190 0 0 40 0 40 190 0 190 0 0 -40z
m260 0 l0 -40 -125 0 -125 0 0 40 0 40 125 0 125 0 0 -40z m400 0 l0 -40 -190
0 -190 0 0 40 0 40 190 0 190 0 0 -40z m-530 -130 l0 -80 -120 0 -120 0 0 80
0 80 120 0 120 0 0 -80z m260 0 l0 -80 -125 0 -125 0 0 80 0 80 125 0 125 0 0
-80z m-430 -150 l0 -60 -125 0 -125 0 0 60 0 60 125 0 125 0 0 -60z m340 0 l0
-60 -165 0 -165 0 0 60 0 60 165 0 165 0 0 -60z m270 0 l0 -60 -130 0 -130 0
0 60 0 60 130 0 130 0 0 -60z m-800 -125 c0 -54 0 -55 -30 -55 -30 0 -30 1
-30 55 0 54 0 55 30 55 30 0 30 -1 30 -55z m360 0 l0 -55 -175 0 -175 0 0 55
0 55 175 0 175 0 0 -55z m360 0 l0 -55 -175 0 -175 0 0 55 0 55 175 0 175 0 0
-55z m80 0 l0 -55 -35 0 -35 0 0 55 0 55 35 0 35 0 0 -55z m-610 -105 l0 -40
-125 0 -125 0 0 40 0 40 125 0 125 0 0 -40z m340 0 c0 -45 -11 -52 -28 -15
-18 39 -55 42 -99 7 l-38 -30 -33 29 c-42 37 -68 37 -90 -1 -24 -43 -42 -38
-42 10 l0 40 165 0 165 0 0 -40z m270 0 l0 -40 -125 0 -125 0 0 40 0 40 125 0
125 0 0 -40z m-465 -21 l35 -31 36 32 c20 17 43 30 52 28 38 -7 71 -124 72
-255 l0 -53 -161 0 -162 0 6 108 c5 109 16 153 44 184 23 25 37 23 78 -13z
m-340 -89 c0 -53 -1 -55 -27 -58 -28 -3 -28 -3 -28 58 0 61 0 61 28 58 26 -3
27 -5 27 -58z m193 53 c22 -5 23 -9 17 -52 -4 -25 -12 -49 -18 -54 -7 -4 -48
-6 -92 -5 l-80 3 -3 44 c-5 68 -2 71 80 71 40 0 84 -3 96 -7z m510 1 c19 -5
22 -13 22 -54 0 -56 -7 -60 -112 -60 -66 0 -66 0 -72 30 -3 17 -9 44 -12 60
l-6 30 79 0 c43 0 88 -3 101 -6z m97 -54 c0 -54 0 -55 -30 -55 -28 0 -30 3
-33 44 -4 60 2 73 35 69 27 -3 28 -5 28 -58z m-599 -107 c-3 -21 -6 -48 -6
-60 0 -23 -2 -23 -125 -23 l-125 0 0 60 0 60 131 0 132 0 -7 -37z m604 -23 l0
-60 -130 0 -130 0 0 60 0 60 130 0 130 0 0 -60z m-800 -125 c0 -54 0 -55 -30
-55 -30 0 -30 1 -30 55 0 54 0 55 30 55 30 0 30 -1 30 -55z m720 0 l0 -55 -90
0 -90 0 2 -52 2 -53 3 48 4 47 93 0 c52 0 108 -3 125 -6 27 -6 31 -10 31 -40
0 -28 -4 -34 -22 -35 l-23 0 23 -9 c19 -8 22 -17 22 -65 l0 -55 -36 0 -36 0 4
60 3 60 -70 -2 -70 -2 63 -3 62 -4 0 -54 0 -55 -90 0 -90 0 0 -65 0 -65 90 0
90 0 0 -55 0 -55 -90 0 -90 0 0 -60 0 -60 -50 0 -50 0 0 120 0 120 -70 0 -70
0 0 -120 0 -120 -50 0 -50 0 0 60 0 60 -95 0 -95 0 0 55 0 55 95 0 95 0 0 65
0 65 -96 0 -96 0 4 60 c2 36 -1 60 -7 60 -6 0 -9 -24 -7 -60 l4 -60 -31 0 -31
0 0 105 0 105 94 0 c51 0 108 -3 125 -6 27 -6 31 -11 31 -40 0 -26 -5 -33 -22
-37 -20 -4 -19 -4 5 -6 26 -1 27 1 27 49 l0 50 -95 0 -95 0 0 55 0 55 355 0
355 0 0 -55z m80 0 l0 -55 -35 0 -35 0 0 55 0 55 35 0 35 0 0 -55z m-610 -340
l0 -55 -125 0 -125 0 0 55 0 55 125 0 125 0 0 -55z m610 0 l0 -55 -125 0 -125
0 0 55 0 55 125 0 125 0 0 -55z m-800 -120 c0 -54 0 -55 -30 -55 -30 0 -30 1
-30 55 0 54 0 55 30 55 30 0 30 -1 30 -55z m800 0 l0 -55 -35 0 -35 0 0 55 0
55 35 0 35 0 0 -55z m-610 -120 l0 -55 -125 0 -125 0 0 55 0 55 125 0 125 0 0
-55z m610 0 l0 -55 -125 0 -125 0 0 55 0 55 125 0 125 0 0 -55z m-802 -122 l3
-53 -30 0 c-31 0 -31 0 -31 56 0 54 0 55 28 52 25 -3 27 -7 30 -55z m316 51
l46 -7 0 -48 0 -49 -175 0 -175 0 0 48 c0 27 3 52 7 55 8 9 235 9 297 1z m360
0 l46 -7 0 -48 0 -49 -175 0 -175 0 0 48 c0 27 3 52 7 55 8 9 235 9 297 1z
m124 -51 l3 -53 -35 0 -36 0 0 48 c0 56 5 64 40 60 23 -3 25 -8 28 -55z m-639
-69 c28 -6 31 -10 31 -45 l0 -39 -125 0 -125 0 0 45 0 45 94 0 c51 0 108 -3
125 -6z m334 0 c35 -6 37 -8 37 -45 l0 -39 -165 0 -165 0 0 45 0 45 128 0 c70
0 144 -3 165 -6z m276 0 c28 -6 31 -10 31 -45 l0 -39 -125 0 -125 0 0 45 0 45
94 0 c51 0 108 -3 125 -6z m-769 -144 c0 -49 -1 -50 -30 -50 -29 0 -30 1 -30
50 0 49 1 50 30 50 29 0 30 -1 30 -50z m360 0 l0 -50 -175 0 -175 0 0 50 0 50
175 0 175 0 0 -50z m360 0 l0 -50 -175 0 -175 0 0 50 0 50 175 0 175 0 0 -50z
m80 0 l0 -50 -35 0 -35 0 0 50 0 50 35 0 35 0 0 -50z"/>
<path d="M3712 2496 c-6 -13 -14 -44 -17 -70 l-7 -46 42 0 43 0 -6 43 c-7 53
-23 97 -35 97 -5 0 -14 -11 -20 -24z"/>
<path d="M3845 2488 c-7 -18 -15 -49 -17 -68 -3 -35 -3 -35 40 -38 35 -3 42 0
42 16 0 32 -30 122 -41 122 -5 0 -16 -15 -24 -32z"/>
<path d="M3730 2085 l0 -125 70 0 70 0 0 125 0 125 -70 0 -70 0 0 -125z"/>
<path d="M3460 3266 c0 -19 -6 -37 -12 -39 -8 -3 -6 -6 5 -6 13 -1 17 7 17 34
l0 35 49 0 50 0 4 -37 4 -38 1 43 2 42 -60 0 -60 0 0 -34z"/>
<path d="M3667 3293 c-4 -3 -7 -19 -7 -34 0 -15 -6 -30 -12 -32 -8 -3 -6 -6 5
-6 13 -1 17 7 17 34 0 30 3 35 24 35 21 0 25 -5 29 -37 l4 -38 1 43 c2 40 1
42 -26 42 -16 0 -32 -3 -35 -7z"/>
<path d="M3793 3293 c23 -4 27 -9 27 -39 0 -31 2 -34 30 -34 28 0 30 3 30 34
0 30 4 35 28 39 25 4 25 4 -5 6 -31 1 -33 -1 -33 -34 0 -28 -4 -35 -20 -35
-16 0 -20 7 -20 35 0 33 -2 35 -32 34 -31 -2 -31 -2 -5 -6z"/>
<path d="M3748 3223 c7 -3 16 -2 19 1 4 3 -2 6 -13 5 -11 0 -14 -3 -6 -6z"/>
<path d="M2798 3073 c19 -8 14 -21 -10 -25 -29 -4 -32 -41 -4 -46 10 -2 16 0
12 6 -3 5 0 15 8 21 10 8 16 8 25 -2 6 -8 8 -16 5 -19 -2 -3 2 -8 10 -11 9 -4
16 2 20 15 7 28 0 38 -26 38 -14 0 -18 5 -14 15 4 11 -1 15 -17 14 -12 0 -16
-3 -9 -6z"/>
<path d="M3280 3045 c0 -5 5 -17 10 -25 5 -8 10 -10 10 -5 0 6 -5 17 -10 25
-5 8 -10 11 -10 5z"/>
<path d="M2877 3016 c-3 -8 3 -22 13 -31 16 -15 22 -15 35 -5 21 17 19 25 -10
38 -32 15 -32 15 -38 -2z"/>
<path d="M3300 2994 c0 -6 7 -19 16 -30 14 -18 14 -18 3 6 -14 31 -19 36 -19
24z"/>
<path d="M2768 2983 c-10 -2 -18 -12 -18 -21 0 -15 2 -15 10 -2 7 11 10 11 10
2 0 -10 5 -10 20 -2 15 8 20 8 20 -2 0 -8 3 -9 8 -3 9 13 32 18 32 7 0 -4 9
-8 20 -8 27 0 25 10 -5 24 -26 12 -64 14 -97 5z"/>
<path d="M2820 2860 c8 -5 20 -10 25 -10 6 0 3 5 -5 10 -8 5 -19 10 -25 10 -5
0 -3 -5 5 -10z"/>
<path d="M2797 2839 c7 -7 15 -10 18 -7 3 3 -2 9 -12 12 -14 6 -15 5 -6 -5z"/>
<path d="M2800 2761 c0 -12 28 -22 35 -12 3 5 -2 12 -11 15 -21 8 -24 8 -24
-3z"/>
<path d="M2856 2691 c-4 -7 -5 -15 -2 -18 9 -9 19 4 14 18 -4 11 -6 11 -12 0z"/>
<path d="M2816 2645 c-4 -10 1 -15 14 -15 13 0 18 5 14 15 -4 8 -10 15 -14 15
-4 0 -10 -7 -14 -15z"/>
<path d="M2870 2588 c0 -6 3 -9 6 -5 4 3 15 -4 25 -16 10 -12 18 -17 19 -11 0
11 -32 44 -43 44 -4 0 -7 -5 -7 -12z"/>
<path d="M2890 2463 c0 -6 8 -17 18 -24 16 -13 16 -13 2 6 -8 11 -16 22 -17
24 -2 2 -3 0 -3 -6z"/>
<path d="M2805 2330 c3 -5 8 -10 11 -10 2 0 4 5 4 10 0 6 -5 10 -11 10 -5 0
-7 -4 -4 -10z"/>
<path d="M3976 1088 c-8 -12 -12 -26 -9 -32 16 -28 139 -196 143 -196 3 0 11
9 18 21 11 18 11 24 -4 40 -16 18 -16 21 7 54 20 30 28 35 51 31 20 -4 31 0
43 17 15 22 15 22 -102 54 -65 18 -121 33 -125 33 -4 0 -14 -10 -22 -22z m103
-49 c35 -12 36 -16 17 -41 -12 -17 -14 -17 -27 0 -48 57 -47 61 10 41z"/>
<path d="M3814 896 c-29 -29 -34 -41 -34 -81 0 -42 5 -52 38 -86 42 -41 78
-55 118 -45 36 9 74 50 74 80 0 19 4 23 19 19 39 -10 33 19 -13 65 l-46 47
-37 -37 c-31 -32 -35 -39 -23 -53 12 -14 15 -14 36 6 21 20 24 20 30 5 19 -49
-32 -98 -84 -80 -27 10 -72 66 -72 91 0 23 49 66 67 59 18 -7 56 22 47 35 -3
5 -23 9 -46 9 -32 0 -47 -7 -74 -34z"/>
<path d="M3633 732 l-23 -17 36 -115 c20 -63 37 -116 39 -118 2 -2 13 1 24 7
17 9 19 16 11 36 -8 21 -5 28 26 51 31 24 38 25 58 14 20 -10 28 -10 45 2 20
14 17 18 -83 86 -57 40 -106 72 -108 72 -1 0 -13 -8 -25 -18z m92 -86 c20 -16
20 -16 1 -31 -27 -20 -33 -19 -40 9 -3 13 -9 32 -12 41 -6 15 -4 16 12 7 10
-6 28 -18 39 -26z"/>
<path d="M3411 595 l-71 -34 52 -106 c52 -104 60 -113 86 -96 11 7 10 16 -7
49 l-21 41 29 16 c43 22 53 19 78 -20 21 -31 25 -33 47 -24 l24 11 -30 44
c-16 24 -34 44 -39 44 -5 0 -9 15 -9 33 0 34 -18 58 -52 70 -9 3 -48 -10 -87
-28z m89 -30 c17 -21 7 -41 -31 -61 -31 -15 -33 -15 -46 2 -20 27 -16 42 15
58 35 19 47 20 62 1z"/>
<path d="M3173 502 c-28 -10 -55 -20 -58 -23 -6 -7 52 -208 64 -221 10 -11
143 38 158 58 20 27 16 62 -11 89 -16 16 -22 31 -19 45 3 11 -2 31 -11 45 -19
29 -46 31 -123 7z m85 -49 c2 -16 -5 -24 -32 -33 -40 -13 -56 -7 -56 19 0 12
12 22 33 28 41 14 51 11 55 -14z m33 -79 c18 -22 1 -46 -40 -58 -25 -7 -35 -6
-42 5 -16 26 -9 47 19 57 39 15 48 14 63 -4z"/>
<path d="M2832 423 l-54 -4 7 -112 c4 -62 11 -116 15 -121 5 -5 47 -5 94 -1
77 6 86 9 86 27 0 19 -5 20 -70 16 l-70 -4 0 33 0 33 55 0 c51 0 55 2 55 24 0
23 -2 24 -60 19 -59 -6 -60 -5 -60 19 0 23 4 26 62 32 69 7 73 9 65 31 -6 15
-11 16 -125 8z"/>
<path d="M1619 2493 c-6 -16 -14 -47 -16 -70 l-6 -43 43 0 42 0 -7 46 c-8 53
-24 94 -37 94 -5 0 -13 -12 -19 -27z"/>
<path d="M1762 2507 c-14 -17 -34 -106 -27 -118 10 -15 85 -11 85 4 0 23 -30
116 -39 121 -5 3 -14 0 -19 -7z"/>
<path d="M1640 2085 l0 -125 65 0 65 0 0 125 0 125 -65 0 -65 0 0 -125z"/>
</g>
</svg>
