<?xml version="1.0" standalone="no"?>
<!DOCTYPE svg PUBLIC "-//W3C//DTD SVG 20010904//EN"
 "http://www.w3.org/TR/2001/REC-SVG-20010904/DTD/svg10.dtd">
<svg version="1.0" xmlns="http://www.w3.org/2000/svg"
 width="1200.000000pt" height="1189.000000pt" viewBox="0 0 1200.000000 1189.000000"
 preserveAspectRatio="xMidYMid meet">

<g transform="translate(0.000000,1189.000000) scale(0.100000,-0.100000)"
fill="#000000" stroke="none">
<path d="M4830 11729 c-60 -27 -127 -93 -156 -154 -22 -47 -31 -95 -19 -107 3
-3 44 11 91 30 120 48 187 53 257 18 76 -37 103 -101 62 -146 -35 -38 -139
-17 -189 39 -11 12 -27 21 -38 21 -15 0 -18 -8 -18 -55 0 -31 6 -68 14 -84 23
-44 100 -100 188 -137 44 -19 94 -44 110 -56 37 -26 78 -110 78 -161 0 -21 6
-40 13 -42 6 -3 37 1 67 9 30 8 57 13 59 10 9 -9 -20 -82 -39 -99 -45 -40 -18
-63 81 -68 59 -3 75 -7 77 -20 5 -27 -65 -134 -103 -157 -50 -31 -60 -55 -36
-79 23 -23 80 -36 116 -27 40 10 47 -1 25 -43 -44 -87 -178 -171 -246 -155
-83 19 -154 85 -254 235 -103 154 -166 207 -269 224 -55 9 -74 28 -136 138
-108 195 -338 342 -627 401 -88 18 -542 62 -798 77 -217 12 -1104 12 -1272 -1
-67 -5 -482 -10 -921 -11 -675 -1 -799 -3 -804 -15 -12 -33 13 -73 105 -164
110 -109 175 -147 337 -200 55 -18 106 -40 113 -49 99 -129 149 -168 294 -233
74 -33 102 -52 141 -95 95 -103 215 -182 409 -266 22 -10 52 -37 76 -69 21
-29 59 -69 83 -89 115 -93 299 -199 419 -241 62 -22 230 -58 267 -58 13 0 54
-21 90 -47 82 -59 220 -107 398 -138 72 -13 167 -36 212 -52 75 -25 84 -31 94
-60 15 -47 63 -91 117 -106 41 -12 49 -19 60 -53 7 -21 23 -50 35 -63 29 -31
94 -61 134 -61 18 0 54 -12 80 -26 40 -22 56 -25 100 -20 43 5 60 2 99 -19 52
-28 134 -34 178 -14 20 10 32 8 61 -5 50 -24 134 -31 180 -16 38 12 39 12 66
-21 25 -30 33 -34 76 -33 62 1 122 32 169 88 l37 45 36 -41 c30 -33 44 -41 83
-45 65 -8 129 12 179 55 35 30 44 34 60 24 10 -7 55 -12 99 -12 44 0 80 -1 80
-3 0 -1 -9 -34 -20 -72 -34 -118 -22 -151 38 -109 13 9 26 13 30 10 3 -4 1
-33 -6 -64 -26 -128 -8 -191 52 -176 l26 6 0 -94 c0 -108 15 -200 37 -235 19
-28 28 -29 50 -3 20 23 33 26 33 7 0 -8 10 -34 23 -59 l23 -46 -26 -59 c-15
-32 -48 -81 -74 -110 -53 -59 -102 -81 -251 -115 -88 -20 -200 -71 -273 -125
-18 -13 -63 -35 -100 -47 -82 -28 -310 -125 -401 -170 -49 -25 -75 -32 -102
-29 -64 8 -346 -57 -584 -134 -540 -175 -1240 -518 -1873 -916 -265 -168 -283
-179 -279 -183 2 -2 156 -17 342 -34 186 -16 339 -31 340 -32 1 -2 -14 -129
-35 -283 -20 -154 -36 -282 -34 -283 1 -2 94 57 206 131 214 141 364 237 373
237 3 0 -5 -17 -18 -37 -51 -81 -168 -315 -227 -452 -409 -961 -425 -2045 -43
-3016 387 -984 1170 -1789 2140 -2199 349 -147 674 -236 1053 -286 226 -31
619 -38 850 -16 693 67 1304 283 1870 661 726 486 1258 1179 1543 2011 321
936 283 1957 -108 2863 -43 100 -159 334 -204 409 -17 29 -31 55 -31 58 0 7
143 -84 374 -238 l208 -140 -6 39 c-15 92 -67 535 -64 538 2 2 152 16 333 31
182 15 334 30 338 34 4 4 -61 52 -145 107 -734 479 -1534 868 -2135 1038 -208
58 -408 98 -451 90 -28 -5 -54 4 -156 53 -66 33 -177 83 -245 112 -101 42
-134 61 -175 101 -28 27 -66 64 -84 81 -32 30 -90 57 -125 58 -9 0 -66 25
-127 55 -90 45 -114 62 -139 99 -17 25 -31 51 -31 59 0 8 19 43 41 77 42 63
58 66 59 12 0 -27 24 -39 45 -22 24 20 54 114 67 210 l12 90 32 -31 33 -32 22
49 c11 27 28 83 37 124 l16 76 -31 57 c-17 31 -27 57 -22 57 4 0 26 -17 49
-38 50 -49 63 -38 66 56 3 64 4 67 33 81 29 14 33 13 59 -11 56 -52 141 -43
217 25 l46 40 27 -25 c42 -40 66 -48 137 -48 63 0 133 23 150 50 3 5 25 7 49
4 56 -8 109 10 156 52 l37 33 42 -21 c51 -25 136 -27 182 -4 27 13 42 14 95 5
73 -13 112 -4 158 36 21 18 41 25 70 25 23 0 52 7 65 16 26 18 60 87 61 121 0
13 12 28 34 41 19 12 44 39 56 61 13 26 29 43 45 47 14 3 53 24 87 46 58 37
69 41 165 49 145 13 184 23 299 79 78 38 112 61 150 102 43 47 56 55 109 67
325 70 554 185 733 369 69 70 110 103 153 123 146 69 324 218 381 319 13 22
32 43 43 46 46 15 139 90 219 176 71 78 94 96 138 111 121 42 232 105 307 173
61 56 101 111 101 138 0 15 -77 24 -124 15 -31 -6 -250 -9 -551 -7 -275 1
-538 2 -585 2 -47 -1 -508 -4 -1025 -7 -1167 -7 -1175 -8 -1536 -127 -162 -53
-200 -71 -276 -127 -53 -38 -172 -178 -225 -264 -18 -30 -38 -49 -55 -54 -44
-11 -130 -73 -186 -136 -60 -66 -102 -143 -118 -218 -13 -60 -53 -96 -132
-117 -85 -22 -89 -21 -146 55 -28 38 -74 88 -102 111 -58 50 -54 68 11 46 50
-17 60 -14 60 18 0 44 -55 131 -128 205 -40 40 -70 76 -67 79 3 4 25 6 48 7
41 0 42 1 41 32 -2 40 -54 114 -117 163 -46 37 -89 55 -246 100 -67 20 -72 23
-58 37 8 9 38 18 66 21 92 8 51 53 -87 93 -40 12 -75 26 -78 30 -5 9 59 29 94
29 13 0 22 6 22 16 0 20 -88 59 -167 75 -35 6 -63 15 -63 18 0 4 11 22 25 41
34 46 33 64 -2 55 -54 -14 -169 -17 -223 -5 -30 7 -134 46 -230 87 -249 106
-330 121 -439 84 l-54 -19 -51 24 c-44 21 -66 24 -161 24 -89 0 -119 -4 -155
-21z m270 -24 c60 -21 70 -32 70 -75 0 -29 5 -39 19 -43 26 -6 31 0 31 39 0
41 18 52 97 60 74 8 145 -10 283 -71 145 -65 287 -114 356 -123 l59 -8 -37
-13 c-26 -8 -38 -19 -38 -31 0 -27 26 -38 76 -32 23 2 72 -1 108 -8 l66 -12
-45 -50 c-25 -28 -45 -56 -45 -63 0 -13 51 -25 107 -25 17 0 43 -4 58 -10 l26
-10 -21 -29 c-46 -61 -2 -106 121 -122 97 -12 206 -65 253 -123 41 -50 43 -56
16 -56 -36 0 -90 -32 -90 -54 0 -29 10 -40 47 -60 65 -33 171 -146 157 -167
-3 -5 -25 -9 -49 -9 -58 0 -95 -17 -95 -44 0 -30 10 -41 57 -65 40 -20 145
-118 164 -153 8 -14 1 -18 -49 -28 -89 -18 -107 -25 -110 -47 -2 -14 9 -27 35
-45 48 -32 143 -117 143 -128 0 -5 -23 -10 -52 -12 -30 -2 -53 -8 -56 -15 -2
-7 34 -51 81 -98 86 -88 165 -191 153 -202 -3 -3 -23 -1 -44 5 -41 12 -82 6
-82 -12 0 -6 6 -20 14 -31 20 -31 53 -125 60 -178 l7 -48 -44 6 c-25 4 -54 4
-66 0 -39 -12 -9 -33 80 -55 104 -26 156 -59 200 -128 34 -54 66 -151 75 -228
l7 -53 -48 15 c-27 8 -59 14 -72 14 -34 0 -30 -42 9 -96 36 -51 48 -128 28
-188 l-12 -36 -32 25 c-60 45 -157 26 -200 -40 l-17 -25 -32 33 c-33 32 -104
57 -163 57 -53 0 -116 -52 -143 -119 -16 -36 -20 -37 -52 -13 -54 41 -99 38
-99 -6 0 -21 -3 -23 -12 -14 -9 9 -13 49 -13 125 0 96 3 118 23 158 28 58 28
69 -2 69 -32 0 -52 -29 -78 -114 -38 -125 -14 -291 51 -350 29 -26 49 -14 62
39 13 51 22 55 58 21 15 -13 36 -27 48 -30 17 -5 23 -1 30 21 8 24 11 15 21
-62 12 -95 5 -182 -17 -209 -7 -9 -45 -36 -85 -62 -39 -26 -84 -59 -101 -74
-16 -15 -45 -32 -63 -38 -30 -10 -38 -9 -65 12 -18 13 -38 26 -44 30 -8 4 -34
-13 -67 -44 l-54 -51 -47 50 c-26 28 -51 51 -55 51 -3 0 -24 -15 -46 -33 -43
-38 -56 -37 -99 4 -16 15 -66 41 -110 56 -64 23 -83 34 -97 60 -18 31 -18 33
8 162 l27 131 33 -6 c31 -6 32 -5 55 55 l24 61 18 -22 c43 -54 67 -100 67
-127 0 -27 31 -71 51 -71 4 0 32 20 62 45 71 57 90 103 88 210 -2 133 -34 221
-94 255 -21 12 -29 12 -39 2 -10 -10 -9 -18 5 -40 56 -85 78 -191 63 -295 -7
-43 -58 -113 -76 -102 -4 3 -11 26 -15 52 -4 30 -20 68 -43 101 -69 101 -152
111 -152 18 0 -56 -10 -56 -53 -3 -25 31 -62 62 -90 76 -43 21 -51 22 -80 10
-17 -7 -46 -28 -64 -47 -17 -19 -36 -31 -42 -27 -21 13 -49 81 -56 137 -8 65
-20 74 -72 53 -19 -8 -37 -15 -39 -15 -13 0 0 104 21 167 14 42 24 82 21 90
-7 18 -47 16 -74 -3 -35 -24 -37 -11 -9 50 55 120 122 181 255 232 40 15 71
33 69 38 -2 6 -21 16 -43 22 -36 10 -39 13 -42 51 -4 47 29 152 60 194 39 52
-4 63 -96 24 -19 -8 -19 -8 0 25 10 18 36 46 57 63 34 28 50 67 28 67 -23 0
-68 -23 -94 -48 -61 -58 -121 -199 -96 -228 17 -21 40 -17 72 14 l30 27 -6
-25 c-3 -14 -11 -54 -17 -90 -17 -104 -18 -107 -51 -121 -18 -7 -56 -37 -87
-66 -75 -74 -104 -87 -183 -88 -50 0 -72 4 -86 18 -32 28 -57 20 -111 -34 -51
-51 -52 -52 -104 -47 -53 6 -64 13 -131 97 -29 36 -40 26 -83 -73 -28 -64
-150 -109 -188 -70 -9 8 -16 16 -16 18 0 1 23 26 50 54 47 49 62 84 41 97 -5
3 -35 -17 -67 -45 -55 -48 -147 -100 -178 -100 -8 0 -27 5 -42 10 l-27 11 42
43 c44 44 51 78 20 84 -9 2 -38 -16 -65 -39 -81 -70 -154 -94 -218 -69 l-26 9
45 47 c52 53 65 88 42 111 -17 17 -26 10 -79 -59 -34 -44 -101 -78 -156 -78
-52 0 -61 15 -29 48 31 34 60 90 52 102 -8 12 -45 13 -45 1 0 -4 -19 -29 -43
-55 -39 -41 -48 -46 -87 -46 -48 0 -103 29 -122 63 -6 12 -11 37 -9 54 2 35 2
34 -80 48 -20 3 -45 15 -57 28 l-21 22 118 1 c146 2 262 31 423 105 110 51
115 52 196 50 l82 -3 58 -57 c44 -45 67 -59 102 -67 34 -7 48 -16 58 -36 16
-35 92 -99 135 -115 74 -27 182 -10 265 42 l54 33 51 -23 c108 -48 239 -41
310 17 35 27 46 31 96 29 46 -1 61 2 76 19 10 11 16 22 13 25 -2 3 -40 10 -82
16 l-79 10 -31 -30 c-80 -78 -217 -82 -308 -9 l-37 29 -50 -37 c-121 -86 -234
-95 -313 -25 -33 30 -31 51 5 51 29 1 158 56 169 72 12 20 10 28 -14 37 -16 6
-38 1 -74 -16 -67 -30 -140 -39 -201 -24 -53 13 -127 57 -119 70 3 5 23 11 44
15 76 12 172 46 172 62 0 28 -44 38 -92 21 -55 -20 -151 -32 -253 -31 -64 0
-87 4 -114 21 -34 21 -34 22 -10 27 13 3 67 12 119 21 152 23 290 70 290 99 0
34 -25 34 -141 1 -153 -44 -294 -64 -384 -55 -75 8 -170 40 -207 70 l-23 18
35 6 c19 3 70 7 113 10 99 7 169 25 326 83 l125 45 67 -16 c37 -9 74 -16 82
-16 8 0 20 -14 27 -30 28 -67 153 -140 239 -140 33 0 41 -5 62 -37 13 -21 46
-53 73 -70 43 -30 55 -33 120 -33 46 1 91 8 126 21 90 33 92 33 102 15 12 -21
81 -56 111 -56 13 0 32 6 42 14 16 12 17 16 6 30 -7 9 -24 16 -37 16 -41 0
-68 17 -93 58 l-25 40 -70 -36 c-64 -32 -79 -36 -153 -37 -76 0 -84 2 -119 30
-20 17 -37 35 -37 40 1 6 31 21 67 35 72 28 106 52 106 75 0 26 -44 17 -132
-26 -71 -35 -90 -40 -129 -35 -59 6 -174 58 -188 84 -9 18 -6 20 37 25 63 7
207 54 221 71 6 7 8 21 5 31 -8 19 -8 19 -129 -15 -92 -26 -228 -31 -289 -11
-21 7 -57 32 -80 55 l-41 41 100 6 c108 7 251 40 274 64 11 11 12 17 2 28 -10
13 -21 12 -84 -4 -39 -11 -119 -22 -177 -26 -93 -5 -116 -3 -183 17 -43 13
-80 26 -82 30 -3 4 30 13 71 20 42 6 99 20 128 30 53 18 136 57 136 64 0 3 3
11 6 20 10 26 -35 20 -117 -15 -132 -57 -301 -67 -351 -22 -18 16 -18 17 4 30
13 7 41 18 63 24 86 23 225 107 225 135 0 22 -68 6 -155 -37 -132 -65 -264
-88 -333 -60 -18 8 -32 16 -32 20 0 3 51 32 114 64 112 58 185 115 172 136
-12 18 -40 12 -77 -15 -19 -15 -75 -46 -124 -70 -152 -73 -282 -79 -362 -18
-18 14 -33 28 -33 32 0 4 35 20 78 36 178 67 308 147 295 182 -8 22 -28 17
-111 -31 -160 -93 -366 -154 -477 -141 -55 6 -145 34 -145 44 0 4 36 18 80 31
44 13 130 48 191 77 86 42 110 58 107 71 -6 31 -41 25 -148 -26 -162 -76 -259
-104 -360 -105 -101 0 -152 13 -217 58 -43 29 -93 87 -93 106 0 7 48 21 165
49 21 4 31 14 33 29 3 18 -1 22 -25 22 -16 0 -56 -9 -89 -19 -239 -77 -662
-122 -824 -87 -99 21 -209 75 -262 128 -33 33 -118 157 -118 172 0 6 1032 21
1270 18 292 -3 587 -16 875 -38 435 -33 631 -85 804 -213 82 -61 191 -173 220
-226 11 -22 25 -47 30 -55 5 -8 14 -27 19 -42 8 -20 22 -30 54 -37 121 -30
218 -107 301 -240 104 -166 203 -241 316 -241 74 1 129 27 194 92 51 52 63 70
86 133 8 22 24 35 56 49 25 10 61 29 80 42 41 28 45 18 9 -25 -14 -17 -23 -38
-20 -46 7 -20 88 -20 149 1 50 17 124 77 146 118 8 14 18 26 22 26 15 0 20
-45 10 -73 -8 -20 -7 -30 5 -42 20 -20 23 -19 66 10 66 45 111 173 72 206 -14
11 -18 10 -30 -6 -8 -10 -14 -30 -14 -44 -1 -14 -7 -37 -14 -49 l-13 -24 -13
34 c-36 90 -102 131 -116 71 -19 -88 -44 -123 -111 -157 -48 -24 -52 -21 -42
26 12 50 4 90 -21 113 -18 16 -21 15 -69 -37 -62 -67 -138 -106 -223 -115
l-63 -6 38 42 c74 82 108 198 73 246 -12 17 -17 18 -40 7 -15 -7 -41 -12 -58
-12 -27 0 -30 3 -23 23 23 75 27 100 21 132 -8 41 -41 55 -78 32 -12 -8 -33
-18 -45 -21 -19 -6 -23 -2 -29 31 -10 59 -52 140 -83 162 -15 11 -76 43 -134
71 -64 31 -116 63 -132 82 -14 17 -24 32 -21 35 2 2 32 -8 66 -22 54 -23 66
-25 97 -14 49 16 75 61 70 120 -5 61 -36 103 -100 136 -44 23 -64 27 -137 27
-57 -1 -98 -6 -124 -17 -48 -21 -46 -21 -46 5 0 34 79 103 146 127 67 24 160
22 234 -4z m5518 -395 c-6 -28 -139 -129 -212 -159 -136 -56 -305 -91 -451
-91 -119 0 -407 44 -493 75 -79 28 -102 27 -102 -5 0 -24 39 -42 155 -72 44
-12 83 -24 88 -28 4 -3 -21 -33 -55 -67 -82 -78 -165 -109 -269 -100 -85 7
-255 72 -333 128 -62 44 -91 47 -91 10 0 -20 18 -35 110 -87 61 -35 132 -71
158 -80 26 -9 46 -21 44 -27 -1 -7 -21 -21 -43 -32 -31 -16 -58 -20 -134 -20
-83 1 -105 5 -176 33 -44 18 -110 50 -147 72 -67 41 -97 44 -97 9 0 -10 4 -19
9 -19 5 0 42 -22 84 -49 41 -27 83 -51 93 -53 59 -11 -8 -50 -108 -62 -97 -12
-264 30 -358 89 -22 14 -46 25 -54 25 -15 0 -29 -27 -21 -41 12 -19 104 -65
190 -95 89 -32 90 -32 60 -44 -106 -43 -279 -33 -387 21 -32 16 -64 29 -72 29
-16 0 -29 -27 -20 -42 13 -20 145 -76 209 -88 72 -14 74 -24 9 -55 -89 -42
-220 -40 -318 5 -53 24 -60 24 -75 7 -8 -11 -7 -18 7 -29 58 -50 149 -78 249
-78 56 0 56 0 38 -20 -10 -11 -43 -32 -74 -48 -51 -25 -65 -27 -161 -26 -58 1
-116 3 -130 5 -17 3 -25 -1 -28 -14 -6 -30 60 -49 170 -51 54 0 98 -5 98 -9 0
-4 -21 -29 -47 -55 -82 -81 -193 -97 -334 -48 -87 30 -125 26 -101 -11 10 -16
136 -69 185 -78 20 -4 37 -12 37 -19 -1 -31 -60 -75 -121 -89 -37 -9 -121 18
-149 48 -13 14 -31 25 -41 25 -22 0 -32 -26 -19 -50 23 -44 10 -94 -31 -115
-45 -24 -85 -19 -121 15 -28 27 -48 38 -48 26 0 -2 -3 -11 -6 -19 -3 -9 9 -32
31 -56 36 -39 40 -41 97 -41 56 0 63 3 93 35 19 19 36 49 40 66 6 25 11 30 28
25 112 -27 192 -14 257 41 l41 35 35 -29 c124 -98 202 -132 323 -141 l85 -7
-55 -29 c-107 -59 -282 -45 -378 30 -24 19 -50 34 -57 34 -20 0 -28 -39 -11
-58 28 -31 121 -81 176 -95 l54 -14 -39 -15 c-96 -38 -198 -27 -263 28 -32 26
-71 29 -79 6 -7 -22 65 -80 122 -98 49 -15 53 -19 43 -36 -18 -28 -88 -58
-138 -58 -53 0 -112 26 -161 69 -20 17 -40 31 -44 31 -5 -1 -22 -24 -39 -53
-16 -28 -42 -58 -56 -66 -24 -13 -30 -12 -69 8 -38 19 -45 20 -58 8 -25 -26
-6 -52 52 -72 66 -22 101 -12 147 44 25 31 32 34 47 24 66 -47 168 -70 232
-53 56 15 131 67 143 100 9 23 18 30 37 30 48 0 127 30 188 70 33 22 66 40 74
40 8 0 56 20 106 45 l91 45 56 -55 c105 -103 318 -182 463 -173 55 3 61 2 46
-9 -10 -7 -24 -11 -31 -9 -21 9 -63 -12 -63 -31 0 -9 9 -26 20 -38 18 -19 19
-26 9 -47 -44 -97 -209 -31 -228 91 -5 30 -11 37 -34 39 -24 3 -27 0 -27 -28
0 -40 29 -96 74 -141 31 -32 34 -38 21 -49 -8 -7 -34 -14 -58 -17 -73 -7 -141
54 -170 152 -25 87 -70 62 -47 -27 6 -24 23 -60 36 -81 29 -44 22 -61 -26 -72
-76 -17 -153 40 -181 134 -8 28 -21 47 -36 54 -34 15 -38 3 -19 -60 30 -101
30 -105 -2 -136 -36 -35 -91 -44 -147 -24 -31 11 -46 24 -66 62 -31 55 -57 75
-70 54 -13 -20 -2 -58 30 -105 40 -58 29 -74 -54 -74 -58 0 -66 3 -94 31 -18
18 -31 41 -31 55 0 33 -17 64 -35 64 -9 0 -26 -23 -39 -52 -27 -62 -60 -95
-107 -108 -57 -17 -85 -12 -104 16 -17 27 -32 28 -92 9 -18 -6 -25 -2 -34 21
-57 141 -111 217 -184 260 -40 23 -45 30 -55 82 -6 31 -18 79 -26 106 -8 26
-13 50 -11 53 3 2 20 -4 40 -13 38 -18 64 -14 73 11 14 36 -64 176 -154 277
-40 44 -42 47 -17 38 38 -14 75 -12 81 5 9 23 -41 99 -116 175 -74 76 -75 87
-2 77 51 -7 218 29 267 58 46 26 54 39 91 145 15 41 39 94 55 116 44 65 127
134 204 170 64 30 73 39 104 94 65 114 163 210 282 275 89 48 413 149 562 175
113 20 375 25 1290 25 780 0 897 -2 895 -15z m1132 1 c-37 -70 -229 -183 -372
-220 -280 -72 -677 -76 -872 -8 l-36 12 76 55 c42 30 97 80 121 112 l45 57
492 -5 c333 -4 499 -3 516 4 36 16 42 14 30 -7z m-10424 -72 c63 -114 154
-213 240 -265 11 -7 16 -15 13 -18 -4 -4 -64 -14 -135 -22 -152 -19 -487 -13
-624 10 -262 44 -487 152 -581 280 l-30 41 73 8 c40 4 271 10 512 12 242 3
442 7 445 10 3 3 17 5 30 3 19 -2 33 -17 57 -59z m9131 -200 c15 -6 100 -22
188 -36 185 -29 367 -35 497 -15 47 8 97 12 110 10 22 -3 21 -5 -19 -48 -151
-164 -457 -259 -835 -260 -151 0 -338 24 -407 53 l-34 14 96 46 c121 57 220
121 296 192 66 60 67 60 108 44z m-173 -13 c-8 -20 -124 -101 -201 -140 -186
-93 -365 -129 -546 -108 -56 6 -113 15 -127 20 -22 8 -20 10 30 27 91 30 123
50 193 124 l67 72 82 -11 c129 -16 311 -12 408 9 47 11 88 19 92 20 4 1 5 -5
2 -13z m-7837 -83 c27 -47 73 -92 135 -131 l47 -29 -53 -12 c-29 -6 -105 -16
-167 -21 -332 -28 -502 7 -638 129 l-55 48 190 1 c175 0 336 15 444 41 65 16
75 13 97 -26z m-750 -77 c46 -54 159 -131 205 -141 18 -4 65 -18 103 -30 l70
-23 -40 -10 c-146 -39 -584 -50 -763 -19 -175 30 -364 110 -446 189 -27 26
-47 50 -44 53 3 3 81 -2 174 -10 93 -8 210 -15 259 -15 95 0 335 24 395 39 19
5 38 9 42 10 3 1 24 -19 45 -43z m7968 -143 c83 3 159 8 170 12 11 4 -15 -27
-57 -69 -99 -97 -232 -165 -385 -196 -140 -28 -393 -29 -456 -1 -23 10 -76 29
-117 41 -96 30 -156 55 -186 79 l-25 19 58 11 c32 6 90 27 128 45 65 33 73 34
120 25 93 -19 241 13 302 65 l25 22 137 -29 c124 -26 149 -28 286 -24z m-6801
18 c46 -51 219 -87 306 -64 31 8 37 6 73 -29 21 -20 61 -48 89 -61 l50 -24
-83 -23 c-156 -42 -251 -52 -434 -47 -196 5 -260 19 -480 98 -157 57 -181 70
-144 80 13 4 49 7 79 8 77 1 276 30 395 56 127 29 129 29 149 6z m8087 -49
c-17 -32 -125 -128 -186 -164 -97 -58 -290 -143 -429 -187 -349 -111 -709
-129 -1127 -55 l-37 6 37 32 c64 56 70 59 160 72 49 7 115 22 147 34 32 11 65
20 74 20 33 0 178 98 255 172 l81 77 66 -19 c264 -73 595 -72 868 4 107 30
102 29 91 8z m-8721 -108 c108 -52 332 -122 430 -135 91 -12 120 -22 120 -42
0 -7 27 -41 60 -77 33 -35 58 -65 57 -66 -48 -43 -744 -66 -928 -31 -267 52
-669 229 -764 337 l-20 23 55 -7 c149 -18 317 -23 465 -15 149 9 374 35 384
45 14 13 76 -1 141 -32z m6368 -48 c28 -19 70 -41 94 -50 24 -8 87 -32 141
-51 100 -37 151 -49 267 -62 l65 -8 -59 -43 c-110 -79 -290 -114 -445 -88 -47
8 -116 24 -152 35 -73 23 -242 120 -247 142 -1 8 17 35 40 60 38 39 53 47 118
63 41 10 82 22 90 27 24 14 35 11 88 -25z m-5025 -27 c33 -23 58 -32 105 -36
57 -5 66 -9 109 -53 27 -26 54 -49 61 -51 8 -3 10 -11 7 -22 -12 -29 -151 -64
-391 -96 -126 -17 -151 -17 -255 -5 -200 23 -304 72 -362 169 -4 7 30 11 102
12 114 2 334 41 486 87 44 14 83 25 87 25 4 1 27 -13 51 -30z m4685 -178 c76
-52 145 -85 237 -116 105 -35 165 -45 274 -46 l94 0 -28 -29 c-34 -36 -141
-93 -214 -114 -183 -54 -423 32 -532 191 l-30 42 38 20 c40 20 93 67 93 82 0
14 7 11 68 -30z m2152 -74 c-111 -104 -335 -219 -531 -272 -213 -58 -553 -80
-749 -50 -92 14 -254 61 -307 89 l-26 13 67 53 c36 29 71 61 77 72 6 11 38 32
72 47 59 27 64 27 122 14 83 -18 318 -45 445 -50 241 -11 582 34 779 101 53
19 98 34 101 34 3 1 -20 -22 -50 -51z m-6420 11 c45 -17 58 -28 73 -58 9 -20
17 -39 17 -43 0 -24 -239 -103 -375 -123 -179 -27 -342 -11 -458 47 -55 27
-127 83 -127 98 0 4 69 6 153 6 182 1 399 31 532 74 97 31 101 31 185 -1z
m-2135 -75 c120 -33 143 -35 310 -40 277 -8 711 25 842 63 17 5 25 0 36 -23
21 -39 103 -117 155 -146 l43 -24 -73 -21 c-140 -41 -251 -62 -401 -76 -292
-28 -345 -29 -442 -11 -241 44 -347 92 -542 242 -86 66 -111 92 -77 79 10 -4
77 -23 149 -43z m6237 -77 c36 -36 90 -77 124 -94 66 -33 203 -72 254 -72 26
0 30 -3 21 -14 -17 -20 -148 -73 -217 -86 -138 -27 -331 27 -423 119 -23 23
-41 45 -41 49 0 4 20 13 44 20 52 13 123 65 151 110 11 17 21 31 22 32 0 0 30
-29 65 -64z m802 -175 c215 -63 443 -86 658 -65 l73 7 -25 -28 c-35 -38 -174
-103 -261 -121 -93 -20 -305 -14 -394 11 -170 48 -350 140 -350 180 0 25 120
78 146 64 9 -4 78 -26 153 -48z m-5441 23 c15 -27 52 -56 102 -82 l50 -25 -60
-28 c-333 -156 -684 -167 -932 -29 -40 23 -73 42 -73 44 0 2 53 9 118 15 262
26 308 33 448 66 80 19 153 35 162 35 10 0 28 7 42 14 31 18 131 10 143 -10z
m5160 -136 c113 -71 214 -116 319 -142 98 -25 99 -29 14 -65 -109 -47 -266
-47 -388 -1 -89 34 -230 153 -213 180 3 4 34 18 69 30 35 11 72 27 82 35 10 8
22 15 27 15 4 0 44 -23 90 -52z m-4828 -39 c19 -17 35 -35 35 -40 0 -15 -124
-67 -250 -104 -120 -35 -130 -37 -235 -31 -113 5 -194 22 -179 35 5 5 42 13
82 20 41 6 144 36 230 67 234 82 235 82 259 83 12 1 38 -13 58 -30z m2894
-1043 c6 -7 15 -34 20 -58 l8 -46 -41 -5 c-50 -7 -54 -5 -62 40 -6 32 -4 39
22 60 34 27 38 28 53 9z m301 -62 c0 -36 -5 -85 -11 -110 -11 -42 -13 -44 -30
-28 -10 9 -33 17 -51 17 -30 2 -33 -1 -34 -28 -1 -33 -29 -95 -43 -95 -7 0
-46 170 -55 240 -2 14 -7 33 -11 43 -4 9 -3 17 2 17 14 0 36 -29 56 -72 26
-60 58 -48 130 45 15 21 32 37 37 37 6 0 10 -30 10 -66z m-1413 14 c14 -13 23
-33 23 -50 0 -27 -3 -29 -32 -26 -29 3 -33 7 -36 36 -4 36 3 62 15 62 3 0 17
-10 30 -22z m-127 -137 c-20 -86 -24 -93 -36 -76 -8 10 -14 30 -14 44 -1 73
-28 91 -70 46 -22 -24 -25 -24 -31 -8 -4 10 -8 45 -8 78 l-1 59 38 -37 c50
-49 75 -48 109 5 l28 42 3 -29 c2 -16 -6 -71 -18 -124z m1275 29 c7 -11 0 -14
-50 -25 -29 -6 -29 -6 -11 14 20 22 51 28 61 11z m-1161 -6 c28 -11 17 -24
-20 -24 -31 0 -35 2 -24 15 14 17 21 18 44 9z m-20 -65 c21 -10 24 -16 19 -43
-3 -17 -6 -32 -7 -32 -1 -1 -16 1 -34 3 -39 6 -47 19 -33 56 12 30 19 32 55
16z m1194 -1 c17 -17 15 -45 -4 -52 -9 -3 -31 -6 -49 -6 -47 0 -53 25 -12 50
37 23 49 24 65 8z m12 -98 c17 -11 13 -12 -52 -14 -54 -2 -58 1 -25 14 29 12
59 12 77 0z m-1221 -19 c10 -7 5 -11 -17 -16 -34 -7 -56 0 -47 16 8 11 46 12
64 0z m1291 -113 c36 -56 57 -77 105 -105 70 -41 84 -58 85 -100 0 -17 6 -33
13 -36 20 -7 47 12 47 33 0 11 5 20 10 20 6 0 10 -11 10 -24 0 -33 25 -53 45
-36 8 7 15 19 15 26 0 19 9 18 48 -6 24 -15 32 -27 32 -49 0 -16 -6 -31 -13
-34 -8 -3 -49 3 -93 14 -136 32 -160 26 -132 -36 9 -20 9 -31 0 -45 -9 -15 -8
-22 4 -35 15 -15 18 -15 34 0 22 20 38 2 20 -20 -21 -25 -4 -48 30 -41 27 5
30 3 30 -19 0 -40 -39 -32 -85 16 -129 133 -194 166 -182 95 4 -27 1 -34 -24
-48 -34 -20 -30 -48 7 -48 27 0 32 -15 9 -24 -15 -6 -21 -36 -7 -36 5 0 17 -6
27 -14 18 -13 18 -15 2 -40 -10 -14 -23 -26 -31 -26 -32 0 -69 81 -87 194 -13
77 -33 114 -67 122 -56 14 -99 43 -116 79 -19 40 -41 44 -101 20 -50 -22 -79
-12 -70 23 9 39 24 51 36 30 16 -29 39 -22 39 12 0 30 0 30 24 15 23 -15 25
-15 35 4 6 11 11 27 11 35 0 9 27 43 59 75 52 52 66 60 108 66 26 4 53 8 58
10 6 2 12 4 15 4 3 0 25 -32 50 -71z m-1278 45 c4 -2 16 -23 27 -47 10 -24 35
-56 55 -71 30 -23 36 -33 36 -66 0 -33 3 -39 21 -39 12 0 23 8 26 20 9 32 23
23 23 -15 0 -29 4 -35 21 -35 12 0 23 8 26 20 7 26 20 26 28 0 9 -28 -17 -66
-50 -74 -14 -4 -43 -2 -65 4 -33 9 -45 7 -80 -11 -33 -18 -50 -20 -95 -14 -50
6 -57 4 -80 -19 -14 -14 -25 -33 -25 -43 0 -10 -12 -54 -27 -98 -34 -103 -92
-165 -110 -119 -4 11 3 23 18 35 22 18 23 20 7 30 -29 16 -21 37 14 41 42 4
47 24 8 33 -24 5 -30 11 -25 23 16 37 16 49 1 61 -22 18 -38 3 -77 -69 -42
-80 -86 -130 -113 -130 -27 0 -46 18 -46 42 0 21 12 23 42 7 31 -16 43 9 17
37 -23 24 -15 38 13 23 19 -10 20 -8 13 29 -6 39 -5 41 40 72 29 20 45 38 43
48 -6 29 -39 25 -92 -12 -102 -70 -236 -82 -236 -21 0 21 8 30 42 45 43 19 47
18 96 -16 21 -16 22 -15 28 15 4 17 8 31 10 31 2 0 14 -10 26 -22 l22 -22 9
25 c18 48 25 54 73 72 80 29 90 36 156 120 98 125 103 130 141 122 18 -4 35
-9 39 -12z m789 -242 c-6 -10 -22 -26 -36 -35 -21 -14 -25 -14 -25 -2 0 15 45
56 62 56 5 0 4 -8 -1 -19z m-418 -24 c8 -12 17 -33 21 -45 l8 -24 -41 24 c-27
15 -41 30 -41 44 0 40 27 40 53 1z m131 -17 c14 -22 31 -40 36 -40 5 0 22 18
36 40 24 35 31 40 66 40 l39 0 -7 -50 c-9 -66 11 -75 62 -30 30 26 43 31 68
26 17 -3 60 -1 95 4 63 9 63 9 89 -22 14 -16 50 -42 80 -57 l55 -26 23 -101
c25 -114 43 -155 87 -201 25 -27 30 -40 29 -75 -1 -23 -5 -45 -10 -49 -4 -4
-70 3 -147 16 -389 65 -724 69 -1123 11 -84 -12 -156 -19 -161 -16 -38 25 -24
112 44 260 23 52 48 114 54 138 l12 43 44 -7 c36 -5 52 -2 82 16 30 19 54 23
118 24 44 1 89 7 99 13 24 13 53 4 100 -32 18 -14 41 -25 51 -25 16 0 17 6 12
51 -4 29 -14 60 -23 70 -16 18 -15 19 23 19 36 0 43 -4 67 -40z m1285 -86 c34
-43 26 -59 -14 -27 -19 15 -35 34 -35 41 0 21 28 13 49 -14z m-149 -30 c87
-28 118 -42 137 -65 24 -28 63 -40 63 -18 0 7 10 9 28 4 33 -8 249 -98 311
-129 l43 -23 -203 -52 c-196 -51 -520 -129 -645 -155 l-61 -13 24 43 c22 39
26 69 21 154 -1 14 -1 55 0 93 l2 67 54 -44 c30 -24 71 -49 93 -56 48 -16 71
-36 92 -80 21 -47 66 -55 81 -15 5 14 10 38 10 53 -1 37 -26 104 -43 113 -16
10 -157 147 -157 154 0 12 44 3 150 -31z m-2330 10 c0 -9 -18 -36 -40 -60 -32
-35 -40 -40 -40 -24 0 27 49 100 66 100 8 0 14 -7 14 -16z m185 -72 c-4 -9
-11 -31 -16 -48 -5 -18 -16 -38 -25 -45 -33 -28 -48 -73 -48 -151 -1 -43 -3
-78 -6 -78 -16 1 -593 150 -598 155 -6 6 364 165 384 165 2 0 4 -18 4 -39 0
-50 22 -60 56 -26 13 13 24 28 24 34 0 5 14 18 30 28 23 15 50 20 116 21 77 1
85 -1 79 -16z m2155 -131 c6 -16 10 -38 8 -48 -3 -14 -8 -10 -26 19 -22 35
-23 58 -3 58 5 0 14 -13 21 -29z m-1960 -99 c6 -96 17 -124 58 -146 l27 -15
-33 -1 c-31 0 -261 46 -270 54 -5 6 21 54 52 96 34 45 138 120 151 109 5 -5
12 -48 15 -97z m-190 73 c10 -12 8 -22 -13 -53 -13 -20 -30 -46 -36 -57 -9
-17 -10 -12 -11 30 0 30 6 60 16 73 18 26 27 27 44 7z m264 -97 c-4 -29 -8
-55 -10 -56 -5 -7 -34 57 -34 76 0 24 8 32 32 32 17 0 18 -6 12 -52z m1568 15
c5 -22 -8 -73 -22 -87 -7 -7 -10 3 -10 31 0 23 -5 45 -11 49 -8 4 -7 9 2 15
22 14 37 10 41 -8z m-622 -133 c186 -11 414 -40 403 -50 -10 -11 -345 -57
-491 -69 -140 -11 -342 4 -612 46 -92 15 -101 18 -70 24 84 18 267 40 391 48
191 11 207 12 379 1z m-2251 -634 c-2 -1 -35 -29 -74 -62 -369 -308 -657 -670
-869 -1094 -184 -369 -288 -712 -342 -1125 -21 -158 -24 -589 -6 -740 83 -685
320 -1255 738 -1780 174 -218 470 -493 709 -657 313 -216 694 -390 1060 -485
l100 -25 185 -178 c102 -97 232 -219 289 -271 58 -52 121 -109 140 -126 l36
-32 -60 -1 c-201 0 -572 53 -833 119 -410 105 -840 299 -1207 544 -914 612
-1522 1582 -1685 2691 -121 824 36 1689 439 2423 38 70 90 159 114 197 43 66
49 71 183 149 496 285 866 444 1068 456 11 0 17 -1 15 -3z m226 -36 c55 -13
104 -26 108 -30 4 -4 -35 -37 -87 -74 -217 -154 -506 -425 -600 -563 -26 -37
-76 -108 -112 -158 -290 -401 -487 -900 -560 -1425 -25 -176 -25 -604 0 -780
62 -446 209 -866 431 -1230 340 -560 851 -1001 1459 -1256 l139 -59 118 -130
c64 -71 116 -131 115 -132 -2 -2 -146 39 -206 60 -722 248 -1314 705 -1725
1332 -354 539 -536 1150 -536 1800 -1 307 27 536 97 818 177 703 563 1306
1137 1773 56 46 107 82 112 80 6 -2 55 -14 110 -26z m3917 -52 c134 -106 413
-385 518 -518 407 -514 653 -1133 711 -1790 24 -272 0 -677 -56 -939 -234
-1105 -986 -2004 -2020 -2414 -133 -53 -366 -129 -373 -122 -2 2 50 63 117
137 111 123 125 135 183 157 97 36 315 143 425 206 363 213 690 506 940 845
324 439 522 945 588 1505 18 154 21 492 5 656 -63 635 -322 1241 -737 1719
-179 206 -393 400 -592 536 l-71 49 107 26 c60 15 118 27 130 28 14 1 62 -30
125 -81z m167 45 c121 -34 280 -101 481 -202 154 -77 494 -266 527 -293 17
-14 128 -201 201 -338 228 -431 380 -966 423 -1485 16 -199 6 -628 -20 -820
-153 -1127 -755 -2102 -1691 -2737 -490 -333 -1085 -559 -1665 -633 -128 -16
-386 -37 -392 -32 -2 2 68 66 154 143 87 76 233 212 324 302 l167 163 109 29
c366 97 687 241 1008 455 349 232 656 532 902 880 628 890 783 2056 409 3087
-208 572 -551 1061 -1021 1453 -38 32 -72 60 -75 62 -9 8 74 -9 159 -34z
m-3549 -107 l255 -52 184 -442 c101 -244 181 -445 178 -448 -5 -5 -276 39
-331 54 -22 6 -83 91 -332 467 -277 419 -303 461 -287 473 11 8 29 10 48 6 16
-4 145 -30 285 -58z m2958 49 c22 -16 20 -19 -285 -475 l-306 -458 -135 -26
c-75 -14 -137 -25 -138 -23 -4 4 415 900 425 910 10 10 350 84 391 86 14 1 35
-6 48 -14z m-3087 -466 c154 -231 282 -426 285 -433 6 -15 -66 -1 -381 75
l-210 51 -192 191 c-106 106 -193 195 -193 199 0 15 388 337 407 338 2 0 129
-189 284 -421z m3262 349 c100 -75 267 -217 267 -226 -1 -4 -98 -107 -218
-230 -247 -254 -194 -222 -477 -287 -244 -56 -236 -54 -228 -41 33 55 564 846
569 846 3 0 42 -28 87 -62z m-705 23 c-1 -5 -97 -210 -212 -455 -126 -268
-215 -447 -225 -450 -17 -5 -239 -33 -301 -38 -26 -2 -35 1 -33 12 1 8 39 200
84 426 l81 411 162 27 c88 14 217 37 286 50 142 27 163 30 158 17z m-1860 -60
c128 -21 234 -40 236 -42 7 -7 166 -833 161 -837 -8 -8 -256 22 -264 32 -5 6
-81 187 -169 401 -88 215 -170 411 -181 438 -11 26 -19 47 -18 47 1 0 107 -18
235 -39z m1179 -63 c-3 -13 -40 -201 -83 -418 -42 -217 -80 -398 -83 -403 -4
-4 -58 -10 -119 -14 l-112 -6 0 406 0 406 33 5 c31 5 328 42 356 45 9 1 11 -6
8 -21z m-624 -14 l157 -18 0 -404 0 -405 -117 7 c-65 4 -118 8 -119 9 0 1 -36
182 -79 402 -43 220 -80 409 -83 419 -5 17 -1 18 39 13 24 -3 115 -14 202 -23z
m2418 -253 c45 -50 86 -97 91 -105 7 -12 -12 -21 -104 -50 -180 -56 -409 -118
-415 -113 -5 6 328 357 339 357 4 0 44 -40 89 -89z m-4267 -98 c74 -76 133
-139 131 -141 -3 -4 -318 86 -388 110 l-38 14 71 77 c40 42 76 77 80 77 5 0
70 -62 144 -137z m211 -233 c871 -233 1558 -329 2080 -291 556 41 1306 199
2066 435 l46 14 11 -36 c20 -69 61 -286 76 -412 58 -465 44 -994 -39 -1487
-234 -1386 -1018 -2677 -2291 -3777 -61 -53 -117 -96 -124 -96 -17 0 -240 195
-431 376 -1071 1017 -1735 2174 -1968 3429 -119 641 -117 1355 5 1891 l25 111
162 -49 c89 -27 261 -76 382 -108z m-638 23 c-3 -10 -8 -31 -11 -46 -6 -24 -9
-27 -21 -17 -20 16 -19 22 6 54 24 30 32 33 26 9z m4978 -63 c-9 -15 -35 -12
-35 4 0 7 -3 29 -6 47 l-6 34 26 -38 c15 -20 24 -42 21 -47z m-5036 -69 l24
-18 -17 -144 c-9 -79 -19 -197 -23 -261 -3 -65 -10 -118 -15 -118 -11 0 -230
91 -241 101 -17 14 217 460 241 459 4 0 18 -9 31 -19z m5148 -93 c76 -126 185
-350 175 -359 -9 -7 -232 -99 -242 -99 -4 0 -10 53 -14 117 -3 65 -16 183 -27
262 l-21 144 23 18 c13 10 29 19 34 19 6 0 38 -46 72 -102z m-5325 -474 c73
-31 136 -59 139 -62 4 -4 9 -113 12 -243 l5 -236 -166 34 c-92 18 -191 38
-219 44 -63 13 -64 13 -28 149 23 87 116 370 121 370 1 0 62 -25 136 -56z
m5568 -31 c31 -85 91 -286 104 -348 l7 -31 -108 -22 c-59 -13 -156 -33 -214
-46 l-106 -23 5 221 c2 122 6 222 7 224 4 5 259 111 267 112 3 0 20 -39 38
-87z m124 -461 c12 -19 47 -297 53 -419 l6 -133 -281 0 c-155 0 -282 1 -282 3
0 1 9 62 20 135 10 72 22 177 26 231 l7 99 151 32 c83 18 176 38 206 45 67 16
87 18 94 7z m-5768 -72 c109 -22 208 -42 220 -45 18 -4 22 -19 38 -172 9 -92
20 -189 23 -215 l6 -48 -283 0 -283 0 6 134 c6 120 31 341 42 374 6 17 8 17
231 -28z m304 -554 c0 -18 46 -240 67 -324 14 -57 23 -105 21 -107 -6 -6 -602
-134 -606 -130 -14 14 -62 418 -62 526 l0 39 290 0 c160 0 290 -2 290 -4z
m5525 -78 c-11 -172 -16 -216 -32 -325 -9 -64 -21 -113 -27 -113 -17 0 -590
112 -595 116 -3 3 7 55 22 117 14 61 33 151 43 200 l17 87 289 0 288 0 -5 -82z
m-357 -454 c177 -34 292 -61 292 -68 0 -54 -141 -496 -158 -496 -4 0 -133 52
-288 116 l-280 116 47 157 c26 86 52 175 58 198 7 25 16 41 24 38 6 -2 144
-29 305 -61z m-5022 -94 c18 -63 42 -142 53 -175 10 -33 18 -61 17 -61 -5 -6
-567 -234 -574 -234 -9 0 -40 80 -81 210 -22 71 -71 250 -68 251 18 8 587 127
601 126 14 -2 25 -26 52 -117z m139 -415 c21 -54 53 -132 71 -173 19 -41 34
-80 34 -87 0 -18 -471 -328 -481 -318 -37 37 -250 447 -238 456 20 16 566 234
571 229 3 -4 23 -52 43 -107z m4705 -6 c151 -61 279 -115 283 -119 18 -16
-226 -463 -249 -458 -7 2 -113 71 -238 153 -146 97 -225 155 -224 165 4 23
142 370 148 370 2 0 128 -50 280 -111z m-4453 -551 l112 -222 -152 -155 c-83
-86 -157 -157 -163 -159 -23 -6 -375 412 -374 444 1 8 446 312 460 313 3 0 55
-99 117 -221z m4223 59 l230 -154 -66 -89 c-76 -102 -186 -234 -236 -281 l-34
-33 -161 163 -162 162 96 193 c53 105 98 192 100 192 2 0 107 -69 233 -153z
m-190 -643 c-91 -94 -368 -310 -380 -297 -13 14 -150 222 -150 227 0 3 33 56
73 118 41 62 98 155 127 206 l53 94 156 -156 155 -155 -34 -37z m-3840 224
c24 -40 74 -121 111 -179 l67 -107 -80 -120 -80 -121 -42 28 c-57 39 -202 156
-266 214 l-53 48 44 47 c52 56 253 262 255 262 1 0 21 -33 44 -72z m286 -440
c32 -46 84 -118 116 -160 l59 -78 -21 -40 c-11 -22 -23 -40 -27 -40 -9 0 -140
72 -250 137 l-92 55 70 104 c38 57 74 104 79 104 5 0 35 -37 66 -82z m3054
-22 l70 -105 -28 -19 c-67 -48 -415 -232 -438 -232 -15 0 12 40 120 183 68 90
140 189 161 220 21 31 39 57 41 57 2 0 35 -47 74 -104z m-2765 -364 c-6 -6
-85 38 -85 47 0 5 3 17 7 27 5 14 13 10 44 -27 20 -24 36 -45 34 -47z"/>
<path d="M5246 11522 c-13 -16 -16 -29 -11 -49 9 -39 66 -123 82 -123 22 0 14
45 -16 91 -20 29 -26 46 -19 50 18 12 53 -18 67 -56 20 -56 75 -79 171 -72 52
4 94 1 130 -8 55 -15 99 -11 112 9 17 25 6 34 -51 38 -58 4 -84 15 -236 96
-46 25 -77 34 -135 38 -68 6 -77 4 -94 -14z m173 -73 c26 -26 35 -29 66 -23
21 4 35 2 35 -4 0 -13 -24 -22 -59 -22 -28 0 -81 45 -81 68 0 18 5 15 39 -19z"/>
<path d="M6347 10814 c-4 -4 9 -24 28 -46 52 -56 45 -74 -16 -42 -18 9 -49 14
-77 12 -39 -3 -47 -6 -47 -23 0 -17 8 -21 52 -25 44 -5 59 -12 92 -44 32 -31
44 -37 65 -32 23 6 26 11 26 54 0 50 -24 100 -63 133 -22 19 -49 24 -60 13z"/>
<path d="M6436 10465 c-3 -9 3 -30 14 -48 32 -51 24 -57 -32 -26 -29 16 -65
29 -80 29 -46 0 -33 -28 26 -56 30 -14 70 -43 89 -65 52 -58 77 -50 77 25 0
86 -73 195 -94 141z"/>
<path d="M5750 10287 c-48 -24 -95 -123 -88 -185 5 -40 30 -38 82 7 26 23 59
44 74 47 68 15 91 25 85 40 -8 22 -72 17 -128 -11 -27 -14 -54 -25 -58 -25
-16 0 6 45 40 83 18 21 31 42 28 47 -7 12 -5 12 -35 -3z"/>
<path d="M5432 10262 c-30 -30 -88 -134 -106 -189 -22 -67 -18 -97 13 -101 28
-4 194 76 185 89 -8 14 -87 10 -108 -6 -32 -24 -46 -19 -37 13 11 36 56 120
82 154 35 43 9 78 -29 40z"/>
<path d="M6220 10088 c1 -13 7 -34 15 -48 16 -28 20 -76 7 -84 -5 -3 -22 8
-38 25 -40 42 -119 99 -137 99 -31 0 -26 -30 10 -57 74 -57 95 -79 121 -128
21 -39 32 -50 52 -50 22 0 26 5 32 45 14 93 9 152 -14 187 -27 38 -48 43 -48
11z"/>
<path d="M6420 10080 c0 -12 12 -26 33 -36 53 -27 107 -74 135 -118 15 -22 30
-44 33 -49 3 -4 13 -5 22 -1 23 9 31 63 17 128 -13 65 -39 102 -64 93 -15 -6
-15 -10 -1 -43 26 -62 19 -70 -27 -32 -93 74 -148 96 -148 58z"/>
<path d="M5662 9846 c-50 -45 -81 -109 -88 -183 -9 -86 9 -89 83 -14 44 44 67
60 97 65 64 12 86 23 79 42 -5 13 -15 15 -54 10 -27 -4 -69 -15 -94 -26 -25
-11 -45 -17 -45 -14 0 9 58 90 74 103 20 17 21 51 1 51 -8 0 -32 -15 -53 -34z"/>
<path d="M6644 9776 c-3 -8 -1 -23 5 -35 12 -22 15 -64 4 -75 -4 -3 -23 9 -42
28 -35 34 -104 66 -142 66 -36 0 -19 -30 29 -49 41 -17 107 -91 122 -137 8
-23 18 -34 31 -34 28 0 50 58 52 140 2 54 -2 72 -17 89 -22 25 -34 27 -42 7z"/>
<path d="M6373 9465 c-18 -8 -44 -33 -60 -56 -24 -36 -29 -55 -32 -126 -3 -75
-1 -83 15 -83 11 0 30 18 44 41 18 30 41 48 86 70 34 16 64 36 68 44 9 24 -47
19 -104 -10 -59 -30 -61 -30 -54 -7 14 42 30 64 61 83 55 34 36 69 -24 44z"/>
<path d="M5930 9440 c-12 -9 -9 -16 23 -42 32 -26 67 -74 67 -92 0 -3 -18 1
-41 9 -22 8 -63 16 -92 17 -42 2 -52 0 -55 -14 -2 -12 5 -19 25 -23 100 -21
115 -29 157 -77 34 -39 48 -49 64 -44 55 18 28 137 -51 220 -53 56 -69 64 -97
46z"/>
<path d="M6834 9365 c6 -53 5 -55 -13 -46 -11 6 -21 14 -23 18 -8 20 -79 63
-103 63 -22 0 -24 -3 -15 -19 5 -11 25 -29 43 -40 33 -20 53 -50 81 -123 12
-30 18 -36 36 -31 34 9 53 66 47 141 -5 64 -18 92 -45 92 -12 0 -14 -10 -8
-55z"/>
<path d="M5510 9351 c-51 -41 -91 -120 -97 -190 -5 -49 -3 -59 12 -65 12 -4
28 5 55 33 33 33 127 81 160 81 15 0 12 16 -5 30 -12 10 -29 7 -90 -13 -41
-14 -75 -21 -75 -16 0 26 53 110 80 126 17 9 29 22 27 28 -7 20 -33 15 -67
-14z"/>
<path d="M3860 5801 c0 -3 -9 -49 -19 -102 -39 -190 -54 -372 -55 -649 0 -379
32 -704 105 -1058 229 -1110 843 -2169 1776 -3060 160 -152 382 -352 393 -352
13 0 306 265 469 425 755 741 1269 1547 1560 2448 247 764 319 1651 185 2278
l-16 76 -112 -33 c-402 -122 -1016 -266 -1377 -323 -345 -55 -715 -74 -994
-52 -425 35 -1048 160 -1662 335 -139 40 -253 70 -253 67z m3096 -700 l-398
-398 -73 23 c-94 30 -218 53 -336 62 l-94 7 0 265 0 265 90 2 c204 5 443 30
700 74 144 24 458 88 464 95 2 2 14 4 25 4 15 0 -95 -116 -378 -399z m1167
-53 c17 -23 19 -32 9 -52 -6 -14 -22 -32 -36 -41 -24 -16 -28 -16 -58 2 -39
22 -48 62 -23 99 23 35 79 30 108 -8z m-815 -10 c69 -35 110 -125 88 -194 -7
-21 -6 -22 34 -8 110 38 251 -82 253 -214 1 -72 -40 -136 -160 -253 l-105
-102 -69 69 c-38 38 -69 73 -69 79 0 5 -91 100 -201 211 l-201 201 86 83 c142
137 185 163 254 156 23 -2 64 -14 90 -28z m959 -240 c-33 -926 -343 -1845
-908 -2696 -248 -372 -572 -760 -907 -1083 -171 -165 -378 -349 -392 -349 -7
0 -10 236 -10 685 0 642 1 685 18 694 9 5 76 11 147 14 260 9 506 112 652 271
32 35 87 83 123 106 125 83 217 195 303 366 52 103 73 171 83 264 4 36 17 92
30 126 60 161 31 457 -71 737 l-29 78 479 479 c264 264 482 480 484 480 2 0 1
-78 -2 -172z m-2022 -69 l40 -12 -30 -10 c-76 -26 -187 -119 -241 -204 -70
-108 -101 -263 -75 -374 l8 -37 -347 -347 c-278 -278 -349 -344 -353 -329 -38
128 -58 442 -38 584 52 353 285 656 545 710 143 29 416 40 491 19z m262 -63
c4 -4 -110 -124 -252 -267 l-260 -259 -3 58 c-2 33 4 92 12 131 49 236 192
357 409 347 48 -2 91 -7 94 -10z m-1126 -134 c-90 -106 -168 -281 -207 -464
-38 -183 -34 -448 11 -620 l24 -93 -22 -24 c-12 -12 -57 -54 -99 -93 l-78 -70
-33 21 c-40 25 -114 101 -150 157 -58 88 -83 212 -67 339 38 309 291 681 582
858 34 20 66 37 70 37 5 0 -9 -22 -31 -48z m1654 -557 c30 -30 31 -54 4 -89
-24 -30 -63 -34 -97 -10 -16 11 -22 25 -22 54 0 67 68 93 115 45z m250 -32
c29 -72 58 -172 75 -262 23 -116 34 -323 21 -386 -7 -30 -9 -33 -10 -14 -4 94
-95 288 -200 424 l-69 90 81 83 c45 45 85 82 88 82 4 0 10 -8 14 -17z m-1123
-300 l228 -228 98 98 97 97 43 -42 42 -43 -142 -142 -143 -143 -272 272 -273
273 42 42 c23 24 45 43 48 43 2 0 107 -102 232 -227z m1014 -21 c46 -69 117
-227 140 -313 27 -101 23 -245 -10 -342 -55 -163 -156 -327 -258 -422 -55 -51
-78 -65 -78 -47 0 4 7 32 15 62 28 103 37 218 24 295 -26 157 -140 435 -223
545 l-34 45 157 158 156 158 37 -41 c20 -23 54 -67 74 -98z m-2330 -379 c25
-29 65 -67 90 -85 l45 -32 -82 -82 c-46 -46 -86 -81 -89 -79 -20 12 -80 316
-80 404 l0 45 35 -59 c20 -32 56 -83 81 -112z m1920 89 c75 -112 108 -182 148
-315 63 -209 66 -289 20 -457 -61 -216 -234 -350 -561 -435 -131 -34 -145 -33
-92 8 53 40 102 129 130 233 16 61 21 110 21 214 0 152 -16 249 -64 373 l-30
77 183 190 c100 105 185 190 188 190 3 0 29 -35 57 -78z m-442 -401 c49 -110
29 -189 -74 -291 -80 -78 -193 -134 -326 -161 -188 -39 -193 -50 100 249 142
144 262 262 266 262 4 0 19 -26 34 -59z m-1211 18 c26 -7 37 -15 33 -24 -3 -8
-10 -32 -16 -54 -11 -40 -12 -41 -56 -41 -51 0 -89 -21 -110 -61 -21 -41 -17
-77 11 -104 33 -34 94 -33 212 5 129 42 194 41 259 -2 97 -66 130 -188 80
-293 -61 -129 -201 -195 -316 -149 -44 18 -44 18 -13 91 11 27 18 33 33 29 11
-3 29 -9 40 -12 32 -9 83 13 121 52 83 86 12 204 -107 176 -22 -6 -79 -21
-128 -36 -134 -39 -198 -33 -264 28 -62 55 -81 169 -43 244 31 59 103 122 163
143 64 22 54 21 101 8z m860 0 c12 -7 25 -17 29 -23 14 -21 8 -60 -14 -83 -43
-46 -112 -16 -110 48 1 57 46 84 95 58z m416 -356 c2 -137 -32 -287 -84 -365
-55 -83 -188 -133 -347 -131 -103 1 -193 20 -340 71 l-108 38 103 101 102 101
100 6 c212 12 406 103 521 243 37 45 39 46 45 22 4 -13 7 -52 8 -86z"/>
<path d="M7128 4910 c-51 -34 -82 -65 -77 -78 2 -4 36 -38 75 -75 l71 -67 46
49 c72 77 74 133 8 178 -45 30 -69 29 -123 -7z"/>
<path d="M7360 4699 c-90 -76 -90 -75 -75 -106 8 -15 44 -57 80 -93 l65 -64
46 44 c71 70 89 117 63 172 -28 62 -129 88 -179 47z"/>
</g>
</svg>
