<?xml version="1.0" standalone="no"?>
<!DOCTYPE svg PUBLIC "-//W3C//DTD SVG 20010904//EN"
 "http://www.w3.org/TR/2001/REC-SVG-20010904/DTD/svg10.dtd">
<svg version="1.0" xmlns="http://www.w3.org/2000/svg"
 width="1200.000000pt" height="1809.000000pt" viewBox="0 0 1200.000000 1809.000000"
 preserveAspectRatio="xMidYMid meet">

<g transform="translate(0.000000,1809.000000) scale(0.100000,-0.100000)"
fill="#000000" stroke="none">
<path d="M0 13673 c0 -2746 4 -4509 10 -4658 65 -1569 413 -2941 1083 -4271
363 -719 778 -1352 1331 -2027 633 -772 1558 -1561 2481 -2114 335 -201 517
-296 929 -484 l258 -118 262 125 c428 204 701 358 1081 609 605 400 1137 836
1676 1374 806 806 1384 1603 1860 2565 574 1160 911 2425 1014 3811 13 173 15
834 15 4903 l0 4702 -6000 0 -6000 0 0 -4417z m11637 -440 c-3 -3236 -7 -4507
-15 -4608 -31 -376 -51 -575 -83 -805 -246 -1802 -949 -3437 -2038 -4740 -486
-581 -973 -1059 -1546 -1515 -393 -313 -823 -607 -1217 -832 -130 -73 -548
-287 -628 -320 -21 -8 -47 1 -180 62 -807 373 -1508 832 -2221 1455 -501 437
-892 859 -1310 1415 -909 1207 -1519 2543 -1809 3960 -91 447 -139 792 -192
1405 -8 100 -12 1284 -15 4563 l-3 4427 5630 0 5630 0 -3 -4467z"/>
<path d="M803 13028 c3 -4597 -1 -4267 57 -4783 174 -1537 677 -2908 1543
-4205 235 -352 562 -780 791 -1035 676 -751 1521 -1429 2363 -1893 146 -81
513 -262 530 -262 7 0 64 25 126 56 545 273 1124 661 1694 1137 511 427 954
879 1378 1407 1042 1298 1685 2902 1879 4685 16 145 28 278 48 545 8 114 12
1276 15 4358 l4 4202 -5216 0 -5215 0 3 -4212z m7215 4052 c-3 -8 -948 -1044
-1254 -1375 -334 -360 -384 -416 -384 -429 0 -7 25 -26 56 -40 92 -44 156
-119 229 -271 35 -71 84 -191 109 -266 40 -117 48 -153 56 -262 5 -70 8 -132
5 -139 -2 -7 -9 -60 -14 -118 -12 -113 -24 -157 -71 -250 -86 -171 -117 -297
-100 -406 12 -73 45 -148 80 -179 44 -39 183 -210 242 -298 33 -49 84 -115
113 -146 73 -81 130 -168 185 -285 74 -158 100 -243 100 -325 0 -113 -15 -100
-90 79 -103 246 -160 338 -299 483 -43 45 -107 123 -142 172 -35 50 -101 128
-147 175 -67 69 -93 103 -130 179 -45 90 -47 98 -45 170 4 127 28 201 182 569
53 128 63 183 36 218 -8 10 -15 40 -15 65 0 26 -7 63 -15 82 -8 20 -15 61 -15
91 0 30 -7 67 -15 83 -8 15 -28 74 -46 130 -36 118 -82 201 -154 274 -71 73
-160 139 -187 139 -54 -1 -168 -32 -236 -66 -84 -41 -208 -155 -264 -244 -19
-30 -70 -98 -112 -150 -97 -120 -113 -167 -97 -277 6 -40 11 -166 11 -279 l0
-205 -30 -5 c-26 -6 -30 -11 -30 -40 0 -26 4 -34 18 -34 42 -1 102 -40 132
-86 l30 -48 0 31 c0 25 7 36 33 52 38 23 108 32 115 13 4 -14 82 -16 82 -2 0
19 51 10 110 -20 82 -41 81 -61 -5 -134 -40 -34 -79 -58 -100 -62 -53 -10
-130 14 -184 56 l-47 38 3 -52 c3 -39 -1 -61 -19 -96 -30 -58 -82 -92 -199
-131 -78 -26 -119 -33 -238 -40 -325 -20 -432 -85 -554 -334 -35 -71 -75 -159
-90 -195 -35 -89 -102 -350 -126 -492 -28 -161 -148 -523 -342 -1025 -126
-328 -169 -451 -209 -605 -56 -217 -197 -799 -239 -986 l-28 -123 25 -20 c33
-26 103 -25 169 3 45 18 54 19 69 7 15 -12 16 -25 8 -109 -15 -174 -12 -193
32 -255 78 -111 78 -111 66 -168 -6 -29 -14 -99 -16 -157 -3 -58 -10 -121 -16
-140 -6 -19 -15 -73 -20 -120 -5 -47 -19 -161 -30 -255 -28 -229 -38 -352 -50
-600 -5 -115 -17 -262 -26 -325 -25 -174 -30 -441 -10 -521 24 -92 78 -173
204 -307 32 -34 42 -52 42 -78 0 -26 -4 -34 -18 -34 -33 0 -165 108 -234 190
-55 66 -69 90 -79 138 -7 31 -21 75 -32 97 -18 35 -21 64 -23 230 -2 105 1
224 6 265 9 68 16 153 40 440 4 52 15 124 24 160 9 36 16 107 16 160 0 53 7
122 15 153 8 32 15 86 15 121 0 35 9 105 20 157 11 53 20 134 20 184 0 50 7
115 15 145 27 100 21 139 -30 204 -49 64 -52 78 -35 181 13 77 5 85 -87 89
-116 6 -167 43 -194 141 -15 56 10 205 72 420 27 94 52 193 55 220 12 106 64
315 104 415 22 58 45 138 51 179 6 44 28 119 53 180 24 58 61 177 84 264 23
86 54 187 71 225 16 37 65 157 110 267 45 110 89 214 97 230 19 35 50 157 60
236 4 30 33 117 65 194 32 77 80 217 108 312 28 95 68 216 90 270 21 54 41
110 45 126 8 32 111 171 177 238 31 31 70 56 125 79 76 33 86 35 244 41 167 6
198 12 287 57 21 11 56 39 76 61 29 32 37 49 37 79 0 47 -18 66 -91 93 -70 27
-79 35 -79 74 0 28 6 35 50 59 l50 27 0 149 c0 141 -1 150 -21 160 -17 10 -26
6 -63 -32 -23 -24 -1018 -1094 -2210 -2378 -1193 -1284 -2195 -2362 -2227
-2395 l-59 -60 0 3828 0 3827 2188 3 c1203 1 2801 3 3550 5 859 1 1362 -2
1360 -8z m-300 -1054 l42 -124 0 -538 c0 -297 -5 -1248 -11 -2114 l-10 -1575
-47 -47 c-61 -63 -52 -72 76 -77 85 -3 100 -6 130 -29 46 -35 74 -94 79 -167
5 -75 -16 -169 -39 -173 -9 -2 -41 23 -76 57 -33 34 -68 61 -78 61 -11 0 -62
-5 -115 -10 -142 -14 -161 -25 -81 -50 39 -13 48 -19 50 -42 4 -34 -5 -35 -76
-8 -29 11 -68 20 -86 20 -60 0 -96 68 -61 114 8 11 15 35 15 53 0 62 23 97 82
125 69 33 87 53 59 67 -11 6 -37 11 -59 11 -22 0 -45 6 -51 13 -8 10 -4 570
14 2118 l24 2104 40 140 c57 202 54 195 98 195 l38 0 43 -124z m-1528 -941 c0
-11 -84 -146 -97 -157 -36 -29 -45 64 -11 107 26 34 108 71 108 50z m175 -25
c45 -28 80 -83 125 -197 31 -76 40 -112 40 -160 l0 -63 -41 0 c-34 0 -49 7
-87 41 -30 26 -85 57 -147 83 l-100 42 3 55 c5 82 41 152 98 189 56 35 66 36
109 10z m-416 -84 c9 -10 3 -31 -26 -92 -45 -97 -59 -114 -94 -114 -67 0 -74
22 -31 91 29 45 114 129 131 129 5 0 14 -6 20 -14z m89 -198 c21 -21 13 -78
-33 -253 -26 -98 -45 -193 -45 -223 0 -80 -27 -122 -80 -122 -27 0 -37 160
-16 253 9 38 16 93 16 122 0 72 14 100 67 131 40 23 53 49 25 49 -13 0 -15 11
-8 38 5 20 55 24 74 5z m236 -66 c104 -50 244 -163 309 -249 60 -81 67 -104
41 -141 -12 -18 -13 -26 -4 -37 7 -8 19 -15 26 -15 16 0 20 -65 5 -74 -15 -10
-61 34 -91 88 -16 28 -51 72 -77 98 -80 78 -269 180 -375 203 -27 5 -28 8 -28
67 0 83 17 102 84 94 27 -3 76 -18 110 -34z m-426 -52 c2 -48 -1 -59 -21 -78
-28 -26 -124 -62 -167 -62 -28 0 -30 2 -30 38 0 63 9 76 78 120 52 33 75 42
102 40 l35 -3 3 -55z m499 -260 c18 -35 16 -153 -2 -197 -8 -19 -15 -50 -15
-67 0 -18 -4 -36 -9 -41 -5 -6 -16 -34 -26 -63 -19 -59 -37 -82 -66 -82 -29 0
-189 147 -210 194 -25 56 -24 77 11 146 17 33 30 67 30 76 0 18 31 16 87 -7
27 -11 37 -10 72 6 23 10 41 23 41 30 0 41 67 45 87 5z m-541 -72 c-3 -35 -5
-85 -5 -111 0 -45 -3 -51 -60 -107 -93 -94 -113 -81 -114 72 -1 57 2 124 7
150 l7 47 72 4 c40 1 78 4 85 5 11 2 13 -12 8 -60z m147 -219 c12 -6 52 -41
90 -77 78 -77 89 -112 34 -112 -70 0 -175 111 -162 170 7 34 8 34 38 19z
m-128 -76 c-18 -99 -88 -147 -154 -104 -12 8 -12 14 -2 39 17 40 51 71 98 87
61 22 66 20 58 -22z m585 -31 c0 -24 -28 -62 -46 -62 -14 0 -21 60 -7 73 14
15 53 7 53 -11z m88 -84 c20 -20 15 -58 -7 -58 -27 0 -50 26 -44 50 6 22 33
26 51 8z m4544 -47 c6 -5 25 -4135 22 -4901 -1 -323 -13 -539 -45 -840 -176
-1635 -856 -3326 -1867 -4637 l-87 -113 -50 0 -50 0 -44 123 c-24 67 -78 223
-121 347 l-78 225 -144 3 -145 3 -13 27 c-45 97 -121 279 -140 338 -34 103
-32 102 -174 108 -66 3 -195 9 -286 14 -91 6 -226 13 -300 17 -178 10 -218 31
-175 92 8 12 22 50 30 85 8 34 30 116 49 181 19 65 42 164 51 220 9 56 36 190
60 297 76 337 105 483 105 537 0 28 5 64 11 80 6 15 35 135 65 265 45 196 54
253 54 331 0 51 3 97 7 100 11 12 50 178 58 247 4 36 17 88 30 115 21 43 25
72 31 198 4 81 11 147 15 147 5 0 9 24 9 53 0 29 4 57 10 63 5 5 13 79 16 164
4 85 11 157 15 160 5 3 16 102 24 220 9 118 21 226 27 240 6 14 16 87 24 162
19 197 45 251 143 295 l54 24 -57 35 c-83 52 -86 63 -86 266 0 252 10 398 27
398 11 0 13 104 14 603 1 816 -1 1001 -10 1007 -4 3 -4 32 0 65 13 108 11 135
-10 135 -11 0 -35 18 -53 41 -64 81 -133 152 -170 175 -61 39 -44 87 30 86 84
0 207 -68 262 -144 38 -52 46 -83 60 -240 10 -113 10 -133 -5 -178 -17 -52
-14 -144 7 -156 13 -8 44 22 89 87 21 31 68 80 104 109 37 29 99 92 138 139
173 208 1501 1652 2165 2354 227 241 235 248 266 242 17 -4 34 -10 38 -14z
m-4644 -59 c3 -17 -2 -22 -17 -22 -16 0 -21 6 -21 26 0 33 33 30 38 -4z m66
-58 c20 -8 21 -48 1 -64 -20 -16 -35 -4 -35 29 0 38 7 45 34 35z m-164 -42 c0
-14 -33 -39 -57 -45 -33 -7 -40 13 -13 35 23 18 70 25 70 10z m-122 -174 c-6
-18 -25 -20 -31 -3 -5 10 0 15 14 15 12 0 19 -5 17 -12z m152 -188 c0 -5 -16
-10 -36 -10 -21 0 -33 4 -29 10 3 6 19 10 36 10 16 0 29 -4 29 -10z m-799 -39
c14 -10 53 -34 89 -53 46 -24 66 -41 68 -56 3 -19 -1 -22 -35 -22 -21 0 -65
13 -101 30 -35 17 -68 30 -74 30 -6 0 -37 12 -69 26 -41 19 -59 32 -59 45 0
17 9 19 79 19 62 0 83 -4 102 -19z m697 -45 c5 -43 -6 -76 -26 -76 -29 0 -42
21 -42 68 0 43 0 43 33 40 27 -3 33 -7 35 -32z m-1065 -24 l19 -32 -25 0 c-33
0 -57 24 -50 50 8 29 33 21 56 -18z m939 -6 c14 -33 4 -56 -25 -56 -35 0 -50
21 -37 54 12 34 46 35 62 2z m-746 -52 c13 -17 6 -64 -10 -64 -28 1 -84 69
-69 84 11 10 67 -4 79 -20z m1074 -8 c0 -13 -7 -27 -16 -30 -21 -8 -20 -8 -39
10 -20 20 -3 44 31 44 19 0 24 -5 24 -24z m-1346 -12 c3 -9 6 -31 6 -50 0 -32
-2 -34 -32 -34 -33 0 -68 24 -68 47 0 7 6 22 12 33 16 25 73 28 82 4z m414
-30 c28 -19 27 -67 -1 -72 -28 -5 -47 17 -47 54 0 38 13 43 48 18z m-607 -4
c28 -16 25 -50 -5 -50 -24 0 -37 22 -29 48 6 15 9 15 34 2z m1037 -10 c41 -6
117 -24 169 -41 53 -16 113 -29 133 -29 77 0 139 -64 94 -97 -10 -8 -28 -11
-39 -8 -11 3 -65 10 -120 15 -159 15 -233 35 -413 110 -29 13 -38 36 -21 56
14 18 45 17 197 -6z m-680 -12 c22 -18 8 -68 -19 -68 -18 0 -39 34 -39 61 0
27 3 30 23 23 12 -3 28 -11 35 -16z m1454 -75 l-4 -53 34 0 c42 0 58 -15 58
-54 0 -26 12 -41 69 -91 39 -33 70 -63 70 -67 2 -17 -78 -7 -116 15 -120 68
-153 87 -241 144 -162 103 -171 113 -103 113 22 0 44 6 51 15 18 22 67 34 130
32 l55 -2 -3 -52z m-1060 23 c10 -7 22 -25 27 -39 12 -30 32 -35 51 -12 15 18
30 11 30 -15 0 -60 -94 -96 -132 -50 -18 22 -24 82 -12 114 7 19 14 20 36 2z
m-254 -5 c11 -6 12 -24 7 -75 -7 -65 -8 -66 -37 -66 -49 0 -68 16 -68 59 0 66
54 111 98 82z m-522 -75 c11 -45 2 -61 -38 -64 -33 -3 -38 0 -44 22 -7 30 1
44 30 56 35 14 45 11 52 -14z m174 6 c0 -30 -30 -63 -53 -60 -29 4 -36 47 -11
65 27 19 64 17 64 -5z m508 2 c12 -8 22 -26 22 -40 0 -21 -4 -24 -38 -24 -45
0 -62 14 -62 52 0 24 4 28 28 28 15 0 38 -7 50 -16z m-364 0 c10 -4 16 -18 16
-40 0 -28 -4 -34 -22 -34 -29 0 -58 28 -58 57 0 18 5 23 24 23 13 0 31 -3 40
-6z m770 -60 c20 -52 -4 -84 -63 -84 -32 0 -71 30 -71 54 0 38 12 46 70 46 44
0 59 -4 64 -16z m-325 -49 c36 -31 47 -61 31 -80 -33 -39 -90 0 -90 61 0 51
14 56 59 19z m148 5 c39 -23 64 -90 43 -115 -29 -35 -94 -12 -116 41 -15 35
-13 45 14 77 19 21 20 21 59 -3z m384 0 c24 -14 24 -35 -1 -60 -41 -41 -108
-7 -93 48 4 17 13 22 40 22 19 0 43 -5 54 -10z m-1038 -17 c13 -4 17 -16 17
-49 l0 -44 -39 0 c-40 0 -71 25 -71 57 0 22 40 55 58 48 9 -4 25 -10 35 -12z
m1189 5 c41 -34 22 -77 -26 -58 -18 6 -26 17 -26 33 0 38 22 48 52 25z m-1367
-49 c13 -25 12 -31 -11 -73 -23 -41 -30 -46 -60 -46 -34 0 -34 0 -34 48 0 47
17 84 50 109 18 14 34 3 55 -38z m362 30 c7 -6 13 -24 13 -39 0 -22 -6 -29
-25 -32 -45 -9 -96 57 -68 86 10 10 62 -1 80 -15z m1175 4 c22 -20 23 -39 3
-47 -34 -13 -86 28 -69 55 9 15 46 10 66 -8z m-450 -70 c35 -40 33 -114 -2
-133 -56 -30 -114 66 -80 131 13 24 61 25 82 2z m-579 -25 c45 -54 -11 -104
-71 -62 -25 17 -31 78 -9 88 21 9 61 -4 80 -26z m782 20 c55 -25 75 -119 30
-140 -30 -13 -80 5 -96 35 -10 18 -6 88 7 109 7 11 28 10 59 -4z m403 -40 c-2
-32 -8 -44 -21 -46 -21 -4 -67 34 -67 54 0 18 29 33 63 34 27 0 28 -2 25 -42z
m-1375 -26 c27 -24 19 -66 -14 -70 -19 -2 -33 5 -53 28 -14 17 -26 38 -26 45
0 28 60 26 93 -3z m-589 -4 c3 -13 6 -42 6 -65 0 -37 3 -43 21 -43 19 0 20 -5
18 -77 -1 -47 5 -104 14 -143 12 -48 19 -136 23 -332 6 -239 5 -269 -9 -292
-22 -32 -21 -36 3 -36 26 0 28 -45 3 -72 -14 -16 -15 -23 -4 -53 10 -28 10
-42 0 -69 -11 -29 -10 -38 4 -60 21 -31 21 -50 2 -66 -22 -19 -18 -42 15 -86
16 -21 30 -49 30 -61 0 -20 -5 -23 -35 -23 -46 0 -46 -22 -1 -65 48 -45 53
-85 11 -85 -21 0 -25 -5 -25 -31 0 -23 10 -42 40 -71 42 -43 53 -78 23 -78
-10 0 -24 4 -32 9 -19 12 -41 3 -41 -17 0 -8 25 -41 55 -73 42 -44 55 -65 55
-88 0 -36 -4 -37 -37 -11 -34 26 -63 26 -63 -1 0 -29 17 -58 66 -111 35 -37
44 -55 44 -83 0 -43 -9 -44 -43 -5 -23 25 -67 42 -67 25 0 -11 65 -121 87
-148 23 -28 31 -81 15 -91 -5 -3 -22 8 -37 24 -29 30 -65 40 -65 18 0 -16 55
-100 85 -128 14 -13 25 -32 25 -43 0 -16 -5 -18 -27 -13 -72 18 -83 18 -83 3
0 -8 15 -26 33 -39 36 -28 72 -94 82 -150 7 -37 6 -38 -23 -38 -22 0 -36 9
-56 35 -28 37 -56 46 -56 19 0 -9 25 -46 55 -81 46 -54 55 -71 55 -104 0 -47
-12 -49 -52 -9 -86 86 -99 49 -14 -41 59 -61 66 -74 66 -109 0 -35 -3 -40 -23
-40 -13 0 -32 9 -42 20 -10 11 -24 20 -31 20 -7 0 11 -35 41 -80 54 -78 68
-120 42 -120 -8 0 -24 11 -37 25 -25 26 -60 30 -67 8 -3 -7 14 -32 36 -56 27
-29 41 -54 41 -71 0 -27 -1 -27 -45 -20 -58 8 -58 -3 1 -66 38 -40 45 -55 47
-92 l2 -43 -37 3 c-24 2 -38 -1 -38 -8 0 -6 20 -36 46 -67 38 -47 45 -62 42
-92 -4 -43 -34 -53 -63 -21 -19 21 -45 27 -45 10 0 -20 28 -65 59 -94 51 -49
38 -83 -19 -51 -59 34 -67 1 -17 -66 48 -63 60 -88 53 -115 -8 -29 -16 -30
-50 -3 -27 21 -46 18 -46 -6 0 -8 14 -42 31 -75 39 -77 49 -130 24 -130 -9 0
-29 8 -43 18 -75 52 -87 30 -28 -49 62 -82 63 -135 1 -103 -15 8 -31 12 -34 8
-3 -3 13 -41 37 -84 23 -43 42 -88 42 -99 0 -21 -1 -21 -50 4 -27 14 -52 25
-55 25 -15 0 -1 -30 26 -56 43 -41 53 -71 34 -100 -8 -13 -22 -24 -30 -24 -23
0 -18 -19 15 -57 42 -47 40 -79 -5 -87 -19 -4 -35 -10 -35 -14 0 -4 16 -44 37
-90 20 -45 33 -85 30 -88 -4 -4 -20 -1 -36 6 -48 20 -54 5 -20 -58 40 -76 36
-96 -18 -100 -24 -2 -43 -8 -43 -14 0 -6 21 -49 46 -95 54 -100 55 -128 4
-127 -19 0 -43 4 -52 8 -31 14 -21 -25 23 -87 44 -64 47 -90 11 -95 -13 -2
-25 -9 -28 -15 -2 -7 9 -50 26 -96 39 -106 35 -121 -31 -121 -27 0 -49 -3 -49
-7 0 -5 18 -35 40 -68 22 -33 40 -65 40 -72 0 -8 -14 -13 -39 -13 -22 0 -43
-4 -46 -10 -3 -5 12 -29 35 -53 35 -38 40 -50 40 -91 l0 -46 -45 0 c-25 0 -45
-4 -45 -8 0 -4 16 -23 35 -42 30 -29 35 -40 35 -82 0 -53 -9 -58 -47 -28 -14
11 -32 20 -39 20 -19 0 -18 -64 1 -80 19 -16 19 -44 0 -60 -19 -16 -19 -47 0
-80 21 -38 19 -87 -5 -100 -25 -14 -25 -40 0 -73 12 -14 20 -40 20 -61 0 -33
-2 -36 -30 -36 -28 0 -30 -2 -30 -39 0 -23 8 -48 20 -64 25 -32 26 -57 1 -57
-24 0 -36 16 -49 62 -6 20 -25 55 -42 77 -28 34 -32 47 -30 88 3 54 3 103 -1
213 -2 61 1 83 19 117 18 34 22 59 22 128 0 47 4 127 10 178 5 51 14 220 19
377 6 157 37 758 70 1335 33 578 63 1145 66 1260 4 116 11 228 16 251 4 22 13
213 19 425 6 211 33 784 61 1273 27 489 49 909 49 932 0 32 -4 44 -15 44 -12
0 -15 -13 -15 -59 0 -40 -5 -63 -15 -71 -10 -8 -15 -30 -15 -65 0 -35 -5 -57
-15 -65 -17 -14 -20 -41 -5 -56 8 -8 8 -19 0 -38 -13 -35 -13 -106 0 -106 6 0
10 -9 10 -19 0 -11 -4 -23 -10 -26 -15 -9 -12 -73 5 -99 14 -21 14 -25 -5 -49
-23 -30 -25 -64 -5 -91 22 -29 18 -50 -15 -79 -35 -32 -37 -47 -10 -72 14 -13
20 -31 20 -61 0 -39 -2 -43 -31 -49 -43 -10 -46 -28 -10 -84 l32 -49 -26 -37
c-29 -44 -29 -45 -10 -92 20 -48 19 -62 -7 -90 -20 -22 -21 -26 -9 -56 24 -58
20 -81 -16 -92 -39 -11 -40 -17 -13 -55 32 -45 52 -101 46 -126 -6 -21 -12
-24 -51 -24 -25 0 -45 -4 -45 -9 0 -5 18 -24 40 -41 33 -26 40 -38 40 -66 0
-34 0 -34 -46 -34 -42 0 -45 -1 -39 -22 4 -13 14 -32 21 -43 8 -11 26 -35 39
-54 14 -19 25 -47 25 -63 l0 -30 -51 7 -52 7 7 -33 c3 -19 23 -51 45 -74 21
-22 42 -50 45 -61 9 -30 -18 -54 -60 -54 -48 0 -45 -30 6 -86 31 -33 40 -52
40 -78 0 -33 -2 -35 -37 -38 -50 -4 -55 -32 -14 -89 22 -29 31 -53 31 -81 0
-43 -10 -47 -65 -24 -18 8 -36 12 -38 9 -9 -8 17 -46 56 -85 32 -31 37 -42 37
-82 l0 -46 -40 0 c-57 0 -62 -22 -17 -68 38 -39 57 -78 57 -118 0 -22 -4 -24
-49 -24 -68 0 -83 -21 -36 -48 48 -29 75 -76 75 -135 l0 -48 -50 7 c-27 4 -50
3 -50 -1 0 -4 13 -22 29 -41 31 -34 51 -89 51 -136 0 -31 -17 -45 -33 -29 -13
13 -67 15 -67 3 0 -4 16 -23 35 -42 40 -38 65 -87 65 -124 0 -33 -22 -43 -52
-22 -24 17 -78 22 -78 7 0 -5 15 -22 34 -38 41 -33 66 -77 66 -115 0 -24 -4
-28 -29 -28 -15 0 -40 9 -54 20 -33 26 -37 25 -37 -6 0 -19 17 -43 65 -89 58
-55 65 -66 65 -100 0 -38 0 -38 -36 -32 -19 3 -52 21 -72 38 -36 32 -37 32
-40 11 -2 -16 12 -40 48 -79 58 -63 75 -93 85 -145 6 -32 4 -38 -20 -54 -27
-18 -27 -18 -54 14 -18 22 -35 32 -53 32 -16 0 -28 -3 -28 -6 0 -4 20 -24 45
-46 56 -50 87 -107 89 -167 2 -61 -17 -63 -92 -10 -33 23 -65 40 -72 37 -7 -2
19 -41 60 -93 79 -97 106 -145 97 -169 -10 -25 -35 -19 -80 19 -42 37 -62 42
-87 24 -12 -8 -12 -12 -2 -16 34 -13 72 -59 107 -126 54 -104 36 -138 -40 -77
-40 32 -52 35 -74 21 -21 -13 -5 -42 49 -86 58 -46 80 -87 80 -144 0 -40 -1
-41 -33 -41 -21 0 -45 10 -70 31 l-37 30 0 -25 c0 -16 12 -35 36 -54 54 -44
84 -112 84 -189 0 -35 -2 -63 -4 -63 -19 0 -41 19 -72 61 -21 29 -43 49 -55
49 -33 0 -21 -25 42 -95 34 -38 70 -86 80 -109 20 -45 25 -101 9 -111 -19 -11
-50 6 -66 36 -34 68 -94 95 -94 44 0 -18 20 -47 66 -96 72 -77 103 -135 104
-192 0 -61 -21 -57 -108 19 -218 193 -282 266 -282 321 0 18 3 33 6 33 4 0 24
-16 45 -35 91 -82 79 -8 -21 130 -33 46 -60 90 -60 99 0 23 43 20 65 -4 23
-26 55 -26 55 -1 0 11 -10 32 -23 48 -43 52 -108 183 -102 203 10 31 26 24 77
-31 52 -57 74 -59 71 -9 -1 27 -13 45 -62 90 -61 56 -61 56 -61 113 0 67 12
72 63 27 37 -32 57 -38 57 -17 0 15 -23 50 -78 117 -44 54 -56 82 -50 121 5
38 34 34 80 -10 22 -23 45 -41 50 -41 4 0 8 14 8 30 0 23 -14 46 -60 95 -46
49 -60 72 -60 95 0 25 4 30 25 30 14 0 29 -8 35 -20 13 -25 47 -43 66 -36 19
7 3 47 -46 111 -73 96 -83 137 -35 149 32 8 47 1 70 -34 25 -38 70 -43 60 -7
-4 12 -16 29 -27 37 -74 55 -108 113 -108 185 0 44 1 46 27 43 19 -2 37 -16
58 -45 28 -39 68 -63 82 -50 7 8 -31 68 -58 93 -37 32 -79 106 -79 139 0 37
16 55 47 55 17 0 23 -6 23 -23 0 -20 46 -77 62 -77 4 0 -18 45 -48 100 -51 93
-64 130 -47 130 4 0 31 -10 59 -21 63 -26 84 -21 84 21 0 23 -6 33 -25 40 -29
11 -92 102 -101 146 -5 27 -3 33 16 39 16 5 29 0 49 -19 15 -14 35 -26 44 -26
28 0 20 40 -14 69 -75 64 -79 69 -79 111 0 34 3 40 21 40 11 0 32 -9 46 -20
29 -23 73 -27 73 -7 0 7 -27 45 -60 85 -33 39 -60 75 -60 81 0 23 24 21 69 -8
60 -39 71 -39 71 1 0 24 -10 41 -49 77 -27 25 -54 56 -60 68 -17 33 -14 100 5
107 27 10 34 7 55 -29 20 -33 54 -47 72 -29 9 9 -19 61 -64 118 -64 80 -45
145 22 80 15 -14 32 -23 38 -20 21 13 11 47 -30 107 -34 51 -40 66 -37 105 l3
45 48 -31 c26 -16 50 -30 53 -30 23 0 -72 181 -104 199 -15 9 -15 11 2 30 24
26 37 26 69 1 51 -41 50 -17 -3 66 -23 34 -43 78 -47 97 -4 30 -2 37 21 52 26
17 28 17 51 -5 14 -13 31 -20 40 -17 12 5 6 20 -32 82 -35 57 -47 86 -47 118
-1 46 -1 46 77 32 35 -7 37 -6 37 18 0 17 -7 28 -21 32 -11 4 -28 23 -38 43
-9 21 -25 49 -34 64 -12 17 -16 35 -12 48 7 22 21 22 69 4 13 -5 16 1 16 27 0
35 -32 99 -50 99 -5 0 -10 16 -10 35 0 34 1 35 39 35 49 0 64 27 32 59 -23 23
-36 64 -28 85 3 8 22 16 41 18 l35 3 -29 65 c-16 36 -30 71 -30 77 0 7 17 21
38 30 43 21 52 51 22 78 -11 10 -20 23 -20 29 0 6 -7 23 -14 38 -17 31 -15 34
37 43 30 6 37 11 37 31 0 13 -13 37 -30 54 -38 39 -38 65 -1 85 43 22 45 30
21 81 l-22 45 23 25 c21 22 22 27 10 60 -12 32 -11 38 8 58 23 24 28 75 11
107 -13 22 3 59 25 59 22 0 23 23 3 63 -17 34 -18 41 -5 60 8 12 16 49 19 81
3 39 11 63 21 71 12 9 17 28 17 69 0 43 3 56 15 56 11 0 15 12 15 49 0 28 4
52 9 55 5 3 12 25 15 49 7 44 39 107 55 107 5 0 11 -10 15 -22z m1038 5 c33
-29 17 -83 -24 -83 -20 0 -38 29 -38 63 0 41 29 50 62 20z m703 7 c3 -5 22
-10 41 -10 34 0 41 -10 28 -44 -15 -39 -104 -5 -104 40 0 24 23 34 35 14z
m-1371 -14 c66 -28 56 -96 -14 -96 l-40 0 0 55 c0 60 3 62 54 41z m859 -16 c6
-16 5 -41 -2 -68 -14 -49 -33 -54 -76 -20 -24 19 -26 25 -21 62 8 47 20 57 61
54 21 -2 32 -10 38 -28z m-509 -56 c20 -19 20 -34 0 -62 -10 -14 -25 -22 -45
-22 -28 0 -29 1 -29 50 0 49 1 50 29 50 16 0 37 -7 45 -16z m766 -19 c27 -29
32 -83 11 -109 -36 -43 -101 7 -101 77 0 24 3 47 7 50 15 16 61 6 83 -18z
m195 -17 c4 -13 18 -38 32 -56 27 -36 23 -52 -13 -52 -71 0 -106 125 -37 129
6 1 15 -9 18 -21z m253 6 c25 -17 31 -81 10 -102 -15 -15 -63 -16 -89 -2 -26
15 -26 60 1 67 11 3 23 16 26 29 7 28 21 30 52 8z m161 -9 c19 -18 5 -35 -29
-35 -18 0 -33 7 -39 18 -21 39 31 51 68 17z m-1580 4 c30 -11 51 -35 51 -58 0
-18 -39 -51 -60 -51 -31 0 -70 44 -70 79 0 40 23 49 79 30z m324 -30 c14 -22
1 -66 -21 -71 -30 -8 -62 9 -62 33 0 49 59 76 83 38z m297 -17 c26 -21 20 -62
-10 -62 -19 0 -50 40 -50 65 0 21 33 19 60 -3z m195 -18 c45 -48 42 -114 -6
-129 -29 -10 -71 23 -85 66 -25 74 39 119 91 63z m-980 -4 c12 -13 15 -27 11
-45 -6 -22 -11 -26 -39 -23 -30 3 -32 6 -35 46 -3 39 -1 42 21 42 13 0 32 -9
42 -20z m313 -36 c17 -12 22 -24 20 -46 -4 -40 -28 -55 -65 -42 -30 10 -39 37
-29 80 8 29 40 32 74 8z m1539 -30 c25 -28 43 -56 43 -70 0 -22 -4 -24 -46
-24 -42 0 -46 2 -59 34 -19 45 -17 106 3 106 9 0 35 -21 59 -46z m-617 27 c0
-4 14 -25 30 -46 31 -39 38 -69 19 -80 -48 -30 -128 82 -87 123 14 14 38 16
38 3z m780 -10 c14 -27 2 -51 -26 -51 -20 0 -24 5 -24 28 0 45 30 59 50 23z
m-300 -41 c0 -52 -30 -85 -68 -75 -15 3 -33 13 -39 22 -17 22 -16 63 1 63 7 0
19 7 26 15 7 8 28 15 46 15 33 0 34 -1 34 -40z m-252 -15 c53 -57 54 -75 5
-75 -51 0 -73 23 -73 77 0 56 14 55 68 -2z m-948 -31 c0 -64 -13 -84 -55 -84
-45 0 -80 32 -65 60 5 10 18 21 29 25 10 3 26 14 36 25 10 11 26 20 37 20 15
0 18 -8 18 -46z m596 6 c6 0 23 -11 38 -25 19 -17 26 -34 26 -60 0 -35 0 -35
-45 -35 -32 0 -50 6 -64 21 -43 46 -34 117 13 105 12 -3 26 -6 32 -6z m-956
-15 c18 -21 5 -45 -25 -45 -14 0 -28 7 -31 15 -7 17 12 45 31 45 7 0 18 -7 25
-15z m578 -32 c33 -30 251 -320 305 -407 80 -129 163 -221 544 -601 250 -250
371 -364 404 -380 52 -27 89 -67 89 -97 0 -10 -11 -29 -25 -42 -25 -24 -30
-41 -19 -70 11 -28 33 -17 52 27 31 70 124 161 251 244 189 125 202 124 346
-13 95 -91 99 -96 80 -110 -17 -13 -21 -12 -43 11 -26 28 -61 45 -93 45 -13 0
-19 -7 -19 -24 0 -19 15 -35 70 -71 100 -67 130 -115 70 -115 -22 0 -43 12
-74 40 -43 40 -69 49 -81 30 -14 -22 8 -49 65 -79 65 -35 64 -34 74 -74 10
-41 -18 -46 -76 -14 -55 31 -93 35 -102 11 -11 -29 21 -61 76 -79 77 -25 98
-41 98 -74 0 -47 -23 -57 -66 -30 -55 33 -106 39 -249 28 -96 -8 -146 -17
-192 -35 -44 -17 -81 -24 -130 -24 l-68 0 -620 414 c-663 442 -689 463 -837
647 -29 37 -99 116 -155 176 -55 61 -108 124 -117 141 -24 46 -21 133 5 166
l21 26 64 -36 c47 -26 65 -32 68 -22 43 133 43 133 -4 140 -18 2 -26 10 -28
29 -2 21 13 43 79 113 58 61 88 86 105 86 17 0 24 6 24 20 0 17 7 20 44 20 27
0 51 -7 64 -17z m-454 -9 c9 -3 16 -17 16 -30 0 -20 -5 -24 -30 -24 -32 0 -47
18 -36 45 6 16 24 19 50 9z m1510 -35 c52 -41 16 -101 -51 -84 -20 5 -23 12
-23 49 0 23 3 46 7 49 12 13 40 7 67 -14z m-176 -6 c22 -20 39 -78 24 -87 -5
-3 -27 -8 -49 -12 -46 -7 -73 12 -73 52 0 61 53 85 98 47z m500 -35 c3 -46 2
-48 -22 -48 -24 0 -26 3 -26 51 0 47 2 50 23 47 19 -3 22 -10 25 -50z m-693
-7 c0 -37 -30 -50 -55 -25 -29 29 -17 56 24 52 25 -2 31 -7 31 -27z m509 0 c8
-12 -21 -34 -33 -27 -6 4 -8 13 -4 21 6 17 29 20 37 6z m-1585 -43 c20 -55
-34 -113 -84 -90 -28 13 -34 49 -9 59 8 3 20 16 25 29 12 32 56 33 68 2z
m-177 -13 c-5 -25 -8 -29 -21 -20 -19 11 -13 47 7 43 11 -2 16 -11 14 -23z
m1064 -21 c0 -32 -21 -47 -48 -32 -25 13 -22 47 5 58 32 13 42 7 43 -26z m488
-23 c26 -28 18 -75 -13 -79 -27 -4 -67 14 -75 34 -7 18 32 64 53 64 10 0 26
-9 35 -19z m481 -23 c43 -19 42 -88 -1 -88 -16 0 -44 50 -44 80 0 23 9 25 45
8z m-695 -16 c0 -24 -19 -42 -45 -42 -26 0 -45 18 -45 42 0 15 8 18 45 18 37
0 45 -3 45 -18z m391 -1 c20 -16 21 -21 10 -35 -18 -22 -57 -20 -81 4 -32 32
-25 50 21 50 15 0 37 -8 50 -19z m-537 -43 c32 -46 9 -128 -35 -128 -34 0 -59
19 -59 45 0 18 5 25 20 25 16 0 20 7 20 33 0 52 27 64 54 25z m979 -93 c7 -92
3 -115 -19 -115 -11 0 -14 17 -14 69 0 38 -3 83 -6 100 -6 26 -4 31 13 31 18
0 21 -9 26 -85z m-750 50 c23 -22 7 -69 -23 -73 -29 -5 -50 21 -50 60 0 24 4
28 29 28 16 0 36 -7 44 -15z m555 -27 c21 -21 14 -66 -13 -84 -23 -15 -27 -15
-50 0 -28 18 -31 33 -13 71 12 27 54 35 76 13z m-383 -10 c32 -15 34 -48 2
-48 -28 0 -47 17 -47 42 0 21 9 22 45 6z m-290 -61 c29 -45 -12 -127 -64 -127
-20 0 -61 27 -61 40 0 15 84 108 97 109 7 1 19 -10 28 -22z m199 -23 c10 -26
7 -34 -15 -34 -12 0 -23 -8 -26 -20 -3 -11 -14 -20 -24 -20 -24 0 -26 46 -2
72 20 22 59 24 67 2z m-434 -6 c0 -23 -16 -39 -33 -32 -17 6 -22 25 -10 37 11
12 43 8 43 -5z m810 -73 c0 -17 -16 -35 -31 -35 -13 0 -19 7 -19 23 0 13 3 27
6 30 6 6 44 -9 44 -18z m-2032 3 c7 -7 12 -23 12 -36 0 -18 -5 -23 -21 -20
-27 4 -44 30 -36 52 7 19 28 21 45 4z m1529 -60 c33 -38 36 -48 17 -69 -25
-28 -56 -24 -76 11 -34 60 14 107 59 58z m823 -22 c0 -13 -7 -29 -15 -36 -12
-10 -15 -10 -15 1 0 8 -3 24 -6 37 -5 18 -2 22 15 22 15 0 21 -6 21 -24z
m-614 -1 c8 -20 -13 -45 -38 -45 -21 0 -33 22 -24 45 7 20 55 19 62 0z m405
-6 c18 -18 19 -23 6 -42 -10 -15 -25 -22 -48 -22 -28 0 -35 5 -44 28 -8 24 -6
31 10 43 27 20 52 17 76 -7z m-2057 -65 c10 -27 7 -34 -19 -34 -18 0 -25 5
-25 18 0 34 33 45 44 16z m1971 -105 c0 -31 -3 -34 -32 -37 -29 -3 -33 0 -33
22 0 13 5 37 10 51 10 26 12 26 33 12 15 -10 22 -24 22 -48z m-2781 -5 c3 -9
6 -40 6 -69 0 -44 -4 -56 -20 -65 -17 -9 -20 -21 -20 -80 0 -49 -4 -70 -12
-70 -12 0 -68 -116 -68 -140 0 -5 6 -20 13 -31 10 -17 10 -23 0 -26 -18 -6
-16 -64 2 -87 8 -11 15 -29 15 -39 0 -17 -5 -19 -45 -15 -25 3 -48 2 -50 -2
-3 -5 6 -22 20 -38 14 -16 25 -42 25 -56 0 -26 -13 -35 -25 -16 -7 12 -42 13
-49 2 -3 -5 8 -35 24 -68 38 -75 39 -92 5 -70 -28 18 -61 21 -70 5 -8 -12 40
-89 55 -89 6 0 10 -9 10 -21 0 -19 -4 -20 -51 -14 l-51 7 13 -23 c6 -13 18
-28 25 -32 8 -4 14 -19 14 -32 0 -22 -5 -25 -35 -25 -19 0 -35 -2 -35 -4 0 -2
11 -27 24 -56 13 -28 22 -59 19 -69 -4 -16 -9 -17 -34 -8 -46 18 -59 -4 -25
-43 15 -18 26 -44 26 -61 0 -27 -2 -29 -40 -29 -47 0 -52 -15 -15 -50 27 -26
32 -49 13 -68 -17 -17 -47 -15 -54 3 -9 21 -42 19 -56 -5 -18 -29 -56 -26 -64
4 -6 27 3 68 70 316 25 91 57 222 71 291 43 211 84 329 211 601 30 64 63 145
74 180 26 85 69 132 84 92z m940 -19 c6 -17 -3 -47 -17 -56 -20 -14 -47 3 -47
30 0 15 3 31 7 34 12 13 51 7 57 -8z m-194 -10 c17 -20 8 -49 -16 -53 -27 -4
-47 21 -39 48 7 23 37 27 55 5z m2118 -70 c22 -48 16 -65 -22 -65 -38 0 -70
25 -62 47 3 8 6 21 6 29 0 9 11 14 33 14 26 0 36 -6 45 -25z m-1808 -30 c30
-16 47 -53 36 -80 -7 -18 -48 -20 -79 -2 -30 16 -37 27 -37 59 0 39 31 48 80
23z m1681 -56 c7 -15 8 -24 0 -32 -14 -14 -41 9 -41 34 0 26 27 24 41 -2z
m313 5 c3 -9 6 -33 6 -55 0 -36 -3 -41 -52 -69 -29 -16 -59 -38 -66 -50 -24
-39 -72 -19 -72 30 0 43 69 129 120 152 27 12 58 8 64 -8z m-2379 -30 c0 -12
-8 -20 -22 -22 -20 -3 -23 1 -23 27 0 27 2 30 23 22 12 -5 22 -17 22 -27z
m223 24 c19 -19 14 -46 -13 -64 -39 -26 -75 -6 -75 41 0 34 1 35 38 35 21 0
43 -5 50 -12z m298 -84 c39 -26 48 -51 29 -80 -11 -18 -24 -24 -50 -24 -59 0
-88 72 -43 104 28 20 33 20 64 0z m-171 -44 c20 -16 19 -64 -1 -84 -23 -23
-74 -21 -74 3 0 10 -7 24 -15 31 -8 7 -15 26 -15 43 0 29 1 30 45 25 25 -3 52
-11 60 -18z m303 -60 c39 -37 20 -105 -28 -98 -17 2 -28 14 -39 41 -13 34 -12
39 4 57 23 25 36 25 63 0z m1407 0 c15 -17 17 -28 9 -72 -10 -59 -37 -78 -53
-36 -20 52 -28 107 -17 118 16 16 41 12 61 -10z m1006 -155 c-1 -83 1 -145 6
-145 14 0 3 -733 -10 -742 -7 -4 -8 -108 -4 -321 4 -206 3 -317 -3 -319 -11
-3 -16 -550 -5 -568 3 -5 26 -18 50 -29 53 -23 59 -50 19 -78 -85 -59 -99 -91
-129 -308 -8 -55 -19 -117 -25 -138 -6 -21 -8 -57 -5 -80 4 -24 0 -71 -9 -112
-8 -38 -17 -117 -20 -175 -4 -68 -37 -277 -95 -590 -49 -267 -89 -476 -90
-465 0 11 32 227 70 480 53 343 73 505 80 635 5 96 15 200 23 230 9 32 18 128
22 230 8 221 12 213 -122 220 -93 5 -99 6 -113 31 -13 23 -13 42 -2 140 13
112 23 147 45 161 24 16 69 6 141 -32 42 -22 81 -38 86 -35 5 4 9 16 9 29 0
12 5 27 11 33 7 7 10 54 8 137 -3 85 -1 126 7 126 7 0 10 45 10 133 -1 72 0
155 1 182 1 28 0 178 -1 335 -2 157 0 484 3 728 6 368 9 445 21 452 8 5 17 7
19 4 3 -2 4 -70 2 -149z m-915 79 c12 -18 14 -28 6 -36 -18 -18 -42 -1 -42 32
0 37 14 39 36 4z m-1915 -3 c20 -16 22 -23 14 -47 -14 -38 -57 -63 -79 -45
-21 17 -21 75 0 95 20 21 37 20 65 -3z m249 -7 c16 -42 12 -53 -24 -59 -39 -8
-76 8 -76 32 0 51 83 74 100 27z m2414 -2 c60 -35 66 -62 66 -314 0 -172 -3
-227 -12 -231 -10 -3 -10 -9 -2 -23 7 -13 8 -76 3 -204 -6 -155 -5 -186 7
-193 19 -11 18 -36 -2 -44 -13 -5 -15 -23 -8 -137 8 -158 -12 -746 -28 -798
-11 -36 -13 -38 -55 -38 -60 0 -99 23 -124 73 -26 49 -27 93 -10 322 7 88 15
259 20 380 7 184 11 229 29 275 12 33 22 90 25 143 3 51 11 96 19 110 20 31
48 147 48 200 0 23 4 47 9 53 9 9 21 101 23 179 1 44 -25 104 -67 153 -19 23
-25 41 -25 77 0 46 0 47 28 40 15 -3 40 -14 56 -23z m-2116 -24 c15 -15 16
-53 2 -78 -17 -31 -45 -42 -74 -28 -52 23 -25 118 34 118 14 0 31 -5 38 -12z
m185 -31 c18 -21 18 -22 -3 -31 -18 -8 -26 -6 -41 13 -11 13 -19 30 -19 38 0
20 40 8 63 -20z m-373 -49 c0 -40 -25 -68 -62 -68 -26 0 -28 3 -28 38 0 47 14
62 57 62 30 0 33 -3 33 -32z m-242 -18 c13 -12 22 -33 22 -50 0 -25 -5 -31
-32 -38 -45 -12 -68 1 -68 40 0 32 24 68 45 68 6 0 21 -9 33 -20z m802 -42 c0
-31 -29 -58 -62 -58 -42 0 -85 50 -61 73 3 4 33 7 65 7 53 0 58 -2 58 -22z
m-282 -28 c9 0 24 -5 32 -10 13 -9 13 -11 0 -20 -22 -15 -57 -12 -74 6 -19 18
-11 38 11 30 8 -3 22 -6 31 -6z m-365 -72 c23 -36 -37 -63 -84 -38 -17 10 -26
49 -14 62 11 10 89 -8 98 -24z m762 -38 c11 -20 15 -50 13 -88 -3 -50 -6 -57
-25 -60 -22 -3 -23 -1 -23 87 0 96 9 111 35 61z m104 -40 c17 -57 -6 -99 -37
-68 -12 12 -17 100 -6 111 13 13 32 -6 43 -43z m-199 10 c0 -10 9 -28 21 -39
17 -16 19 -26 14 -65 -9 -59 -25 -77 -107 -123 -124 -70 -307 -203 -354 -257
-60 -70 -103 -94 -138 -78 -26 11 -26 12 -26 132 0 95 3 120 14 120 24 0 34
-23 41 -92 4 -38 12 -68 18 -68 9 0 6 68 -9 163 -6 34 -2 43 27 74 19 19 54
46 79 61 25 14 68 45 97 68 29 23 73 52 98 64 26 12 49 29 52 36 6 16 88 19
98 4 4 -6 16 -5 33 5 36 19 42 19 42 -5z m-326 -22 c-3 -13 -7 -23 -8 -24 -11
-6 -190 -132 -247 -174 -74 -55 -79 -57 -156 -64 -87 -7 -137 4 -153 34 -6 10
-10 50 -10 89 l0 71 29 0 c33 0 41 -14 41 -70 0 -23 7 -46 18 -56 16 -17 17
-14 22 56 7 96 19 106 155 120 55 6 127 17 160 24 33 8 82 14 108 15 46 1 48
0 41 -21z m-620 -124 c18 -7 21 -82 6 -119 l-8 -20 -7 20 c-4 11 -11 30 -16
43 -12 30 -12 82 0 82 5 0 16 -3 25 -6z m1106 -101 c-1 -24 -24 -53 -43 -53
-14 0 -15 14 -1 58 6 19 44 15 44 -5z m-2140 -39 c14 -37 12 -64 -4 -64 -22 0
-46 40 -46 78 0 30 2 32 20 22 12 -6 25 -22 30 -36z m2638 -46 c7 -7 12 -22
12 -35 0 -20 -5 -23 -39 -23 -47 0 -67 19 -51 49 12 24 58 29 78 9z m-593 -22
c12 -18 15 -36 10 -70 -7 -45 -8 -46 -45 -46 -23 0 -47 8 -61 20 l-24 20 31
27 c18 16 37 38 43 51 15 28 27 28 46 -2z m397 -11 c-5 -44 -21 -56 -65 -48
-34 5 -38 9 -35 32 2 20 9 27 31 29 15 2 27 8 27 13 0 6 10 9 23 7 18 -2 21
-8 19 -33z m1021 4 c73 -48 87 -72 87 -143 -1 -90 -27 -141 -86 -168 -124 -54
-265 44 -268 186 -1 99 59 156 165 156 45 0 64 -6 102 -31z m-1202 -9 c7 -31
-16 -80 -37 -80 -22 0 -64 41 -64 62 0 50 88 66 101 18z m-911 -61 c16 -37 18
-157 3 -183 -10 -19 -11 -19 -20 0 -12 23 -25 198 -16 208 12 12 21 6 33 -25z
m520 -23 c0 -35 -64 -53 -76 -21 -11 28 4 45 41 45 30 0 35 -3 35 -24z m-596
-8 c22 -31 22 -180 1 -198 -21 -17 -29 25 -21 109 4 52 2 72 -10 89 -13 19
-13 22 0 22 8 0 22 -10 30 -22z m1412 -13 c6 -14 41 -31 57 -27 4 1 7 -11 7
-28 0 -50 -56 -63 -102 -22 -18 15 -26 91 -12 105 9 9 44 -11 50 -28z m-541 8
c34 -33 3 -123 -46 -136 -24 -6 -69 28 -69 54 0 19 34 76 55 91 17 13 43 9 60
-9z m188 -57 c-12 -58 -85 -77 -91 -23 -3 20 5 36 29 59 l32 32 17 -21 c10
-13 16 -32 13 -47z m151 11 c14 -22 -4 -52 -30 -52 -27 0 -48 48 -34 76 10 18
14 19 33 6 11 -7 26 -21 31 -30z m-1403 23 c38 -21 19 -91 -29 -108 -39 -13
-62 1 -62 39 0 61 43 94 91 69z m131 -17 c15 -13 18 -31 18 -100 l0 -83 -30 0
c-21 0 -35 8 -47 26 -15 24 -15 29 0 70 9 25 14 51 11 59 -8 20 2 45 17 45 7
0 21 -7 31 -17z m732 -15 c33 -47 14 -88 -40 -88 -44 0 -60 21 -44 60 21 52
59 64 84 28z m961 -12 c20 -14 15 -46 -8 -46 -24 0 -51 26 -44 44 8 20 27 21
52 2z m-1985 -31 c0 -14 -2 -25 -4 -25 -2 0 -11 -3 -20 -6 -12 -5 -16 0 -16
18 0 28 7 38 27 38 7 0 13 -11 13 -25z m840 0 c0 -47 -82 -63 -88 -16 -4 29
12 41 56 41 27 0 32 -3 32 -25z m649 -22 c28 -23 40 -70 29 -110 -8 -29 -13
-33 -44 -33 -50 0 -89 40 -80 83 14 71 52 95 95 60z m-179 -23 c49 -26 40
-132 -12 -138 -39 -5 -68 28 -68 77 0 59 34 85 80 61z m-2271 -33 c7 -19 9
-41 5 -50 -5 -15 -8 -15 -29 -1 -27 18 -36 44 -23 68 15 26 36 19 47 -17z
m2839 -4 c24 -38 23 -59 -4 -70 -36 -13 -71 66 -42 95 17 17 20 15 46 -25z
m-950 -16 c17 -36 4 -78 -30 -94 -20 -10 -33 -10 -64 1 -32 11 -40 18 -42 42
-2 19 5 40 19 58 18 23 28 27 63 24 33 -2 43 -8 54 -31z m183 23 c25 -14 25
-54 -1 -80 -35 -35 -83 -20 -95 31 -11 44 48 74 96 49z m-399 -45 c11 -40 2
-72 -24 -86 -21 -11 -95 -15 -105 -5 -19 19 74 130 104 124 9 -2 20 -16 25
-33z m506 -65 c24 -23 27 -45 11 -87 -27 -71 -98 -105 -141 -66 -33 30 -23 63
39 120 31 29 59 53 63 53 3 0 16 -9 28 -20z m374 3 c13 -11 18 -30 18 -65 0
-53 -12 -65 -55 -54 -50 13 -57 75 -13 116 26 24 27 24 50 3z m996 5 c14 -14
17 -124 4 -132 -5 -3 -12 -96 -15 -207 -4 -117 -11 -206 -17 -214 -7 -8 -11
-146 -13 -399 -2 -345 -4 -386 -18 -386 -14 0 -15 -20 -11 -181 3 -120 1 -184
-6 -191 -7 -7 -8 -36 -5 -79 4 -49 2 -69 -6 -69 -8 0 -11 -51 -11 -178 0 -98
-4 -182 -9 -188 -6 -5 -12 -61 -14 -124 -3 -63 -6 -121 -6 -127 -1 -7 -1 -51
0 -97 0 -47 -3 -91 -7 -98 -11 -15 -15 -88 -13 -215 0 -72 -2 -93 -13 -93 -10
0 -13 -33 -11 -166 1 -92 -2 -177 -7 -190 -5 -12 -11 -125 -14 -251 -3 -125
-10 -250 -15 -278 -5 -27 -10 -134 -10 -236 -1 -103 -6 -211 -11 -240 -6 -30
-15 -146 -19 -259 -8 -189 -11 -213 -40 -305 -18 -55 -35 -126 -38 -158 -3
-32 -10 -60 -14 -63 -5 -3 -9 -16 -9 -30 0 -13 -6 -24 -14 -24 -11 0 -14 56
-18 298 -4 199 -2 299 5 304 6 4 8 40 4 101 -5 86 -3 96 15 111 16 14 18 23
11 44 -12 41 -8 446 7 537 7 44 14 162 17 263 3 100 9 182 13 182 15 0 23 226
10 295 -7 35 -9 73 -5 82 5 10 9 88 11 173 2 85 8 216 15 290 6 74 13 192 16
263 4 99 8 127 19 127 11 0 14 36 16 193 4 289 4 305 -5 399 -6 71 -4 89 8
102 12 12 15 49 15 209 0 106 2 196 5 199 3 3 8 97 11 209 6 211 14 360 35
631 13 155 13 158 38 167 37 14 105 13 119 -1z m-3748 -23 c26 -28 27 -36 13
-186 -4 -55 -14 -103 -22 -112 -16 -20 -81 -23 -99 -5 -14 14 -16 118 -2 118
6 0 19 9 30 20 23 23 26 64 9 121 -20 66 25 93 71 44z m2589 -1 c20 -15 23
-23 18 -62 -7 -63 -35 -87 -80 -69 -18 8 -38 26 -46 42 -12 25 -12 32 0 54 14
24 52 51 74 51 6 0 21 -7 34 -16z m515 -10 c31 -30 14 -84 -26 -84 -15 0 -18
8 -18 43 0 59 14 72 44 41z m-929 -14 c36 -40 -10 -129 -77 -145 -63 -16 -95
89 -43 140 31 32 93 34 120 5z m-244 -12 c9 -14 -6 -74 -26 -104 -38 -58 -122
-63 -146 -10 -15 32 -6 53 28 68 15 7 43 25 61 41 33 27 67 30 83 5z m-1753
-46 c2 -32 -1 -44 -14 -49 -33 -13 -59 58 -32 85 24 24 43 9 46 -36z m1064 31
c22 -20 24 -71 2 -80 -29 -11 -60 36 -55 85 1 17 31 15 53 -5z m1712 -6 c9
-15 7 -21 -8 -33 -25 -18 -29 -18 -57 4 -15 13 -20 25 -16 36 9 23 66 18 81
-7z m-1276 -23 c4 -28 -58 -108 -87 -112 -31 -5 -63 26 -59 57 7 58 138 108
146 55z m-256 -25 c4 -25 0 -33 -19 -42 -26 -12 -49 -3 -67 25 -15 24 10 48
49 48 29 0 33 -4 37 -31z m1032 -35 c14 -36 6 -111 -15 -138 -25 -32 -70 -35
-99 -6 -31 31 -22 91 22 138 26 26 83 31 92 6z m230 -10 c20 -20 20 -53 0
-104 -24 -59 -86 -67 -120 -15 -22 34 -8 70 39 105 47 34 59 36 81 14z m167 6
c23 -13 26 -65 5 -115 -13 -30 -20 -35 -50 -35 -42 0 -86 46 -86 91 0 27 3 29
39 29 30 0 40 4 44 20 6 22 19 25 48 10z m146 -14 c4 -8 19 -16 33 -18 35 -4
38 -41 6 -73 -31 -31 -50 -32 -81 0 -24 23 -35 82 -18 98 12 12 52 7 60 -7z
m-999 -33 c2 -22 -3 -37 -15 -47 -97 -81 -118 -89 -147 -60 -20 20 -20 29 0
64 24 40 93 81 129 78 26 -3 30 -8 33 -35z m-238 -58 c0 -60 -30 -95 -79 -95
-65 0 -110 54 -83 98 5 7 33 27 63 45 l54 34 23 -20 c16 -15 22 -32 22 -62z
m-732 45 c3 -30 -20 -66 -36 -56 -7 4 -12 25 -12 47 0 36 2 40 23 37 15 -2 23
-11 25 -28z m283 10 c38 -21 11 -100 -35 -100 -47 0 -62 54 -26 90 23 23 33
24 61 10z m170 0 c42 -23 11 -110 -40 -110 -36 0 -51 17 -51 56 0 54 43 79 91
54z m749 -10 c22 -22 27 -79 8 -98 -18 -18 -98 -15 -120 5 -44 39 -7 113 57
113 22 0 43 -8 55 -20z m1180 -22 c14 -23 20 -51 20 -94 0 -49 7 -73 35 -130
51 -101 46 -127 -33 -169 -26 -14 -62 -35 -80 -47 -19 -12 -37 -17 -42 -12 -5
5 -12 93 -16 196 -5 143 -10 188 -20 192 -18 7 -19 82 -1 89 6 3 36 6 65 6 49
1 54 -1 72 -31z m-2252 -26 c4 -27 -22 -40 -43 -22 -8 7 -15 21 -15 32 0 30
54 21 58 -10z m-1014 -25 c25 -19 18 -61 -12 -65 -26 -4 -37 17 -28 53 7 28
15 31 40 12z m1918 -14 c20 -18 25 -93 9 -136 -17 -45 -38 -57 -102 -57 -56 0
-59 1 -59 24 0 14 5 37 10 52 11 29 100 133 114 133 5 1 18 -6 28 -16z m469
-3 c36 -20 19 -111 -25 -131 -34 -16 -93 -3 -107 22 -17 32 -3 66 38 94 41 27
64 31 94 15z m429 -102 c0 -22 -34 -58 -55 -58 -74 0 -117 106 -56 136 22 11
29 9 68 -24 23 -20 43 -44 43 -54z m-1588 70 c40 -33 22 -118 -25 -118 -66 1
-77 19 -61 99 6 27 11 31 38 31 18 0 39 -6 48 -12z m1358 2 c0 -5 9 -10 20
-10 27 0 27 -39 -1 -74 -22 -28 -56 -34 -90 -16 -22 12 -25 49 -6 72 24 30 77
50 77 28z m-1152 -12 c18 -18 15 -103 -4 -118 -8 -8 -34 -14 -57 -14 l-42 -1
-3 57 c-3 49 0 58 20 72 27 19 69 21 86 4z m740 -10 c26 -22 13 -56 -32 -88
-73 -50 -116 -40 -116 26 0 34 5 46 22 55 53 28 96 31 126 7z m-1103 -19 c12
-36 -3 -69 -30 -69 -21 0 -25 5 -25 29 0 28 22 61 40 61 5 0 12 -9 15 -21z
m610 4 c12 -11 15 -25 11 -46 -3 -16 -6 -35 -6 -42 0 -7 -17 -24 -39 -38 -38
-25 -39 -25 -72 -9 -35 18 -46 44 -35 88 11 41 40 48 76 18 35 -30 49 -26 32
10 -17 37 4 49 33 19z m1265 -59 c0 -22 -4 -25 -27 -22 -24 3 -28 8 -31 40
l-3 37 30 -15 c22 -11 31 -23 31 -40z m-952 -50 c18 -12 22 -25 22 -70 0 -42
-3 -54 -15 -54 -9 0 -18 7 -21 15 -8 19 -44 20 -44 0 0 -7 7 -18 16 -23 25
-14 7 -32 -30 -32 -43 0 -71 30 -62 65 7 29 82 115 100 115 6 0 22 -7 34 -16z
m478 1 c10 -26 -17 -114 -39 -130 -27 -19 -81 -19 -96 -1 -7 8 -11 36 -9 63 3
44 6 50 38 65 43 22 99 23 106 3z m382 -49 c-2 -33 -7 -42 -24 -44 -44 -6 -56
54 -18 93 25 25 46 1 42 -49z m-603 -1 l0 -50 -38 3 c-45 4 -67 -11 -67 -44 0
-30 -32 -32 -60 -4 -34 34 -26 65 27 102 62 43 72 47 108 45 29 -2 30 -4 30
-52z m443 39 c29 -20 28 -56 -1 -90 -43 -49 -127 -26 -127 34 0 59 76 92 128
56z m-1393 -19 c19 -18 25 -35 25 -70 0 -44 -1 -45 -33 -45 -53 0 -77 24 -77
75 0 31 5 47 18 54 27 16 41 13 67 -14z m219 3 c19 -27 20 -48 4 -99 -10 -34
-15 -39 -40 -39 -38 0 -108 57 -108 88 0 12 6 22 13 22 7 0 28 11 47 25 44 30
65 31 84 3z m1506 3 c5 -11 10 -34 10 -51 0 -30 -2 -31 -37 -28 -35 3 -38 6
-41 36 -2 18 2 40 9 48 16 20 46 17 59 -5z m-1908 -28 c36 -32 13 -98 -32 -91
-15 2 -30 14 -38 31 -12 24 -11 31 2 53 19 28 42 31 68 7z m1438 -83 c27 -27
27 -92 -1 -136 -18 -30 -26 -34 -63 -34 -62 0 -86 21 -86 76 0 39 3 46 28 55
15 5 37 21 50 35 28 29 46 30 72 4z m360 -8 c0 -10 11 -29 25 -42 30 -28 31
-41 5 -65 -40 -37 -110 11 -110 75 0 45 5 50 47 50 25 0 33 -4 33 -18z m-152
-18 c26 -18 29 -59 6 -92 -19 -27 -88 -31 -116 -5 -18 16 -24 59 -10 79 23 34
84 43 120 18z m-1549 -8 c7 -8 11 -34 9 -57 -4 -50 -41 -86 -77 -74 -17 5 -21
14 -21 53 0 27 7 57 16 70 17 25 56 29 73 8z m621 -11 c45 -23 53 -87 14 -102
-11 -4 -23 1 -35 15 -16 21 -39 30 -39 15 0 -4 10 -17 22 -30 17 -19 20 -28
12 -41 -29 -46 -94 -7 -94 58 0 40 22 77 54 90 30 12 33 12 66 -5z m461 5 c14
-8 19 -21 19 -50 0 -49 -37 -90 -55 -61 -3 5 -30 7 -60 4 -51 -5 -55 -4 -55
15 0 12 6 26 13 31 6 6 28 24 47 40 37 32 59 37 91 21z m-1277 -19 c25 -28 18
-75 -12 -79 -45 -7 -66 35 -40 78 16 25 30 25 52 1z m526 -42 c0 -39 -35 -75
-56 -58 -23 19 -14 71 15 86 32 15 41 9 41 -28z m520 21 c0 -10 -13 -34 -29
-52 -15 -18 -33 -43 -40 -55 -15 -29 -37 -20 -51 22 -9 27 -8 40 4 63 18 35
28 40 79 41 30 1 37 -2 37 -19z m-699 -7 c56 -26 67 -93 16 -93 -41 0 -67 27
-67 71 0 21 3 39 7 39 3 0 23 -8 44 -17z m1967 -30 c11 -20 3 -255 -8 -273
-15 -24 -30 2 -30 52 0 33 -6 58 -16 69 -12 13 -13 22 -5 38 6 11 11 42 11 69
0 27 3 52 7 55 12 13 32 7 41 -10z m-934 -55 c48 -21 45 -90 -6 -133 -36 -30
-81 -32 -108 -5 -26 26 -25 56 2 78 12 9 34 29 48 44 29 31 31 32 64 16z m248
-5 c26 -30 29 -59 12 -102 -18 -47 -38 -61 -84 -61 -37 0 -80 38 -80 71 0 12
19 40 44 65 47 48 82 56 108 27z m578 -8 c0 -14 5 -25 10 -25 6 0 10 -35 10
-85 0 -66 -3 -85 -14 -85 -9 0 -16 15 -19 43 -3 23 -11 65 -18 93 -13 56 -8
84 16 84 9 0 15 -9 15 -25z m-440 -9 c0 -16 7 -27 20 -31 28 -9 40 2 40 33 0
21 2 24 10 12 16 -24 12 -47 -13 -76 -19 -22 -29 -26 -51 -20 -38 9 -66 41
-66 76 0 27 3 30 30 30 25 0 30 -4 30 -24z m207 -22 c-8 -46 -10 -48 -36 -32
-13 8 -21 23 -21 40 0 25 4 28 31 28 31 0 31 -1 26 -36z m-1859 -2 c13 -17 16
-79 6 -106 -10 -26 -60 -20 -83 10 -23 29 -20 76 7 107 17 20 49 15 70 -11z
m1011 -10 c19 -21 22 -33 18 -65 -3 -22 -12 -47 -21 -55 -14 -15 -77 -19 -96
-7 -19 12 -11 105 11 136 25 35 50 32 88 -9z m-445 22 c20 -8 21 -34 1 -60 -8
-10 -15 -27 -15 -36 0 -9 -5 -20 -11 -24 -18 -11 -41 22 -43 62 -1 31 4 40 24
51 30 15 25 14 44 7z m216 -23 c0 -10 -12 -39 -26 -65 -19 -35 -32 -46 -50
-46 -22 0 -24 4 -24 44 0 36 5 48 26 65 34 27 74 28 74 2z m-587 -22 c22 -28
22 -44 -3 -69 -26 -26 -46 -25 -75 5 -24 23 -34 73 -17 89 13 14 77 -3 95 -25z
m-362 11 c22 -13 26 -60 5 -60 -16 0 -46 37 -46 57 0 16 15 17 41 3z m508 -11
c23 -8 31 -17 31 -35 0 -35 -29 -43 -52 -15 -10 13 -18 32 -18 42 0 22 -2 22
39 8z m1418 -76 c9 -16 18 -29 19 -31 1 -2 14 4 29 14 24 15 28 16 42 2 23
-24 1 -55 -60 -84 -29 -13 -57 -24 -63 -24 -13 0 -44 64 -44 90 0 21 33 60 50
60 5 0 17 -12 27 -27z m-164 -4 c30 -16 37 -28 37 -66 0 -37 -42 -93 -71 -93
-33 0 -69 44 -69 84 0 27 7 40 33 60 37 29 40 30 70 15z m-1313 -49 c34 -66
21 -120 -28 -120 -21 0 -31 8 -44 39 -24 51 -23 77 7 107 30 29 39 26 65 -26z
m858 17 c18 -36 8 -72 -23 -93 -21 -14 -30 -14 -55 -4 -36 15 -40 48 -10 75
11 10 20 27 20 37 0 31 52 20 68 -15z m232 8 c21 -13 30 -53 19 -85 -12 -33
-35 -50 -70 -50 -27 0 -89 61 -89 88 0 19 34 56 60 64 15 5 60 -5 80 -17z
m625 3 c3 -13 9 -54 14 -92 6 -37 12 -70 15 -73 3 -3 30 5 60 18 64 26 101 18
112 -26 15 -61 -28 -108 -112 -121 -89 -13 -135 45 -142 183 -4 65 -1 88 12
108 20 31 34 32 41 3z m-1885 -25 c35 -44 7 -123 -43 -123 -31 0 -67 39 -67
72 0 71 69 103 110 51z m395 4 c22 -18 25 -28 20 -50 -9 -36 -36 -50 -69 -37
-33 12 -43 52 -22 85 20 31 37 31 71 2z m376 13 c32 -18 24 -47 -15 -53 -48
-8 -76 1 -69 21 15 42 44 53 84 32z m-213 -22 c28 -24 7 -48 -43 -48 -27 0
-39 24 -24 51 10 20 39 19 67 -3z m-741 -46 c4 -19 0 -30 -17 -44 -29 -23 -45
-23 -70 2 -26 26 -25 46 5 76 24 24 26 24 50 8 14 -9 28 -28 32 -42z m-188 29
c19 -12 4 -51 -20 -51 -22 0 -34 22 -25 45 6 17 24 19 45 6z m2142 -127 c15
-67 44 -114 82 -132 34 -17 39 -62 6 -62 -61 0 -129 103 -129 196 0 85 22 84
41 -2z m-408 24 c18 -24 19 -32 8 -67 -26 -87 -129 -109 -176 -38 -23 35 -5
67 58 105 62 36 83 36 110 0z m-243 -3 c8 -9 10 -27 6 -47 -15 -75 -93 -105
-135 -52 -31 40 -27 62 17 80 20 9 44 20 52 25 24 12 46 10 60 -6z m-650 -10
c0 -8 -4 -23 -9 -33 -6 -9 -12 -29 -16 -44 -4 -22 -11 -28 -30 -28 -23 0 -25
3 -25 50 0 36 5 52 18 59 26 16 62 13 62 -4z m184 -18 c8 -21 6 -31 -7 -44
-23 -23 -67 -3 -67 30 0 52 57 63 74 14z m944 -3 c4 -41 -12 -80 -43 -100 -23
-15 -27 -15 -50 0 -29 19 -33 46 -7 46 22 0 57 36 67 68 9 31 29 22 33 -14z
m-1272 1 c32 -49 -3 -125 -57 -125 -37 0 -51 27 -39 70 11 37 46 80 67 80 7 0
20 -11 29 -25z m-612 -11 c9 -8 16 -25 16 -37 0 -28 -38 -67 -67 -67 -21 0
-23 4 -23 53 0 30 3 57 7 60 12 13 51 7 67 -9z m204 -6 c19 -19 14 -66 -8 -88
-31 -31 -85 -30 -112 2 -40 46 -6 98 65 98 24 0 48 -5 55 -12z m193 2 c14 0
10 -64 -6 -87 -21 -29 -49 -34 -84 -12 -26 16 -31 25 -31 59 0 28 4 40 14 40
8 0 18 -5 21 -10 4 -6 14 -5 28 5 12 8 28 13 35 10 8 -3 18 -5 23 -5z m864
-106 c50 -54 18 -144 -50 -144 -51 0 -68 23 -63 86 3 29 10 60 17 68 21 25 69
20 96 -10z m-445 -13 c0 -43 -12 -61 -41 -61 -34 0 -36 11 -8 56 21 34 49 37
49 5z m640 13 c53 -36 63 -70 35 -124 -21 -40 -60 -49 -88 -21 -29 28 -30 110
-2 141 22 24 24 24 55 4z m288 -7 c64 -69 9 -198 -72 -167 -63 23 -88 120 -44
167 29 31 87 31 116 0z m-721 -13 c10 -26 -11 -49 -43 -49 -20 0 -30 6 -32 19
-8 37 62 64 75 30z m-925 -21 c22 -20 23 -70 1 -95 -21 -23 -28 -23 -53 4 -14
15 -20 35 -20 65 0 40 2 43 27 43 14 0 35 -7 45 -17z m180 0 c25 -23 24 -81
-4 -110 -42 -45 -98 -18 -98 46 0 70 56 105 102 64z m418 -1 c0 -11 -13 -24
-32 -33 -24 -10 -34 -22 -38 -44 -7 -39 -38 -40 -59 -4 -14 25 -13 30 10 63
22 33 28 36 72 36 39 0 47 -3 47 -18z m-738 -23 c13 -16 15 -25 6 -49 -12 -37
-49 -41 -72 -8 -16 23 -21 69 -10 81 11 11 58 -4 76 -24z m1938 -1 c41 -34 48
-55 30 -89 -11 -19 -45 -25 -66 -11 -31 21 -45 97 -22 120 16 16 14 17 58 -20z
m-1480 -14 c0 -28 -4 -35 -16 -32 -9 2 -22 11 -28 21 -9 15 -7 21 8 33 30 21
36 17 36 -22z m2359 15 l31 -11 0 -188 c0 -115 -4 -191 -10 -195 -5 -3 -10
-23 -10 -44 0 -20 -5 -42 -10 -47 -6 -6 -13 -84 -16 -179 -3 -104 -9 -172 -16
-176 -6 -4 -10 -52 -9 -130 2 -104 -2 -140 -23 -221 -16 -61 -28 -139 -31
-208 -4 -61 -13 -132 -20 -158 -8 -26 -15 -84 -15 -129 0 -67 -4 -87 -18 -101
-16 -16 -20 -42 -26 -142 -5 -83 -17 -159 -36 -233 -49 -190 -67 -162 -56 92
3 91 11 189 17 216 6 28 14 133 19 235 10 206 15 251 36 296 11 25 14 91 13
320 0 159 4 345 10 413 5 68 7 152 4 186 -4 41 -2 65 6 69 7 5 11 56 11 154 0
176 6 192 74 192 24 0 57 -5 75 -11z m-405 -21 c11 -15 12 -26 6 -32 -6 -6
-10 -29 -10 -52 0 -24 -4 -46 -10 -49 -6 -4 -10 -95 -10 -240 0 -129 -5 -254
-10 -277 -19 -80 -110 -1789 -115 -2157 -3 -188 -8 -348 -13 -355 -4 -6 -8
-49 -8 -96 -1 -47 -7 -134 -13 -195 -6 -60 -13 -148 -16 -195 -2 -47 -4 -98
-5 -115 -1 -16 1 -69 5 -116 5 -60 4 -88 -4 -93 -6 -4 -11 -27 -11 -52 l0 -44
-66 0 -67 0 -64 69 c-67 72 -130 112 -248 156 -110 42 -138 60 -190 125 -144
179 -151 193 -119 239 23 32 74 51 139 51 53 0 59 2 108 49 64 59 85 71 132
71 41 0 74 15 92 40 7 10 31 20 54 24 57 9 94 33 126 81 15 22 46 61 70 86
l44 46 -4 149 c-2 82 -7 162 -12 178 -5 18 -4 31 4 35 7 5 8 17 1 41 -13 45
-13 160 0 160 16 0 11 42 -7 62 -14 16 -15 23 -5 38 9 15 12 120 12 399 0 243
4 382 10 386 6 4 10 62 10 140 0 74 4 136 9 140 6 3 10 122 10 290 0 244 -2
285 -14 285 -13 0 -15 45 -15 316 l0 316 35 41 c67 78 137 101 169 55z m-1466
-50 c7 -7 12 -34 12 -60 0 -44 -2 -48 -24 -48 -40 0 -64 48 -47 94 11 28 39
34 59 14z m237 -33 c45 -44 27 -105 -30 -105 l-35 0 0 58 c0 32 3 62 7 65 13
13 34 7 58 -18z m216 -4 c34 -35 37 -68 8 -105 -25 -31 -57 -33 -93 -5 -32 26
-34 61 -3 106 27 41 50 42 88 4z m258 -19 c37 -57 38 -75 10 -103 -18 -18 -29
-20 -65 -15 -70 9 -94 30 -94 82 0 33 4 44 15 44 8 0 32 9 52 20 21 11 41 20
44 20 4 0 21 -22 38 -48z m-883 14 c10 -40 1 -91 -17 -94 -39 -7 -62 54 -39
99 15 27 48 24 56 -5z m-886 -7 c0 -23 -22 -49 -40 -49 -23 0 -27 29 -8 48 15
15 48 16 48 1z m700 -38 c0 -55 -13 -71 -52 -64 -23 4 -28 10 -28 36 0 35 34
77 62 77 15 0 18 -8 18 -49z m-186 5 c8 -18 19 -37 25 -40 14 -9 14 -43 0 -51
-6 -4 -26 -4 -45 0 -41 7 -59 41 -49 92 5 27 11 33 30 33 19 0 28 -8 39 -34z
m-344 0 c0 -29 -13 -46 -35 -46 -34 0 -50 24 -30 44 20 20 65 21 65 2z m172
-3 c40 -36 8 -74 -45 -54 -27 11 -36 27 -29 54 6 22 49 23 74 0z m1852 1 c20
-19 20 -34 0 -62 -19 -28 -44 -28 -78 -1 -17 14 -26 30 -26 50 0 28 2 29 44
29 27 0 51 -6 60 -16z m-249 -6 c46 -21 48 -91 3 -96 -49 -6 -89 63 -56 96 15
15 21 15 53 0z m-967 -71 c6 -6 14 -25 17 -40 13 -51 -51 -92 -75 -48 -11 22
-14 84 -3 94 11 12 50 8 61 -6z m-723 -13 c33 -22 35 -76 3 -98 -32 -23 -54
-20 -77 11 -23 28 -21 54 7 86 19 21 36 22 67 1z m893 -21 c-2 -22 -9 -29 -30
-31 -24 -3 -28 0 -28 22 0 25 11 34 43 35 14 1 18 -5 15 -26z m247 2 c66 -66
-24 -157 -92 -93 -27 26 -30 73 -6 100 23 26 69 23 98 -7z m233 -7 c17 -14 15
-79 -4 -106 -18 -26 -59 -29 -92 -6 -29 20 -29 72 -1 108 18 23 26 26 53 20
17 -3 37 -11 44 -16z m-1186 -11 c7 -11 1 -51 -10 -71 -6 -11 -64 1 -74 17
-12 18 -10 51 5 66 14 14 67 7 79 -12z m203 -2 c31 -30 32 -71 3 -102 -43 -46
-118 -16 -118 47 0 36 39 80 70 80 12 0 32 -11 45 -25z m161 10 c8 -20 -34
-85 -55 -85 -40 0 -58 69 -23 89 26 15 72 13 78 -4z m1066 -12 c30 -32 25 -60
-14 -87 -33 -24 -75 -20 -104 9 -29 29 -24 44 26 80 45 31 61 31 92 -2z
m-1787 -13 c15 -16 17 -26 9 -48 -12 -35 -40 -39 -70 -11 -26 24 -32 64 -11
72 27 11 55 6 72 -13z m1975 -5 c0 -14 9 -34 20 -45 26 -26 25 -34 -5 -58 -46
-37 -104 1 -105 66 0 42 18 62 55 62 31 0 35 -3 35 -25z m-916 -127 c10 -40
-9 -91 -36 -96 -22 -4 -58 32 -58 59 0 24 55 82 73 77 6 -3 16 -20 21 -40z
m357 13 c29 -29 38 -76 23 -116 -8 -19 -55 -45 -83 -45 -23 0 -71 86 -71 128
0 65 79 85 131 33z m-1150 -2 c13 -24 6 -83 -12 -105 -14 -17 -61 -18 -77 -2
-17 17 -15 62 6 97 21 38 65 43 83 10z m178 -6 c17 -20 20 -34 15 -62 -12 -69
-61 -92 -101 -48 -28 31 -34 65 -18 104 12 28 19 33 49 33 25 0 40 -7 55 -27z
m393 10 c20 -18 24 -63 6 -81 -28 -28 -108 7 -108 48 0 45 65 66 102 33z m790
0 c30 -27 20 -111 -16 -135 -38 -26 -96 19 -96 74 0 35 39 78 71 78 12 0 31
-7 41 -17z m-1537 -16 c14 -11 16 -21 11 -50 -12 -66 -83 -87 -108 -32 -8 18
-5 29 14 59 25 38 51 46 83 23z m1135 -7 c13 -24 3 -67 -17 -74 -22 -9 -53 12
-53 35 0 53 48 80 70 39z m638 4 c9 -2 12 -19 10 -51 -3 -41 -7 -50 -31 -61
-42 -20 -76 -8 -93 34 -15 35 -13 45 14 77 15 16 51 17 100 1z m-1930 -43 c7
-43 -6 -71 -33 -71 -23 0 -25 4 -25 43 0 50 6 59 35 55 12 -2 21 -12 23 -27z
m2110 -11 c45 -27 40 -54 -11 -58 l-37 -3 0 40 c0 23 3 41 8 41 4 0 22 -9 40
-20z m-1319 -113 c18 -57 7 -77 -33 -59 -29 13 -42 61 -26 92 18 34 42 20 59
-33z m-568 12 c32 -22 37 -53 18 -108 -11 -31 -39 -46 -76 -39 -26 5 -56 71
-48 108 13 61 55 76 106 39z m193 -10 c31 -37 33 -77 5 -113 -23 -30 -47 -33
-89 -11 -27 14 -30 21 -30 63 0 91 61 124 114 61z m164 -6 c4 -36 -25 -73 -58
-73 -16 0 -20 7 -20 37 0 70 72 103 78 36z m994 20 c10 -9 18 -27 18 -40 0
-31 -42 -73 -74 -73 -57 0 -77 72 -30 109 32 25 61 27 86 4z m-211 -3 c29 -16
26 -84 -6 -115 -27 -28 -42 -30 -79 -14 -38 18 -49 88 -19 121 18 20 73 24
104 8z m447 -6 c13 -24 2 -63 -23 -80 -47 -31 -103 24 -75 75 14 26 84 30 98
5z m-1745 -56 c13 -50 -50 -92 -73 -49 -13 25 -13 43 0 76 9 25 11 25 39 11
15 -8 31 -25 34 -38z m967 27 c9 -11 10 -19 3 -26 -14 -14 -43 0 -43 22 0 23
23 25 40 4z m1168 -18 c3 -22 -1 -27 -18 -27 -23 0 -35 22 -26 46 10 25 41 12
44 -19z m-186 -1 c4 -6 8 -14 8 -18 0 -14 -47 -38 -64 -32 -18 7 -32 47 -21
64 8 13 66 3 77 -14z m-103 -72 c12 -15 21 -37 21 -49 0 -12 -9 -34 -21 -49
-16 -21 -29 -26 -63 -26 -52 0 -66 13 -66 61 0 77 85 119 129 63z m-972 -6
c15 -19 24 -76 13 -83 -16 -10 -49 5 -61 27 -24 44 19 93 48 56z m754 -16 c27
-24 31 -32 24 -61 -9 -40 -58 -74 -95 -65 -41 9 -60 33 -60 76 0 76 71 103
131 50z m-211 -2 c37 -37 22 -122 -25 -140 -57 -22 -135 34 -135 97 0 58 114
89 160 43z m-992 -33 c3 -23 -1 -27 -32 -32 -62 -12 -77 19 -23 47 40 21 51
18 55 -15z m-193 -2 c38 -37 28 -125 -15 -125 -51 0 -83 96 -44 134 21 22 31
20 59 -9z m815 6 c10 -20 4 -51 -10 -51 -20 0 -53 38 -47 53 9 23 44 21 57 -2z
m1040 4 c0 -9 -7 -31 -14 -50 -12 -28 -21 -35 -42 -35 -34 0 -64 26 -64 56 0
29 14 38 30 19 18 -22 50 -19 50 5 0 13 7 20 20 20 11 0 20 -7 20 -15z m-1995
-25 c32 -36 -8 -130 -55 -130 -11 0 -30 10 -41 21 -17 17 -20 29 -16 63 9 68
69 93 112 46z m-185 -51 c0 -44 -20 -79 -46 -79 -25 0 -34 17 -34 65 0 27 5
35 28 43 37 13 52 5 52 -29z m1834 -40 c55 -44 18 -139 -55 -139 -62 0 -96 59
-67 113 26 50 77 61 122 26z m-771 -24 c31 -30 34 -51 10 -77 -23 -25 -68 -23
-87 4 -23 32 -20 54 10 77 33 26 34 26 67 -4z m311 3 c39 -56 5 -158 -53 -158
-38 0 -51 17 -51 70 0 89 65 144 104 88z m-734 -44 c0 -43 -31 -76 -68 -72
-41 5 -39 36 5 85 43 47 63 43 63 -13z m225 42 c19 -14 19 -16 2 -50 -29 -62
-87 -44 -70 22 10 43 35 53 68 28z m753 -18 c32 -27 0 -123 -46 -135 -52 -14
-87 1 -103 46 -28 73 84 140 149 89z m455 1 c13 -21 -10 -69 -45 -88 -21 -12
-31 -13 -52 -3 -22 10 -26 18 -26 52 0 33 4 40 23 44 12 3 31 7 42 10 31 6 47
2 58 -15z m126 0 c32 -30 26 -80 -13 -94 -24 -8 -31 -6 -47 14 -24 30 -24 42
2 75 25 31 29 32 58 5z m-1780 -53 c0 -24 -54 -71 -69 -61 -18 11 -10 53 17
85 25 30 27 31 40 14 7 -10 13 -27 12 -38z m-178 23 c35 -25 38 -64 8 -103
-26 -33 -53 -33 -85 0 -30 29 -27 64 8 102 26 27 32 27 69 1z m-153 -34 c24
-31 16 -84 -19 -121 -54 -58 -141 -3 -112 71 6 16 88 75 104 75 4 0 16 -11 27
-25z m1842 -62 c27 -34 22 -95 -9 -126 -34 -34 -112 -20 -126 22 -7 22 14 70
39 90 9 8 16 20 16 27 0 26 57 16 80 -13z m-459 -13 c9 -14 20 -41 23 -61 6
-32 2 -40 -38 -82 -33 -34 -50 -44 -66 -40 -33 9 -50 43 -50 99 0 42 5 59 26
84 33 38 77 39 105 0z m262 -22 c23 -36 -36 -148 -78 -148 -30 0 -75 55 -75
91 0 27 9 41 43 70 42 37 42 37 71 21 16 -9 34 -24 39 -34z m-618 6 c32 -21
34 -75 5 -104 l-21 -21 -39 22 c-48 27 -51 51 -13 91 31 33 36 33 68 12z m970
2 c11 -7 32 -16 46 -19 36 -9 44 -35 21 -67 -23 -31 -73 -38 -108 -15 -20 13
-24 24 -24 65 0 45 2 50 23 50 12 0 31 -6 42 -14z m-1437 -31 c18 -40 15 -75
-6 -75 -24 0 -42 19 -42 46 0 55 29 72 48 29z m-326 -2 c12 -10 18 -30 18 -56
0 -68 -47 -97 -98 -61 -32 22 -29 68 7 105 34 33 47 36 73 12z m-158 -46 c14
-38 -11 -107 -45 -126 -22 -12 -29 -12 -55 0 -26 13 -29 20 -32 66 -4 69 20
96 81 91 35 -3 43 -7 51 -31z m300 7 c10 -4 16 -18 16 -35 0 -24 -4 -29 -23
-29 -13 0 -28 5 -35 12 -7 7 -12 22 -12 35 0 24 20 30 54 17z m-489 -45 c18
-19 18 -21 2 -52 -34 -62 -52 -80 -75 -72 -19 5 -22 14 -22 60 0 44 4 57 22
69 30 21 51 20 73 -5z m1594 -54 c42 -48 42 -95 2 -136 -36 -36 -60 -37 -100
-3 -33 28 -39 61 -20 111 27 71 70 82 118 28z m479 23 c18 -18 15 -73 -5 -96
-27 -31 -63 -36 -100 -12 -29 17 -33 25 -33 65 0 39 3 45 20 45 11 0 23 -7 26
-15 9 -23 44 -19 44 5 0 23 29 27 48 8z m146 -8 c35 -13 60 -54 52 -85 -5 -20
-13 -25 -36 -25 -43 0 -70 31 -70 80 0 43 8 48 54 30z m-379 -14 c27 -20 14
-83 -25 -118 -84 -76 -166 18 -86 98 37 37 78 44 111 20z m-787 -8 c7 -7 12
-30 12 -53 0 -52 -13 -65 -67 -65 -50 0 -56 16 -23 57 11 14 20 36 20 49 0 18
5 24 23 24 13 0 28 -5 35 -12z m316 -32 c41 -54 31 -106 -20 -106 -34 0 -47
24 -40 76 10 76 21 81 60 30z m-530 -11 c4 -14 4 -36 0 -50 -6 -24 -11 -27
-76 -40 -13 -2 -18 3 -18 21 0 19 8 28 30 35 22 8 30 17 30 35 0 32 26 31 34
-1z m-579 -20 c50 -49 21 -156 -38 -141 -56 14 -76 109 -31 145 34 27 40 26
69 -4z m-177 -31 c60 -67 -13 -173 -95 -139 -51 22 -52 78 -1 139 34 42 57 42
96 0z m308 1 c20 -14 43 -25 50 -25 21 0 16 -43 -8 -77 -13 -16 -27 -31 -32
-32 -13 -3 -55 98 -56 132 0 15 2 27 5 27 2 0 21 -11 41 -25z m232 -7 c-2 -17
-11 -24 -30 -26 -34 -4 -36 11 -6 32 31 22 40 20 36 -6z m1319 -30 c58 -55 5
-178 -78 -178 -33 0 -41 5 -54 30 -19 37 -19 64 1 106 29 61 90 80 131 42z
m155 -4 c19 -10 44 -14 65 -11 l33 6 0 -49 c0 -60 -24 -93 -68 -93 -60 0 -106
75 -82 134 15 34 12 33 52 13z m-633 -43 c29 -40 30 -126 2 -141 -48 -25 -94
7 -107 75 -15 80 61 128 105 66z m232 8 c38 -38 7 -132 -48 -145 -31 -8 -53 3
-72 38 -13 22 -12 29 5 64 18 36 52 64 82 64 6 0 22 -10 33 -21z m-560 -30
c41 -41 5 -129 -53 -129 -30 0 -68 30 -68 54 0 34 22 68 52 81 43 19 44 19 69
-6z m-958 -46 c47 -54 5 -143 -68 -143 -33 0 -75 27 -75 49 0 28 23 62 57 85
44 31 64 32 86 9z m491 -2 c23 -26 6 -61 -29 -61 -22 0 -25 5 -25 33 0 51 23
63 54 28z m-274 -58 c0 -36 -6 -52 -30 -80 -16 -18 -30 -38 -30 -43 0 -15 -36
-12 -49 3 -16 20 -24 72 -17 102 4 14 25 39 47 55 55 40 79 29 79 -37z m508
24 c4 -20 -25 -34 -40 -19 -15 15 -1 44 19 40 10 -2 19 -11 21 -21z m653 -66
c48 -39 18 -141 -41 -141 -66 0 -95 86 -45 135 29 30 55 32 86 6z m224 -5 c28
-42 2 -106 -43 -106 -54 0 -80 60 -46 108 21 31 69 30 89 -2z m265 -9 c0 -51
-24 -77 -71 -77 -52 0 -79 15 -79 43 0 47 24 60 123 65 24 2 27 -1 27 -31z
m167 1 c13 -13 23 -33 23 -50 0 -23 -4 -28 -24 -28 -37 0 -59 39 -45 78 10 27
17 28 46 0z m-1198 -42 c21 -25 9 -79 -21 -95 -38 -22 -82 -5 -86 32 -6 52 76
100 107 63z m-965 -36 c32 -12 35 -51 6 -80 -17 -17 -28 -19 -58 -14 -51 9
-72 22 -72 43 0 29 37 55 87 60 6 0 23 -3 37 -9z m207 0 c14 -8 19 -21 19 -50
0 -43 -18 -60 -63 -60 -34 0 -71 43 -63 73 9 38 67 58 107 37z m1172 -60 c34
-27 44 -78 23 -118 -20 -39 -44 -52 -95 -52 l-41 0 0 58 c0 45 5 65 25 95 29
42 51 46 88 17z m650 -15 c9 -20 24 -38 32 -41 18 -7 20 -35 3 -52 -17 -17
-49 -15 -76 4 -27 19 -30 78 -5 106 22 25 27 23 46 -17z m-188 9 c19 -19 12
-68 -13 -96 -18 -21 -91 -25 -110 -6 -7 7 -12 29 -12 50 0 34 4 41 33 53 43
19 82 19 102 -1z m982 -16 c-3 -8 -6 -5 -6 6 -1 11 2 17 5 13 3 -3 4 -12 1
-19z m-1209 -48 c4 -64 -10 -80 -68 -80 -56 0 -86 33 -69 77 10 27 75 63 109
60 23 -2 25 -7 28 -57z m-794 4 c37 -37 3 -104 -53 -104 -66 0 -37 113 31 119
4 1 14 -6 22 -15z m-742 -11 c21 -19 26 -111 6 -131 -17 -17 -68 -15 -90 5
-25 22 -24 83 3 117 23 30 54 33 81 9z m978 -22 c0 -31 -22 -61 -45 -61 -30 0
-45 13 -45 40 0 22 6 31 28 38 49 18 62 15 62 -17z m864 -82 c44 -26 45 -42 6
-81 -26 -25 -36 -29 -63 -24 -58 11 -85 69 -50 108 21 24 64 23 107 -3z m247
11 c46 -25 8 -110 -50 -110 -60 0 -105 72 -69 108 15 15 92 16 119 2z m-453
-53 c6 -88 -45 -124 -104 -74 -60 52 -22 131 60 125 l41 -3 3 -48z m-239 19
c29 -31 25 -73 -9 -98 -22 -16 -30 -17 -58 -7 -58 20 -72 87 -24 113 39 22 65
19 91 -8z m-739 -57 c0 -74 -65 -124 -102 -79 -22 27 -16 56 17 86 29 27 85
22 85 -7z m188 8 c30 -24 -8 -77 -56 -77 -36 0 -52 16 -52 52 0 20 7 31 23 37
24 10 64 4 85 -12z m-755 -31 c-3 -41 -37 -74 -61 -60 -9 6 -21 23 -26 37 -13
37 7 59 53 55 33 -3 36 -5 34 -32z m-163 -14 c20 -16 21 -23 13 -48 -11 -33
-62 -67 -88 -58 -13 5 -15 14 -10 38 3 17 7 43 8 59 2 22 7 27 28 27 15 0 37
-8 49 -18z m1810 -42 c28 -28 25 -57 -10 -91 -25 -26 -36 -30 -75 -28 l-45 3
0 42 c0 35 5 47 31 68 37 31 72 33 99 6z m164 -3 c3 -13 17 -29 31 -35 47 -22
26 -72 -31 -72 -42 0 -84 34 -84 67 0 55 71 89 84 40z m-386 -24 c26 -36 -7
-97 -61 -109 -23 -5 -34 -2 -44 12 -17 24 -17 84 2 111 13 18 20 20 52 13 21
-5 43 -17 51 -27z m590 -5 c22 -24 42 -69 42 -94 0 -19 -40 -18 -67 1 -29 21
-49 81 -33 100 17 21 33 19 58 -7z m-1144 -3 c14 -36 -20 -75 -65 -75 -26 0
-27 64 -1 79 25 15 59 13 66 -4z m364 -53 c-3 -41 -6 -48 -31 -56 -43 -16 -81
9 -85 56 -3 34 -1 37 40 51 62 21 80 9 76 -51z m-604 28 c36 -13 36 -63 1 -86
-35 -23 -55 -5 -55 52 0 47 7 52 54 34z m-923 -10 c15 -9 19 -22 19 -70 0 -50
-4 -61 -22 -74 -28 -20 -72 -21 -88 -1 -9 11 -8 20 9 44 13 18 21 45 21 70 0
35 3 41 21 41 11 0 29 -5 40 -10z m-537 -19 c10 -11 24 -40 32 -67 22 -75 18
-152 -16 -258 -28 -87 -30 -105 -29 -223 2 -142 -15 -322 -37 -397 -8 -27 -14
-77 -14 -110 0 -34 -7 -83 -15 -110 -8 -27 -15 -81 -15 -119 0 -58 -5 -78 -27
-116 -22 -38 -27 -59 -27 -118 -1 -70 0 -73 38 -112 35 -36 38 -43 28 -65 -6
-14 -36 -43 -66 -65 -66 -49 -82 -74 -68 -106 9 -19 22 -24 83 -31 79 -10 96
-23 86 -66 -5 -20 -160 -135 -667 -498 -362 -259 -664 -469 -669 -465 -6 3
-38 45 -73 93 -34 48 -111 151 -170 229 -96 126 -255 363 -332 495 l-27 46
862 929 c475 510 910 979 968 1041 57 61 112 112 121 112 9 0 25 -9 34 -19z
m724 -13 c7 -7 12 -26 12 -43 0 -36 -15 -55 -45 -55 -41 0 -59 46 -35 91 12
21 50 25 68 7z m564 -13 c8 -19 8 -31 0 -50 -10 -21 -18 -25 -56 -25 -25 0
-48 5 -51 10 -10 15 54 90 76 90 11 0 24 -11 31 -25z m1056 -94 c4 -40 -12
-61 -47 -61 -34 0 -51 17 -51 51 0 36 32 59 68 50 21 -6 28 -14 30 -40z m213
18 c5 -10 7 -30 3 -44 -6 -24 -10 -26 -52 -23 -38 2 -49 8 -61 29 -23 41 -10
55 48 56 41 1 54 -3 62 -18z m-408 -10 c29 -41 -6 -99 -59 -99 -41 0 -64 22
-64 64 0 43 16 56 66 56 32 0 47 -5 57 -21z m607 -5 c21 -20 1 -48 -37 -52
-53 -5 -86 50 -40 68 26 10 56 4 77 -16z m-1192 -22 c5 -33 -24 -72 -52 -72
-38 0 -49 49 -19 82 24 26 67 20 71 -10z m-944 -23 c29 -23 34 -60 10 -83 -21
-21 -57 -20 -85 3 -21 17 -22 21 -9 50 11 28 33 50 51 51 4 0 18 -9 33 -21z
m196 -13 c0 -44 -22 -63 -55 -48 -33 15 -34 59 -2 72 44 18 57 12 57 -24z
m340 -15 c0 -41 -11 -51 -56 -51 -34 0 -33 42 2 69 40 32 54 27 54 -18z m1268
-37 c26 -18 28 -44 7 -83 -13 -26 -33 -41 -56 -41 -19 0 -49 41 -49 68 0 61
50 90 98 56z m-200 -16 c20 -20 15 -85 -8 -108 -24 -24 -48 -25 -78 -4 -31 21
-28 60 7 95 31 31 59 37 79 17z m-198 -18 c11 -11 20 -33 20 -49 0 -33 -34
-81 -57 -81 -55 0 -73 92 -27 129 33 26 39 26 64 1z m582 -10 c21 0 24 -25 3
-33 -19 -8 -60 26 -50 42 5 9 10 10 18 2 6 -6 19 -11 29 -11z m-927 -65 c0
-14 -8 -21 -27 -23 -24 -3 -28 0 -28 23 0 23 4 26 28 23 19 -2 27 -9 27 -23z
m-770 -5 c0 -16 -28 -25 -52 -16 -12 5 -13 9 -3 22 16 18 55 15 55 -6z m1787
-37 c10 -9 18 -27 18 -40 0 -19 -5 -23 -31 -23 -43 0 -69 17 -69 44 0 12 3 26
7 29 12 13 56 7 75 -10z m-399 -24 c36 -10 38 -12 35 -47 -3 -35 -5 -37 -40
-40 -43 -4 -78 24 -78 61 0 40 16 45 83 26z m237 1 c0 -5 -9 -19 -20 -30 -27
-27 -100 -28 -100 -2 0 10 5 23 12 30 14 14 108 16 108 2z m-1390 -9 c8 -6 14
-25 14 -47 0 -44 -31 -74 -75 -74 -27 0 -29 3 -29 36 0 26 8 43 29 65 32 31
38 34 61 20z m-536 -17 c17 -45 -1 -84 -39 -84 -43 0 -60 47 -28 82 20 22 59
24 67 2z m154 4 c7 -7 12 -27 12 -45 0 -28 -4 -33 -23 -33 -13 0 -28 5 -35 12
-24 24 -8 78 23 78 6 0 16 -5 23 -12z m580 -20 c3 -26 1 -28 -32 -28 -31 0
-36 3 -36 23 0 31 9 39 40 35 19 -2 26 -10 28 -30z m759 6 c3 -8 -1 -22 -9
-30 -13 -13 -16 -13 -28 0 -10 13 -10 19 0 31 16 19 29 19 37 -1z m-1679 -56
c3 -24 0 -28 -23 -28 -27 0 -41 20 -31 46 10 27 51 13 54 -18z m2345 -71 c26
-17 27 -20 27 -121 l0 -104 -157 5 c-87 3 -162 9 -168 14 -12 11 -7 141 5 153
7 7 10 -6 10 -33 0 -44 14 -81 30 -81 6 0 10 34 10 78 l0 78 43 16 c55 22 164
19 200 -5z m-945 -35 c22 -40 26 -42 68 -42 25 0 57 -6 72 -14 15 -7 58 -16
96 -20 83 -8 95 -20 96 -91 0 -93 -45 -117 -139 -75 -25 12 -65 20 -95 20 -29
0 -75 7 -103 15 -29 9 -96 16 -155 17 -89 1 -113 -3 -178 -26 -41 -15 -95 -31
-118 -37 -62 -14 -174 -14 -199 -1 -30 16 -38 63 -18 101 20 40 67 63 206 103
101 29 128 32 242 33 l128 0 25 33 c15 18 31 31 38 29 6 -2 21 -22 34 -45z
m584 -79 c13 -12 18 -30 18 -70 0 -52 0 -53 -30 -53 l-30 0 0 63 c0 80 8 91
42 60z m-1526 -14 c71 -22 108 -117 66 -169 -19 -24 -21 -24 -216 -26 -195 -2
-197 -1 -212 21 -11 17 -13 38 -8 88 6 64 7 65 44 76 20 6 60 11 88 11 28 0
53 4 56 9 7 10 139 3 182 -10z m1433 -25 c39 -50 21 -134 -29 -134 -25 0 -40
29 -40 80 0 78 31 102 69 54z m-1833 -89 c10 -38 -3 -75 -26 -75 -17 0 -20 7
-20 43 0 24 3 47 7 50 14 15 33 6 39 -18z m1744 21 c0 -16 -14 -36 -26 -36
-14 0 -19 22 -7 33 7 8 33 10 33 3z m-2102 -59 c24 -19 5 -243 -30 -330 -17
-45 -86 -84 -102 -59 -3 5 10 56 29 114 22 68 37 135 40 189 4 46 8 90 10 96
4 13 29 8 53 -10z m192 -367 c23 -23 26 -49 7 -74 -11 -15 -17 -17 -35 -7 -18
9 -22 21 -22 56 0 51 16 59 50 25z m1812 -5 c8 -18 8 -32 -2 -54 -28 -68 12
-172 115 -302 104 -131 132 -150 305 -208 103 -35 105 -37 108 -69 l3 -33
-278 4 c-271 4 -597 20 -658 33 -55 11 -75 31 -75 73 0 21 7 55 15 74 8 20 15
65 15 100 l0 63 80 109 c117 160 216 232 323 234 31 1 39 -4 49 -24z m-1451
-146 c57 -29 75 -33 174 -38 l110 -6 14 -30 c10 -20 15 -62 15 -125 1 -80 -3
-102 -22 -137 -12 -24 -28 -44 -35 -45 -6 -1 -55 -2 -107 -2 -88 -1 -99 -3
-150 -33 -89 -51 -193 -80 -305 -87 -55 -3 -139 -9 -188 -12 -87 -6 -183 5
-233 28 -31 15 -32 57 -1 85 12 11 48 30 80 42 131 48 153 67 260 232 61 93
73 104 163 143 77 34 137 30 225 -15z m903 -564 c1188 -64 1407 -76 1796 -95
525 -26 517 -26 545 -56 23 -25 125 -272 125 -303 0 -9 -7 -26 -15 -39 -15
-20 -22 -21 -88 -17 -40 3 -650 23 -1357 45 -707 22 -1309 43 -1338 46 -92 10
-104 29 -146 229 -20 94 -36 174 -36 177 0 8 29 38 37 38 3 0 217 -11 477 -25z
m-626 -20 c6 -14 26 -99 43 -190 38 -195 35 -215 -30 -215 -21 0 -215 -20
-431 -45 -450 -52 -470 -53 -494 -26 -16 18 -17 31 -7 158 6 77 11 149 11 161
0 12 13 36 28 53 l28 31 359 44 c198 24 369 45 380 47 11 3 38 5 61 6 34 1 43
-3 52 -24z m-1008 -290 l0 -115 -72 -53 c-263 -193 -1039 -727 -1056 -727 -26
0 -90 64 -99 98 -3 14 -1 32 4 41 16 26 1186 871 1205 871 16 0 18 -12 18
-115z m2195 -225 c1594 -48 1698 -51 1960 -59 165 -5 259 -12 276 -21 23 -11
40 -47 123 -270 92 -246 109 -311 86 -325 -16 -10 -3319 26 -3360 36 -68 17
-68 17 -137 305 -68 286 -74 324 -53 349 16 19 -60 20 1105 -15z m-1261 14 c9
-3 25 -21 36 -39 22 -36 140 -497 140 -549 0 -73 28 -67 -635 -136 -463 -48
-606 -59 -627 -51 -27 10 -28 14 -28 75 0 105 49 498 66 532 29 57 39 60 530
114 252 28 461 53 463 56 6 6 37 5 55 -2z m-1194 -276 c0 -18 -13 -130 -29
-249 -31 -232 -39 -257 -95 -286 -17 -9 -119 -67 -227 -129 -108 -63 -206
-114 -217 -114 -24 0 -209 210 -218 247 -4 13 0 32 7 44 8 11 174 132 369 269
378 265 410 282 410 218z m1545 -528 l26 -50 -25 -25 c-18 -18 -36 -25 -65
-25 -22 0 -376 -34 -786 -75 -757 -75 -787 -77 -801 -41 -11 30 17 87 49 102
21 9 282 39 722 84 380 39 699 72 710 74 11 2 48 4 82 5 l63 1 25 -50z m1900
25 c831 -9 1520 -18 1531 -21 15 -3 23 -13 26 -35 4 -25 -1 -35 -31 -60 -25
-21 -43 -28 -61 -25 -14 3 -626 7 -1360 11 -734 3 -1454 8 -1598 11 l-264 7
-19 31 c-19 31 -25 77 -12 89 9 10 108 9 1788 -8z m-3685 -269 c0 -34 -24 -75
-65 -109 -36 -31 -51 -37 -90 -37 -50 0 -62 12 -51 55 10 39 111 104 164 104
29 1 42 -3 42 -13z"/>
<path d="M5290 16816 c332 -330 1165 -1136 1171 -1134 4 2 53 58 109 126 l101
123 -103 110 c-57 61 -104 114 -106 119 -2 4 88 105 200 224 l203 216 209 -1
210 -1 138 145 c76 80 138 148 138 151 0 3 -530 6 -1177 6 l-1178 0 85 -84z
m1084 -283 c-46 -62 -146 -184 -148 -181 -1 2 -48 51 -106 111 l-104 107 193
0 193 0 -28 -37z"/>
<path d="M4300 16886 c0 -8 1711 -1656 1718 -1655 7 0 183 201 209 238 11 15
-71 99 -699 716 l-712 700 -258 3 c-142 2 -258 1 -258 -2z"/>
<path d="M1100 16300 l0 -579 1400 -1376 c771 -756 1405 -1375 1410 -1375 10
0 796 839 794 848 0 3 -696 693 -1545 1533 l-1544 1528 -257 1 -258 0 0 -580z
m1853 -1234 c719 -697 1307 -1271 1307 -1275 0 -11 -301 -346 -310 -346 -4 0
-584 566 -1289 1259 l-1281 1258 0 316 0 315 133 -129 c72 -71 720 -700 1440
-1398z"/>
<path d="M2160 16877 c0 -11 2822 -2778 2830 -2775 13 5 270 286 270 295 0 4
-215 218 -478 475 -476 466 -716 705 -697 695 6 -2 376 -152 824 -332 532
-214 819 -325 827 -319 7 5 60 66 118 136 l106 128 -32 13 c-18 8 -388 159
-823 337 -434 177 -792 324 -794 326 -2 1 11 43 28 92 38 110 40 172 9 230
-29 53 -632 660 -673 677 -23 10 -212 15 -772 20 -409 4 -743 5 -743 2z m1342
-340 c28 -12 396 -344 449 -405 46 -52 40 -78 -46 -192 -68 -90 -79 -100 -108
-100 -29 0 -67 34 -376 344 -383 383 -363 353 -231 359 162 8 286 5 312 -6z"/>
<path d="M1101 14648 l1 -753 132 -125 131 -125 7 195 c4 107 9 206 10 219 3
20 146 -114 937 -875 513 -495 937 -900 941 -902 4 -2 67 55 139 125 l131 128
-1075 1049 -1075 1050 0 234 0 234 -131 144 c-72 79 -135 147 -140 150 -5 3
-9 -305 -8 -748z"/>
<path d="M1100 13264 l0 -271 740 -712 c407 -391 746 -714 753 -717 8 -3 63
48 137 127 l122 131 -58 58 c-33 31 -401 392 -819 800 -418 409 -786 768 -817
799 l-58 55 0 -270z"/>
<path d="M1101 12499 c1 -68 4 -176 8 -239 l6 -116 348 -332 c191 -183 348
-335 350 -339 1 -4 -158 -48 -353 -99 l-355 -91 -3 -172 c-1 -98 1 -171 7
-171 18 0 1326 342 1334 349 6 6 -1121 1128 -1290 1285 l-53 49 1 -124z"/>
<path d="M1550 10790 c-223 -49 -415 -92 -427 -95 l-23 -5 1 -323 c1 -177 4
-355 8 -396 l6 -73 391 438 c215 242 413 463 439 492 35 39 42 52 28 51 -10 0
-200 -40 -423 -89z"/>
<path d="M10410 11903 c-18 -20 -44 -62 -58 -93 -24 -51 -26 -70 -33 -265 -8
-223 -17 -271 -65 -368 -37 -77 -90 -136 -151 -169 -45 -25 -60 -27 -198 -32
-83 -2 -188 -12 -234 -21 -382 -74 -655 -330 -792 -740 l-34 -100 -5 -351 c-4
-285 -8 -354 -19 -368 -8 -10 -47 -34 -85 -53 -257 -129 -422 -349 -471 -630
-51 -291 36 -582 234 -781 78 -80 127 -115 239 -171 89 -45 118 -77 127 -141
44 -300 165 -531 364 -694 171 -140 395 -225 598 -226 74 0 67 16 84 -216 29
-416 -52 -795 -219 -1015 -97 -127 -211 -210 -354 -260 -257 -87 -496 -56
-719 93 -245 164 -387 436 -365 699 9 110 30 169 77 223 78 88 162 110 221 57
33 -29 33 -30 33 -123 0 -120 14 -126 79 -35 62 86 84 141 98 234 9 66 9 87
-5 133 -20 67 -67 125 -136 165 -58 34 -66 63 -30 109 30 39 57 50 129 56 57
4 65 8 68 26 4 28 -33 57 -104 84 -96 35 -205 22 -280 -35 -41 -32 -55 -31
-85 1 -38 42 -96 64 -170 64 -114 0 -208 -65 -244 -169 -30 -89 -11 -148 27
-81 20 35 58 53 93 44 35 -9 102 -85 114 -130 18 -63 13 -135 -18 -276 -62
-277 -67 -484 -17 -633 95 -283 306 -519 575 -643 235 -109 544 -120 800 -30
159 56 289 137 417 260 257 247 396 555 411 913 7 165 -11 310 -57 462 -33
111 -38 97 58 151 99 56 202 150 258 235 92 138 154 375 154 584 0 116 1 120
26 144 20 18 38 24 77 25 75 2 74 2 81 29 5 18 -3 41 -26 82 -28 49 -33 68
-33 123 0 57 6 76 45 155 45 88 45 90 48 205 l3 115 -36 56 c-73 117 -165 117
-249 2 -57 -77 -43 -119 38 -114 54 2 77 -21 84 -87 6 -68 -18 -113 -89 -168
-71 -54 -104 -96 -129 -162 -17 -45 -18 -71 -13 -318 5 -234 4 -280 -11 -347
-22 -100 -91 -236 -156 -309 -49 -55 -189 -158 -213 -158 -7 0 -31 33 -53 73
-162 283 -462 548 -790 698 l-91 42 -7 716 c-5 457 -4 725 2 741 23 59 54 59
138 -2 85 -61 156 -209 140 -293 -9 -47 -49 -80 -98 -80 -40 0 -61 16 -94 71
-10 15 -16 17 -30 8 -39 -23 -23 -154 27 -224 44 -60 103 -84 187 -76 73 8 92
-1 92 -45 0 -40 -18 -75 -46 -88 -28 -12 -30 -23 -9 -41 49 -41 238 33 318
124 32 37 76 137 82 190 4 28 3 74 -3 102 l-9 51 46 34 c63 47 106 119 106
178 0 89 -79 208 -199 300 -55 43 -80 47 -92 17 -3 -8 11 -40 30 -70 45 -70
48 -115 10 -145 -40 -31 -68 -26 -122 22 -27 24 -76 60 -108 80 -66 40 -216
103 -269 113 -19 3 -46 15 -60 26 l-25 19 0 302 c0 261 3 311 19 372 73 276
288 529 535 626 202 80 468 -9 613 -204 117 -158 134 -295 43 -342 -52 -27
-124 -14 -159 29 -20 24 -50 19 -62 -8 -10 -22 -5 -34 54 -119 36 -52 78 -102
94 -113 17 -11 52 -20 88 -22 50 -3 65 0 94 20 50 34 70 67 80 128 10 60 36
90 78 90 38 0 100 39 130 83 21 30 28 54 31 101 4 59 2 66 -61 186 -55 105
-69 126 -90 128 -34 4 -41 -23 -22 -78 22 -63 19 -107 -10 -135 -44 -45 -101
-27 -137 43 -51 101 -195 269 -279 328 -52 36 -52 65 -1 98 57 36 149 140 223
254 165 254 221 502 146 655 l-28 57 -89 0 -88 0 -32 -37z m-1580 -3288 c0
-474 -2 -565 -14 -565 -22 0 -86 78 -112 136 -84 189 -107 483 -55 684 29 113
91 239 136 279 20 17 38 31 40 31 3 0 5 -254 5 -565z m635 -1220 c120 -70 204
-151 283 -273 42 -65 95 -184 106 -238 l7 -31 -59 8 c-126 17 -231 77 -338
192 -102 109 -174 266 -174 379 l0 38 67 -26 c37 -13 86 -36 108 -49z"/>
</g>
</svg>
